<?xml version="1.0" encoding="utf-8"?>
<!-- Generator: Adobe Illustrator 16.0.0, SVG Export Plug-In . SVG Version: 6.00 Build 0)  -->
<!DOCTYPE svg PUBLIC "-//W3C//DTD SVG 1.1//EN" "http://www.w3.org/Graphics/SVG/1.1/DTD/svg11.dtd">
<svg version="1.1" id="Layer_1" xmlns="http://www.w3.org/2000/svg" xmlns:xlink="http://www.w3.org/1999/xlink" x="0px" y="0px"
	 width="1800px" height="1800px" viewBox="0 0 1800 1800" enable-background="new 0 0 1800 1800" xml:space="preserve">
<g>
	<path fill="#AFAFAF" d="M1932.742,1933.049l-1.569-1.568l0.707-0.707l1.569,1.568L1932.742,1933.049z M1927.248,1927.555
		l-1.57-1.569l0.707-0.707l1.57,1.569L1927.248,1927.555z M1921.754,1922.061l-1.57-1.569l0.707-0.707l1.57,1.569L1921.754,1922.061
		z M1916.26,1916.566l-1.569-1.57l0.707-0.707l1.569,1.57L1916.26,1916.566z M1910.765,1911.071l-1.568-1.569l0.707-0.707
		l1.568,1.569L1910.765,1911.071z M1905.271,1905.577l-1.569-1.569l0.707-0.707l1.569,1.569L1905.271,1905.577z M1899.776,1900.083
		l-1.569-1.569l0.707-0.707l1.569,1.569L1899.776,1900.083z M1894.282,1894.589l-1.57-1.569l0.707-0.707l1.57,1.569
		L1894.282,1894.589z M1888.788,1889.095l-1.57-1.569l0.707-0.707l1.57,1.569L1888.788,1889.095z M1883.294,1883.601l-1.57-1.569
		l0.707-0.707l1.57,1.569L1883.294,1883.601z M1877.799,1878.105l-1.568-1.569l0.707-0.707l1.568,1.569L1877.799,1878.105z
		 M1872.305,1872.611l-1.568-1.569l0.707-0.707l1.568,1.569L1872.305,1872.611z M1866.811,1867.117l-1.568-1.569l0.707-0.707
		l1.568,1.569L1866.811,1867.117z M1861.316,1861.623l-1.569-1.569l0.707-0.707l1.569,1.569L1861.316,1861.623z M1855.822,1856.129
		l-1.57-1.57l0.707-0.707l1.57,1.57L1855.822,1856.129z M1850.328,1850.635l-1.57-1.569l0.707-0.707l1.57,1.569L1850.328,1850.635z
		 M1844.834,1845.141l-1.57-1.569l0.707-0.707l1.57,1.569L1844.834,1845.141z M1839.339,1839.646l-1.569-1.569l0.707-0.707
		l1.569,1.569L1839.339,1839.646z M1833.845,1834.151l-1.568-1.569l0.707-0.707l1.568,1.569L1833.845,1834.151z M1828.351,1828.657
		l-1.568-1.569l0.707-0.707l1.568,1.569L1828.351,1828.657z M1822.855,1823.163l-1.569-1.569l0.707-0.707l1.569,1.569
		L1822.855,1823.163z M1817.362,1817.669l-1.57-1.57l0.707-0.707l1.57,1.57L1817.362,1817.669z M1811.868,1812.175l-1.57-1.569
		l0.707-0.707l1.57,1.569L1811.868,1812.175z M1806.373,1806.681l-1.569-1.569l0.707-0.707l1.569,1.569L1806.373,1806.681z
		 M1800.879,1801.186l-1.568-1.568l0.707-0.707l1.568,1.568L1800.879,1801.186z M1795.385,1795.691l-1.568-1.569l0.707-0.707
		l1.568,1.569L1795.385,1795.691z M1789.891,1790.197l-1.569-1.569l0.707-0.707l1.569,1.569L1789.891,1790.197z M1784.396,1784.703
		l-1.57-1.57l0.707-0.707l1.57,1.57L1784.396,1784.703z M1778.902,1779.209l-1.57-1.57l0.707-0.707l1.57,1.57L1778.902,1779.209z
		 M1773.407,1773.715l-1.569-1.57l0.707-0.707l1.569,1.57L1773.407,1773.715z M1767.913,1768.22l-1.569-1.568l0.707-0.707
		l1.569,1.568L1767.913,1768.22z M1762.419,1762.726l-1.569-1.568l0.707-0.707l1.569,1.568L1762.419,1762.726z M1756.925,1757.23
		l-1.569-1.568l0.707-0.707l1.569,1.568L1756.925,1757.23z M1751.431,1751.737l-1.569-1.569l0.707-0.707l1.569,1.569
		L1751.431,1751.737z M1745.938,1746.243l-1.57-1.57l0.707-0.707l1.57,1.57L1745.938,1746.243z M1740.441,1740.749l-1.569-1.57
		l0.707-0.707l1.569,1.57L1740.441,1740.749z M1734.947,1735.254l-1.569-1.568l0.707-0.707l1.569,1.568L1734.947,1735.254z
		 M1729.453,1729.76l-1.569-1.568l0.707-0.707l1.569,1.568L1729.453,1729.76z M1723.959,1724.266l-1.57-1.568l0.707-0.707
		l1.57,1.568L1723.959,1724.266z M1718.465,1718.771l-1.57-1.569l0.707-0.707l1.57,1.569L1718.465,1718.771z M1712.971,1713.277
		l-1.569-1.57l0.707-0.707l1.569,1.57L1712.971,1713.277z M1707.476,1707.783l-1.568-1.57l0.707-0.707l1.568,1.57L1707.476,1707.783
		z M1701.98,1702.288l-1.568-1.569l0.707-0.707l1.568,1.569L1701.98,1702.288z M1696.487,1696.794l-1.569-1.569l0.707-0.707
		l1.569,1.569L1696.487,1696.794z M1690.993,1691.3l-1.57-1.568l0.707-0.707l1.57,1.568L1690.993,1691.3z M1685.499,1685.806
		l-1.57-1.568l0.707-0.707l1.57,1.568L1685.499,1685.806z M1680.005,1680.312l-1.569-1.57l0.707-0.707l1.569,1.57L1680.005,1680.312
		z M1674.51,1674.817l-1.568-1.57l0.707-0.707l1.568,1.57L1674.51,1674.817z M1669.016,1669.322l-1.568-1.569l0.707-0.707
		l1.568,1.569L1669.016,1669.322z M1663.521,1663.828l-1.569-1.569l0.707-0.707l1.569,1.569L1663.521,1663.828z M1658.027,1658.334
		l-1.57-1.569l0.707-0.707l1.57,1.569L1658.027,1658.334z M1652.533,1652.84l-1.57-1.568l0.707-0.707l1.57,1.568L1652.533,1652.84z
		 M1647.039,1647.346l-1.57-1.569l0.707-0.707l1.57,1.569L1647.039,1647.346z M1641.544,1641.852l-1.569-1.569l0.707-0.707
		l1.569,1.569L1641.544,1641.852z M1636.05,1636.357l-1.568-1.57l0.707-0.707l1.568,1.57L1636.05,1636.357z M1630.556,1630.862
		l-1.568-1.569l0.707-0.707l1.568,1.569L1630.556,1630.862z M1625.062,1625.368l-1.57-1.569l0.707-0.707l1.57,1.569
		L1625.062,1625.368z M1619.567,1619.874l-1.57-1.569l0.707-0.707l1.57,1.569L1619.567,1619.874z M1614.072,1614.38l-1.569-1.569
		l0.707-0.707l1.569,1.569L1614.072,1614.38z M1608.578,1608.886l-1.569-1.569l0.707-0.707l1.569,1.569L1608.578,1608.886z
		 M1603.084,1603.392l-1.569-1.569l0.707-0.707l1.569,1.569L1603.084,1603.392z M1597.59,1597.896l-1.57-1.569l0.707-0.707
		l1.57,1.569L1597.59,1597.896z M1592.096,1592.402l-1.569-1.569l0.707-0.707l1.569,1.569L1592.096,1592.402z M1586.602,1586.908
		l-1.569-1.569l0.707-0.707l1.569,1.569L1586.602,1586.908z M1581.105,1581.414l-1.568-1.57l0.707-0.707l1.568,1.57
		L1581.105,1581.414z M1575.612,1575.92l-1.569-1.57l0.707-0.707l1.569,1.57L1575.612,1575.92z M1570.118,1570.426l-1.569-1.569
		l0.707-0.707l1.569,1.569L1570.118,1570.426z M1564.624,1564.931l-1.569-1.568l0.707-0.707l1.569,1.568L1564.624,1564.931z
		 M1559.13,1559.438l-1.569-1.569l0.707-0.707l1.569,1.569L1559.13,1559.438z M1553.636,1553.942l-1.569-1.569l0.707-0.707
		l1.569,1.569L1553.636,1553.942z M1548.141,1548.448l-1.568-1.57l0.707-0.707l1.568,1.57L1548.141,1548.448z M1542.646,1542.954
		l-1.569-1.57l0.707-0.707l1.569,1.57L1542.646,1542.954z M1537.152,1537.46l-1.569-1.57l0.707-0.707l1.569,1.57L1537.152,1537.46z
		 M1531.658,1531.965l-1.57-1.568l0.707-0.707l1.57,1.568L1531.658,1531.965z M1526.164,1526.471l-1.57-1.568l0.707-0.707
		l1.57,1.568L1526.164,1526.471z M1520.67,1520.977l-1.57-1.568l0.707-0.707l1.57,1.568L1520.67,1520.977z M1515.175,1515.482
		l-1.568-1.57l0.707-0.707l1.568,1.57L1515.175,1515.482z M1509.681,1509.988l-1.568-1.57l0.707-0.707l1.568,1.57L1509.681,1509.988
		z M1504.188,1504.494l-1.569-1.57l0.707-0.707l1.569,1.57L1504.188,1504.494z M1498.692,1498.999l-1.57-1.569l0.707-0.707
		l1.57,1.569L1498.692,1498.999z M1493.198,1493.505l-1.57-1.569l0.707-0.707l1.57,1.569L1493.198,1493.505z M1487.704,1488.011
		l-1.57-1.568l0.707-0.707l1.57,1.568L1487.704,1488.011z M1482.209,1482.517l-1.569-1.569l0.707-0.707l1.569,1.569
		L1482.209,1482.517z M1476.715,1477.021l-1.568-1.569l0.707-0.707l1.568,1.569L1476.715,1477.021z M1471.221,1471.528l-1.568-1.57
		l0.707-0.707l1.568,1.57L1471.221,1471.528z M1465.727,1466.033l-1.569-1.569l0.707-0.707l1.569,1.569L1465.727,1466.033z
		 M1460.232,1460.539l-1.57-1.569l0.707-0.707l1.57,1.569L1460.232,1460.539z M1454.738,1455.045l-1.57-1.568l0.707-0.707
		l1.57,1.568L1454.738,1455.045z M1449.243,1449.551l-1.569-1.569l0.707-0.707l1.569,1.569L1449.243,1449.551z M1443.749,1444.057
		l-1.569-1.569l0.707-0.707l1.569,1.569L1443.749,1444.057z M1438.255,1438.562l-1.569-1.57l0.707-0.707l1.569,1.57
		L1438.255,1438.562z M1432.761,1433.067l-1.569-1.569l0.707-0.707l1.569,1.569L1432.761,1433.067z M1427.267,1427.573l-1.569-1.569
		l0.707-0.707l1.569,1.569L1427.267,1427.573z M1421.771,1422.079l-1.569-1.569l0.707-0.707l1.569,1.569L1421.771,1422.079z
		 M1416.277,1416.585l-1.569-1.569l0.707-0.707l1.569,1.569L1416.277,1416.585z M1410.783,1411.091l-1.569-1.569l0.707-0.707
		l1.569,1.569L1410.783,1411.091z M1405.289,1405.597l-1.569-1.569l0.707-0.707l1.569,1.569L1405.289,1405.597z M1399.795,1400.104
		l-1.57-1.57l0.707-0.707l1.57,1.57L1399.795,1400.104z M1394.301,1394.607l-1.569-1.569l0.707-0.707l1.569,1.569L1394.301,1394.607
		z M1388.807,1389.113l-1.569-1.569l0.707-0.707l1.569,1.569L1388.807,1389.113z M1383.312,1383.619l-1.57-1.569l0.707-0.707
		l1.57,1.569L1383.312,1383.619z M1377.817,1378.125l-1.569-1.569l0.707-0.707l1.569,1.569L1377.817,1378.125z M1372.323,1372.631
		l-1.569-1.57l0.707-0.707l1.569,1.57L1372.323,1372.631z M1366.829,1367.137l-1.569-1.569l0.707-0.707l1.569,1.569
		L1366.829,1367.137z M1361.335,1361.643l-1.569-1.569l0.707-0.707l1.569,1.569L1361.335,1361.643z M1355.841,1356.148l-1.569-1.57
		l0.707-0.707l1.569,1.57L1355.841,1356.148z M1350.347,1350.653l-1.569-1.569l0.707-0.707l1.569,1.569L1350.347,1350.653z
		 M1344.852,1345.159l-1.568-1.569l0.707-0.707l1.568,1.569L1344.852,1345.159z M1339.357,1339.665l-1.569-1.569l0.707-0.707
		l1.569,1.569L1339.357,1339.665z M1333.863,1334.171l-1.569-1.569l0.707-0.707l1.569,1.569L1333.863,1334.171z M1328.369,1328.677
		l-1.569-1.569l0.707-0.707l1.569,1.569L1328.369,1328.677z M1322.875,1323.183l-1.57-1.569l0.707-0.707l1.57,1.569
		L1322.875,1323.183z M1317.381,1317.688l-1.57-1.569l0.707-0.707l1.57,1.569L1317.381,1317.688z M1311.887,1312.193l-1.569-1.569
		l0.707-0.707l1.569,1.569L1311.887,1312.193z M1306.393,1306.699l-1.569-1.569l0.707-0.707l1.569,1.569L1306.393,1306.699z
		 M1300.896,1301.205l-1.568-1.569l0.707-0.707l1.568,1.569L1300.896,1301.205z M1295.403,1295.711l-1.569-1.568l0.707-0.707
		l1.569,1.568L1295.403,1295.711z M1289.909,1290.217l-1.569-1.569l0.707-0.707l1.569,1.569L1289.909,1290.217z M1284.415,1284.723
		l-1.569-1.569l0.707-0.707l1.569,1.569L1284.415,1284.723z M1278.921,1279.229l-1.569-1.569l0.707-0.707l1.569,1.569
		L1278.921,1279.229z M1273.427,1273.734l-1.569-1.57l0.707-0.707l1.569,1.57L1273.427,1273.734z M1267.933,1268.239l-1.569-1.569
		l0.707-0.707l1.569,1.569L1267.933,1268.239z M1262.438,1262.745l-1.568-1.569l0.707-0.707l1.568,1.569L1262.438,1262.745z
		 M1256.943,1257.251l-1.569-1.569l0.707-0.707l1.569,1.569L1256.943,1257.251z M1251.449,1251.757l-1.569-1.569l0.707-0.707
		l1.569,1.569L1251.449,1251.757z M1245.955,1246.263l-1.569-1.569l0.707-0.707l1.569,1.569L1245.955,1246.263z M1240.461,1240.77
		l-1.57-1.57l0.707-0.707l1.57,1.57L1240.461,1240.77z M1234.967,1235.274l-1.569-1.57l0.707-0.707l1.569,1.57L1234.967,1235.274z
		 M1229.473,1229.779l-1.569-1.569l0.707-0.707l1.569,1.569L1229.473,1229.779z M1223.979,1224.285l-1.569-1.569l0.707-0.707
		l1.569,1.569L1223.979,1224.285z M1218.483,1218.791l-1.569-1.569l0.707-0.707l1.569,1.569L1218.483,1218.791z M1212.989,1213.297
		l-1.569-1.568l0.707-0.707l1.569,1.568L1212.989,1213.297z M1207.495,1207.803l-1.569-1.569l0.707-0.707l1.569,1.569
		L1207.495,1207.803z M1202.001,1202.309l-1.57-1.569l0.707-0.707l1.57,1.569L1202.001,1202.309z M1196.507,1196.814l-1.569-1.57
		l0.707-0.707l1.569,1.57L1196.507,1196.814z M1191.013,1191.32l-1.569-1.57l0.707-0.707l1.569,1.57L1191.013,1191.32z
		 M1185.518,1185.825l-1.568-1.569l0.707-0.707l1.568,1.569L1185.518,1185.825z M1180.023,1180.331l-1.569-1.569l0.707-0.707
		l1.569,1.569L1180.023,1180.331z M1174.529,1174.837l-1.569-1.569l0.707-0.707l1.569,1.569L1174.529,1174.837z M1169.035,1169.343
		l-1.569-1.568l0.707-0.707l1.569,1.568L1169.035,1169.343z M1163.541,1163.849l-1.57-1.569l0.707-0.707l1.57,1.569
		L1163.541,1163.849z M1158.047,1158.354l-1.57-1.569l0.707-0.707l1.57,1.569L1158.047,1158.354z M1152.553,1152.86l-1.569-1.57
		l0.707-0.707l1.569,1.57L1152.553,1152.86z M1147.059,1147.365l-1.569-1.569l0.707-0.707l1.569,1.569L1147.059,1147.365z
		 M1141.562,1141.871l-1.568-1.569l0.707-0.707l1.568,1.569L1141.562,1141.871z M1136.069,1136.377l-1.569-1.569l0.707-0.707
		l1.569,1.569L1136.069,1136.377z M1130.575,1130.883l-1.569-1.568l0.707-0.707l1.569,1.568L1130.575,1130.883z M1125.081,1125.389
		l-1.569-1.569l0.707-0.707l1.569,1.569L1125.081,1125.389z M1119.587,1119.895l-1.569-1.569l0.707-0.707l1.569,1.569
		L1119.587,1119.895z M1114.093,1114.4l-1.569-1.57l0.707-0.707l1.569,1.57L1114.093,1114.4z M1108.599,1108.906l-1.569-1.57
		l0.707-0.707l1.569,1.57L1108.599,1108.906z M1103.104,1103.411l-1.568-1.569l0.707-0.707l1.568,1.569L1103.104,1103.411z
		 M1097.609,1097.917l-1.569-1.569l0.707-0.707l1.569,1.569L1097.609,1097.917z M1092.115,1092.423l-1.569-1.569l0.707-0.707
		l1.569,1.569L1092.115,1092.423z M1086.621,1086.929l-1.57-1.568l0.707-0.707l1.57,1.568L1086.621,1086.929z M1081.127,1081.436
		l-1.57-1.57l0.707-0.707l1.57,1.57L1081.127,1081.436z M1075.633,1075.939l-1.569-1.569l0.707-0.707l1.569,1.569L1075.633,1075.939
		z M1070.139,1070.446l-1.569-1.57l0.707-0.707l1.569,1.57L1070.139,1070.446z M1064.645,1064.951l-1.569-1.569l0.707-0.707
		l1.569,1.569L1064.645,1064.951z M1059.149,1059.457l-1.569-1.569l0.707-0.707l1.569,1.569L1059.149,1059.457z M1053.655,1053.963
		l-1.569-1.568l0.707-0.707l1.569,1.568L1053.655,1053.963z M1048.161,1048.469l-1.569-1.568l0.707-0.707l1.569,1.568
		L1048.161,1048.469z M1042.667,1042.975l-1.57-1.569l0.707-0.707l1.57,1.569L1042.667,1042.975z M1037.173,1037.48l-1.569-1.57
		l0.707-0.707l1.569,1.57L1037.173,1037.48z M1031.679,1031.986l-1.569-1.57l0.707-0.707l1.569,1.57L1031.679,1031.986z
		 M1026.184,1026.492l-1.568-1.57l0.707-0.707l1.568,1.57L1026.184,1026.492z M1020.689,1020.997l-1.569-1.569l0.707-0.707
		l1.569,1.569L1020.689,1020.997z M1015.195,1015.503l-1.569-1.569l0.707-0.707l1.569,1.569L1015.195,1015.503z M1009.701,1010.009
		l-1.569-1.568l0.707-0.707l1.569,1.568L1009.701,1010.009z M1004.207,1004.515l-1.57-1.568l0.707-0.707l1.57,1.568
		L1004.207,1004.515z M998.713,999.021l-1.57-1.57l0.707-0.707l1.57,1.57L998.713,999.021z M993.219,993.526l-1.569-1.57
		l0.706-0.707l1.57,1.57L993.219,993.526z M987.725,988.032l-1.569-1.57l0.707-0.707l1.569,1.57L987.725,988.032z M982.229,982.537
		l-1.568-1.569l0.707-0.707l1.568,1.569L982.229,982.537z M976.735,977.043l-1.569-1.569l0.707-0.706l1.569,1.568L976.735,977.043z
		 M971.241,971.549l-1.569-1.568l0.707-0.707l1.569,1.568L971.241,971.549z M965.747,966.055l-1.57-1.568l0.707-0.707l1.57,1.568
		L965.747,966.055z M960.253,960.561l-1.57-1.569l0.707-0.707l1.57,1.569L960.253,960.561z M954.759,955.066l-1.569-1.57
		l0.706-0.707l1.57,1.57L954.759,955.066z M949.264,949.572l-1.568-1.57l0.707-0.707l1.568,1.57L949.264,949.572z M943.77,944.078
		l-1.568-1.57l0.707-0.707l1.568,1.57L943.77,944.078z M938.275,938.583l-1.569-1.569l0.707-0.707l1.569,1.569L938.275,938.583z
		 M932.781,933.089l-1.569-1.569l0.707-0.706l1.569,1.568L932.781,933.089z M927.287,927.595l-1.57-1.568l0.707-0.707l1.57,1.568
		L927.287,927.595z M921.793,922.101l-1.57-1.568l0.707-0.707l1.57,1.569L921.793,922.101z M916.299,916.606l-1.57-1.57l0.707-0.707
		l1.57,1.57L916.299,916.606z M910.805,911.112l-1.569-1.57l0.707-0.707l1.569,1.57L910.805,911.112z M905.31,905.618l-1.568-1.57
		l0.707-0.707l1.568,1.57L905.31,905.618z M899.815,900.124l-1.569-1.57l0.707-0.707l1.568,1.57L899.815,900.124z M894.321,894.629
		l-1.569-1.57l0.707-0.707l1.569,1.57L894.321,894.629z M888.827,889.135l-1.57-1.568l0.707-0.707l1.57,1.568L888.827,889.135z
		 M883.333,883.641l-1.57-1.568l0.707-0.707l1.57,1.568L883.333,883.641z M877.839,878.146l-1.57-1.569l0.707-0.707l1.57,1.569
		L877.839,878.146z M872.345,872.652l-1.569-1.569l0.707-0.707l1.569,1.569L872.345,872.652z M866.851,867.158l-1.569-1.57
		l0.707-0.707l1.569,1.57L866.851,867.158z M861.356,861.664l-1.57-1.57l0.707-0.707l1.569,1.57L861.356,861.664z M855.862,856.17
		l-1.57-1.57l0.707-0.707l1.57,1.57L855.862,856.17z M850.368,850.676l-1.57-1.569l0.707-0.707l1.57,1.569L850.368,850.676z
		 M844.874,845.182l-1.57-1.569l0.707-0.707l1.57,1.569L844.874,845.182z M839.379,839.688l-1.57-1.57l0.707-0.707l1.57,1.57
		L839.379,839.688z M833.885,834.193l-1.568-1.57l0.707-0.707l1.568,1.57L833.885,834.193z M828.391,828.699l-1.568-1.57
		l0.707-0.707l1.568,1.57L828.391,828.699z M822.896,823.205l-1.569-1.57l0.707-0.707l1.568,1.57L822.896,823.205z M817.402,817.71
		l-1.57-1.57l0.707-0.707l1.57,1.57L817.402,817.71z M811.908,812.216l-1.57-1.569l0.707-0.707l1.57,1.569L811.908,812.216z
		 M806.414,806.722l-1.57-1.568l0.707-0.707l1.57,1.568L806.414,806.722z M800.92,801.229l-1.57-1.569l0.707-0.707l1.57,1.569
		L800.92,801.229z M795.426,795.733l-1.569-1.569l0.706-0.707l1.57,1.569L795.426,795.733z M789.931,790.239l-1.569-1.57
		l0.707-0.707l1.569,1.57L789.931,790.239z M784.438,784.745l-1.57-1.57l0.707-0.707l1.569,1.57L784.438,784.745z M778.943,779.251
		l-1.57-1.57l0.707-0.707l1.57,1.57L778.943,779.251z M773.449,773.757l-1.57-1.569l0.707-0.707l1.57,1.569L773.449,773.757z
		 M767.955,768.263l-1.57-1.569l0.707-0.707l1.57,1.569L767.955,768.263z M762.46,762.769l-1.569-1.569l0.707-0.707l1.569,1.57
		L762.46,762.769z M756.966,757.274l-1.568-1.57l0.706-0.707l1.569,1.57L756.966,757.274z M751.472,751.78l-1.568-1.57l0.707-0.707
		l1.568,1.57L751.472,751.78z M745.979,746.286l-1.57-1.57l0.707-0.707l1.569,1.57L745.979,746.286z M740.483,740.792l-1.57-1.57
		l0.707-0.707l1.569,1.57L740.483,740.792z M734.989,735.297l-1.57-1.57l0.707-0.707l1.57,1.57L734.989,735.297z M729.495,729.803
		l-1.57-1.568l0.707-0.707l1.57,1.568L729.495,729.803z M724.001,724.309l-1.57-1.568l0.707-0.707l1.57,1.568L724.001,724.309z
		 M718.506,718.814l-1.57-1.569l0.707-0.707l1.57,1.569L718.506,718.814z M713.012,713.32l-1.569-1.569l0.707-0.707l1.569,1.569
		L713.012,713.32z M707.518,707.826l-1.569-1.57l0.707-0.707l1.569,1.57L707.518,707.826z M702.024,702.332l-1.57-1.57l0.707-0.707
		l1.569,1.57L702.024,702.332z M410.831,411.139l-1.57-1.568l0.707-0.707l1.57,1.568L410.831,411.139z M405.336,405.645l-1.57-1.568
		l0.707-0.707l1.57,1.568L405.336,405.645z M399.842,400.15l-1.568-1.569l0.707-0.707l1.568,1.569L399.842,400.15z M394.348,394.656
		l-1.568-1.57l0.707-0.707l1.568,1.57L394.348,394.656z M388.854,389.162l-1.568-1.57l0.707-0.707l1.568,1.57L388.854,389.162z
		 M383.359,383.668l-1.57-1.57l0.707-0.707l1.57,1.57L383.359,383.668z M377.865,378.174l-1.57-1.57l0.707-0.707l1.57,1.57
		L377.865,378.174z M372.371,372.68l-1.57-1.57l0.707-0.707l1.57,1.57L372.371,372.68z M366.877,367.186l-1.57-1.57l0.707-0.707
		l1.57,1.57L366.877,367.186z M361.383,361.691l-1.57-1.57l0.707-0.707l1.57,1.57L361.383,361.691z M355.888,356.197l-1.569-1.57
		l0.707-0.707l1.569,1.57L355.888,356.197z M350.394,350.703l-1.569-1.57l0.707-0.707l1.569,1.57L350.394,350.703z M344.9,345.208
		l-1.57-1.57l0.707-0.707l1.57,1.57L344.9,345.208z M339.406,339.714l-1.57-1.57l0.707-0.707l1.57,1.57L339.406,339.714z
		 M333.912,334.22l-1.57-1.569l0.707-0.707l1.57,1.569L333.912,334.22z M328.417,328.726l-1.569-1.569l0.707-0.707l1.569,1.569
		L328.417,328.726z M322.923,323.231l-1.569-1.569l0.707-0.707l1.569,1.569L322.923,323.231z M317.429,317.737l-1.568-1.57
		l0.707-0.707l1.568,1.57L317.429,317.737z M311.935,312.243l-1.569-1.57l0.707-0.707l1.569,1.57L311.935,312.243z M306.44,306.749
		l-1.57-1.57l0.707-0.707l1.57,1.57L306.44,306.749z M300.946,301.255l-1.57-1.57l0.707-0.707l1.57,1.57L300.946,301.255z
		 M295.452,295.761l-1.57-1.57l0.707-0.707l1.57,1.57L295.452,295.761z M289.958,290.267l-1.57-1.57l0.707-0.707l1.57,1.57
		L289.958,290.267z M284.463,284.772l-1.57-1.57l0.707-0.707l1.57,1.57L284.463,284.772z M278.969,279.278l-1.57-1.57l0.707-0.707
		l1.57,1.57L278.969,279.278z M273.475,273.784l-1.57-1.57l0.707-0.707l1.57,1.57L273.475,273.784z M267.981,268.29l-1.57-1.57
		l0.707-0.707l1.57,1.57L267.981,268.29z M262.487,262.795l-1.57-1.57l0.707-0.707l1.57,1.57L262.487,262.795z M256.992,257.301
		l-1.569-1.57l0.707-0.707l1.569,1.57L256.992,257.301z M251.498,251.807l-1.569-1.569l0.707-0.707l1.569,1.569L251.498,251.807z
		 M246.004,246.312l-1.569-1.569l0.707-0.707l1.569,1.569L246.004,246.312z M240.51,240.818l-1.57-1.569l0.707-0.707l1.57,1.569
		L240.51,240.818z M235.016,235.324l-1.57-1.57l0.707-0.707l1.57,1.57L235.016,235.324z M229.521,229.83l-1.57-1.57l0.707-0.707
		l1.57,1.57L229.521,229.83z M224.027,224.336l-1.57-1.57l0.707-0.707l1.57,1.57L224.027,224.336z M218.533,218.842l-1.57-1.57
		l0.707-0.707l1.57,1.57L218.533,218.842z M213.039,213.348l-1.57-1.57l0.707-0.707l1.57,1.57L213.039,213.348z M207.544,207.854
		l-1.57-1.57l0.707-0.707l1.57,1.57L207.544,207.854z M202.05,202.359l-1.57-1.57l0.707-0.707l1.57,1.57L202.05,202.359z
		 M196.556,196.865l-1.57-1.57l0.707-0.707l1.57,1.57L196.556,196.865z M191.062,191.371l-1.57-1.57l0.707-0.707l1.57,1.57
		L191.062,191.371z M185.567,185.876l-1.569-1.57l0.707-0.707l1.569,1.57L185.567,185.876z M180.073,180.382l-1.569-1.57
		l0.707-0.707l1.569,1.57L180.073,180.382z M174.579,174.888l-1.569-1.569l0.707-0.707l1.569,1.569L174.579,174.888z
		 M169.085,169.394l-1.57-1.569l0.707-0.707l1.57,1.569L169.085,169.394z M163.591,163.899l-1.57-1.569l0.707-0.707l1.57,1.569
		L163.591,163.899z M158.097,158.405l-1.57-1.57l0.707-0.707l1.57,1.57L158.097,158.405z M152.603,152.911l-1.57-1.57l0.707-0.707
		l1.57,1.57L152.603,152.911z M147.108,147.417l-1.57-1.57l0.707-0.707l1.57,1.57L147.108,147.417z M141.614,141.923l-1.57-1.57
		l0.707-0.707l1.57,1.57L141.614,141.923z M136.12,136.429l-1.57-1.57l0.707-0.707l1.57,1.57L136.12,136.429z M130.625,130.935
		l-1.57-1.57l0.707-0.707l1.57,1.57L130.625,130.935z M125.131,125.44l-1.57-1.57l0.707-0.707l1.57,1.57L125.131,125.44z
		 M119.637,119.946l-1.57-1.57l0.707-0.707l1.57,1.57L119.637,119.946z M114.143,114.452l-1.569-1.57l0.707-0.707l1.569,1.57
		L114.143,114.452z M108.648,108.958l-1.569-1.57l0.707-0.707l1.569,1.57L108.648,108.958z M103.154,103.463l-1.569-1.57
		l0.707-0.707l1.569,1.57L103.154,103.463z M97.66,97.969L96.09,96.4l0.707-0.707l1.57,1.569L97.66,97.969z M92.166,92.475
		l-1.57-1.569l0.707-0.707l1.57,1.569L92.166,92.475z M86.672,86.98l-1.57-1.569l0.707-0.707l1.57,1.569L86.672,86.98z
		 M81.178,81.486l-1.57-1.569l0.707-0.707l1.57,1.569L81.178,81.486z M75.684,75.992l-1.57-1.57l0.707-0.707l1.57,1.57
		L75.684,75.992z M70.189,70.498l-1.57-1.57l0.707-0.707l1.57,1.57L70.189,70.498z M64.695,65.004l-1.57-1.57l0.707-0.707l1.57,1.57
		L64.695,65.004z M59.201,59.51l-1.57-1.57l0.707-0.707l1.57,1.57L59.201,59.51z M53.707,54.016l-1.57-1.57l0.707-0.707l1.57,1.57
		L53.707,54.016z M48.212,48.521l-1.57-1.57l0.707-0.707l1.57,1.57L48.212,48.521z M42.718,43.027l-1.57-1.57l0.707-0.707l1.57,1.57
		L42.718,43.027z M37.224,37.533l-1.569-1.57l0.707-0.707l1.569,1.57L37.224,37.533z M31.729,32.039l-1.569-1.57l0.707-0.707
		l1.569,1.57L31.729,32.039z M26.235,26.544l-1.569-1.57l0.707-0.707l1.569,1.57L26.235,26.544z M20.741,21.05l-1.57-1.57
		l0.707-0.707l1.57,1.57L20.741,21.05z M15.247,15.556l-1.57-1.569l0.707-0.707l1.57,1.569L15.247,15.556z M9.753,10.062
		l-1.57-1.569L8.89,7.785l1.57,1.569L9.753,10.062z M4.259,4.567l-1.57-1.569l0.707-0.707l1.57,1.569L4.259,4.567z M-1.235-0.927
		l-1.57-1.57l0.707-0.707l1.57,1.57L-1.235-0.927z M-6.73-6.421l-1.57-1.57l0.707-0.707l1.57,1.57L-6.73-6.421z M-12.224-11.915
		l-1.57-1.57l0.707-0.707l1.57,1.57L-12.224-11.915z M-17.718-17.409l-1.57-1.57l0.707-0.707l1.57,1.57L-17.718-17.409z
		 M-23.212-22.903l-1.57-1.57l0.707-0.707l1.57,1.57L-23.212-22.903z M-28.707-28.397l-1.57-1.57l0.707-0.707l1.57,1.57
		L-28.707-28.397z M-34.201-33.892l-1.569-1.57l0.707-0.707l1.569,1.57L-34.201-33.892z M-39.695-39.386l-1.569-1.57l0.707-0.707
		l1.569,1.57L-39.695-39.386z M-45.189-44.88l-1.569-1.57l0.707-0.707l1.569,1.57L-45.189-44.88z M-50.684-50.375l-1.57-1.57
		l0.707-0.707l1.57,1.57L-50.684-50.375z M-56.178-55.869l-1.57-1.57l0.707-0.707l1.57,1.57L-56.178-55.869z M-61.672-61.363
		l-1.57-1.569l0.707-0.707l1.57,1.569L-61.672-61.363z M-67.166-66.857l-1.57-1.569l0.707-0.707l1.57,1.569L-67.166-66.857z
		 M-72.66-72.352l-1.57-1.569l0.707-0.707l1.57,1.569L-72.66-72.352z M-78.155-77.846l-1.57-1.57l0.707-0.707l1.57,1.57
		L-78.155-77.846z M-83.649-83.34l-1.57-1.57l0.707-0.707l1.57,1.57L-83.649-83.34z M-89.143-88.834l-1.57-1.57l0.707-0.707
		l1.57,1.57L-89.143-88.834z M-94.637-94.328l-1.57-1.57l0.707-0.707l1.57,1.57L-94.637-94.328z M-100.131-99.822l-1.57-1.57
		l0.707-0.707l1.57,1.57L-100.131-99.822z M-105.626-105.316l-1.569-1.57l0.707-0.707l1.569,1.57L-105.626-105.316z
		 M-111.12-110.811l-1.569-1.57l0.707-0.707l1.569,1.57L-111.12-110.811z M-116.614-116.305l-1.569-1.57l0.707-0.707l1.569,1.57
		L-116.614-116.305z M-122.108-121.799l-1.569-1.57l0.707-0.707l1.569,1.57L-122.108-121.799z M-127.603-127.293l-1.57-1.57
		l0.707-0.707l1.57,1.57L-127.603-127.293z"/>
</g>
<circle fill="none" stroke="#AFAFAF" stroke-miterlimit="10" stroke-dasharray="2.6584,6.6461" cx="555.915" cy="556.781" r="200.376"/>
<circle fill="#BFBFBF" cx="555.915" cy="556.781" r="6.4"/>
</svg>
