<?xml version="1.0" encoding="utf-8"?>
<!-- Generator: Adobe Illustrator 16.0.0, SVG Export Plug-In . SVG Version: 6.00 Build 0)  -->
<!DOCTYPE svg PUBLIC "-//W3C//DTD SVG 1.1//EN" "http://www.w3.org/Graphics/SVG/1.1/DTD/svg11.dtd">
<svg version="1.1" id="Layer_1" xmlns="http://www.w3.org/2000/svg" xmlns:xlink="http://www.w3.org/1999/xlink" x="0px" y="0px"
	 width="80px" height="80px" viewBox="0 0 80 80" enable-background="new 0 0 80 80" xml:space="preserve">
<path fill="#FFFFFF" d="M40.021,79.375c-3.142-0.032-6.201-0.245-8.311-0.57c-13.463-2.072-13.463-17.94-13.463-27.423V28.228
	c0-9.481,0-25.349,13.463-27.423c2.125-0.327,5.186-0.54,8.188-0.57l0.215-0.002c3.005,0.032,6.067,0.245,8.186,0.571
	c13.465,2.075,13.465,17.33,13.465,27.424v23.154c0,10.095,0,25.351-13.465,27.423c-2.117,0.326-5.179,0.538-8.187,0.569
	L40.021,79.375z M40.068,4.504c-2.903,0.026-5.807,0.227-7.709,0.52c-9.091,1.4-9.844,11.776-9.844,23.205v23.154
	c0,11.43,0.753,21.805,9.844,23.204c1.9,0.292,4.805,0.491,7.581,0.521l0.133,0.002c2.78-0.03,5.682-0.229,7.577-0.521
	c9.119-1.404,9.844-10.917,9.844-23.204V28.228c0-12.288-0.725-21.799-9.844-23.205C45.741,4.73,42.837,4.53,40.068,4.504z
	 M40.004,35.195c-1.179,0-2.134-0.956-2.134-2.134v-9.533c0-1.179,0.955-2.134,2.134-2.134c1.18,0,2.135,0.956,2.135,2.134v9.533
	C42.139,34.239,41.184,35.195,40.004,35.195z"/>
</svg>
