<?xml version="1.0" encoding="utf-8"?>
<!-- Generator: Adobe Illustrator 16.0.0, SVG Export Plug-In . SVG Version: 6.00 Build 0)  -->
<!DOCTYPE svg PUBLIC "-//W3C//DTD SVG 1.1//EN" "http://www.w3.org/Graphics/SVG/1.1/DTD/svg11.dtd">
<svg version="1.1" id="Layer_1" xmlns="http://www.w3.org/2000/svg" xmlns:xlink="http://www.w3.org/1999/xlink" x="0px" y="0px"
	 width="180px" height="60px" viewBox="0 0 180 60" enable-background="new 0 0 180 60" xml:space="preserve">
<g>
	<path fill="#FFFFFF" d="M63.408,19.744v10.469l9.082-10.469h8.974L71.314,30.642l10.256,17.52h-8.975l-5.235-9.614
		c-1.069-1.923-1.995-2.74-2.777-2.457c-0.785,0.286-1.176,0.713-1.176,1.282v3.953v6.836h-7.479V11.41h3.847
		c0.996,0,1.851,0.357,2.564,1.069c0.711,0.713,1.068,1.532,1.068,2.457V19.744z"/>
	<path fill="#FFFFFF" d="M101.014,46.986c-1.495,0.784-3.082,1.264-4.754,1.444c-1.675,0.176-3.151,0.267-4.434,0.267
		c-2.564,0-4.808-0.694-6.731-2.085c-1.922-1.389-2.885-3.685-2.885-6.891c0-2.991,0.873-5.127,2.618-6.408
		c1.745-1.284,3.97-2.139,6.677-2.566c0.355,0,0.783-0.054,1.283-0.16c0.497-0.106,1.067-0.195,1.71-0.268
		c3.133-0.426,4.7-1.351,4.7-2.777c0-1.067-0.554-1.762-1.655-2.083c-1.106-0.321-2.121-0.481-3.045-0.481
		c-0.998,0-1.889,0.143-2.672,0.428c-0.784,0.286-1.354,0.82-1.709,1.602h-7.158c0.282-2.207,1.282-4.022,2.991-5.448
		c1.923-1.638,4.664-2.458,8.227-2.458c3.988,0,6.979,0.677,8.975,2.03c2.064,1.426,3.099,3.419,3.099,5.983v9.722
		c0,2.849-0.517,5.075-1.549,6.678C103.667,45.117,102.439,46.275,101.014,46.986z M99.305,33.845
		c-0.998,0.5-2.388,0.962-4.166,1.391l-2.457,0.534c-1.284,0.357-2.21,0.819-2.778,1.389c-0.5,0.784-0.748,1.567-0.748,2.352
		c0,1.066,0.321,1.923,0.962,2.563c0.642,0.571,1.565,0.854,2.778,0.854c1.991,0,3.561-0.569,4.701-1.711
		c1.138-1.138,1.708-2.705,1.708-4.699V33.845z"/>
	<path fill="#FFFFFF" d="M114.584,14.936v8.547c0.781-1.352,1.922-2.457,3.417-3.312c1.283-0.71,2.847-1.067,4.701-1.067
		c3.348,0,6.089,1.388,8.226,4.167c2.139,2.777,3.205,6.374,3.205,10.791c0,4.416-1.066,8.013-3.205,10.79
		c-1.066,1.354-2.51,2.333-4.326,2.938c-1.816,0.604-3.616,0.908-5.396,0.908c-3.417,0-6.589-0.89-9.509-2.672
		c-2.921-1.781-4.381-5.197-4.381-10.256V11.303h3.633c0.999,0,1.852,0.357,2.566,1.069
		C114.227,13.085,114.584,13.939,114.584,14.936z M126.762,33.74c0-2.565-0.533-4.558-1.603-5.983
		c-1.066-1.496-2.529-2.244-4.381-2.244c-1.994,0-3.524,0.713-4.593,2.137c-1.068,1.495-1.602,3.525-1.602,6.091
		c0,2.99,0.495,5.164,1.494,6.516c1.068,1.497,2.564,2.245,4.487,2.245c1.993,0,3.527-0.748,4.594-2.245
		C126.229,38.76,126.762,36.589,126.762,33.74z"/>
	<path fill="#FFFFFF" d="M155.18,39.401h5.343c-0.785,2.992-2.279,5.272-4.488,6.837c-2.208,1.64-4.984,2.459-8.332,2.459
		c-4.06,0-7.23-1.318-9.51-3.954c-2.28-2.565-3.417-6.231-3.417-11.003c0-4.558,1.103-8.121,3.312-10.685
		c2.278-2.634,5.449-3.953,9.508-3.953c4.274,0,7.585,1.282,9.936,3.846c2.278,2.636,3.419,6.303,3.419,11.005
		c0,0.285,0,0.534,0,0.747c0,0.214,0,0.357,0,0.428c0,0.357-0.037,0.605-0.106,0.748h-18.483c0.069,2.208,0.604,3.845,1.604,4.915
		c0.924,1.14,2.313,1.709,4.167,1.709c1.209,0,2.242-0.249,3.098-0.748c0.213-0.072,0.408-0.195,0.588-0.374
		c0.177-0.177,0.374-0.376,0.588-0.587c0.069-0.216,0.337-0.499,0.801-0.856C153.666,39.58,154.325,39.401,155.18,39.401z
		 M142.359,31.068h10.897c-0.144-1.924-0.642-3.347-1.496-4.273c-0.925-0.997-2.243-1.496-3.952-1.496
		c-1.567,0-2.849,0.499-3.846,1.496C142.964,27.792,142.429,29.217,142.359,31.068z"/>
	<path fill="#FFFFFF" d="M162.124,48.161v-13.78c0-2.78,0.41-5.111,1.229-6.999c0.817-1.886,1.939-3.4,3.364-4.54
		c1.353-1.068,2.938-1.852,4.755-2.351c1.816-0.497,3.687-0.747,5.608-0.747c0.142,0,0.321,0,0.535,0s0.391,0,0.534,0v7.585h-2.458
		c-2.065,0-3.596,0.499-4.593,1.495c-0.999,1-1.496,2.564-1.496,4.7v14.637H162.124z"/>
</g>
<g>
	<path fill="#E2382C" d="M17.193,55.784L9.752,42.118c-1.868-3.364-3.488-4.795-4.859-4.298c-1.371,0.499-2.056,1.247-2.056,2.242
		v6.916v8.806H17.193z"/>
	<polygon fill="#E2382C" points="2.836,4.216 2.836,9.223 2.836,27.54 18.724,9.223 34.424,9.223 16.668,28.287 32.765,55.784 
		42.167,55.784 42.167,4.216 	"/>
</g>
</svg>
