<?xml version="1.0" encoding="utf-8"?>
<!-- Generator: Adobe Illustrator 16.0.0, SVG Export Plug-In . SVG Version: 6.00 Build 0)  -->
<!DOCTYPE svg PUBLIC "-//W3C//DTD SVG 1.1//EN" "http://www.w3.org/Graphics/SVG/1.1/DTD/svg11.dtd">
<svg version="1.1" id="Layer_1" xmlns="http://www.w3.org/2000/svg" xmlns:xlink="http://www.w3.org/1999/xlink" x="0px" y="0px"
	 width="900px" height="900px" viewBox="0 0 900 900" enable-background="new 0 0 900 900" xml:space="preserve">
<rect display="none" fill="#2A2A2A" width="900" height="900"/>
<g>
	<g>
		<g>
			<path fill="#444444" d="M52.193,394.261c-0.198,0.711-0.394,1.424-0.587,2.139l0.967,0.261c0.192-0.71,0.387-1.422,0.584-2.131
				L52.193,394.261z"/>
			<path fill="#444444" d="M50.185,401.752c-0.187,0.716-0.37,1.431-0.553,2.146l0.969,0.246c0.183-0.713,0.367-1.428,0.551-2.141
				L50.185,401.752z"/>
			<path fill="#444444" d="M48.294,409.275c-0.175,0.719-0.348,1.437-0.519,2.153l0.973,0.231c0.171-0.717,0.343-1.436,0.518-2.151
				L48.294,409.275z"/>

				<rect x="44.017" y="425.074" transform="matrix(0.2032 -0.9791 0.9791 0.2032 -380.7381 383.2666)" fill="#444444" width="2.215" height="1"/>
			<path fill="#444444" d="M54.318,386.804c-0.208,0.708-0.415,1.417-0.62,2.127l0.961,0.277c0.204-0.708,0.408-1.415,0.618-2.122
				L54.318,386.804z"/>
			<path fill="#444444" d="M63.983,357.351c-0.252,0.694-0.503,1.388-0.752,2.083l0.941,0.337c0.248-0.694,0.498-1.386,0.751-2.079
				L63.983,357.351z"/>

				<rect x="68.455" y="343.588" transform="matrix(0.369 -0.9294 0.9294 0.369 -275.9156 281.7892)" fill="#444444" width="2.213" height="1"/>
			<path fill="#444444" d="M66.686,350.091c-0.263,0.688-0.524,1.379-0.783,2.07l0.937,0.352c0.258-0.689,0.52-1.377,0.782-2.064
				L66.686,350.091z"/>

				<rect x="42.521" y="432.727" transform="matrix(0.1877 -0.9822 0.9822 0.1877 -390.088 394.7564)" fill="#444444" width="2.216" height="1.002"/>
			<path fill="#444444" d="M58.919,372c-0.229,0.7-0.458,1.402-0.687,2.104l0.953,0.308c0.226-0.701,0.454-1.4,0.684-2.101
				L58.919,372z"/>

				<rect x="60.39" y="365.364" transform="matrix(0.3248 -0.9458 0.9458 0.3248 -304.5092 305.2129)" fill="#444444" width="2.213" height="1.002"/>
			<path fill="#444444" d="M56.561,379.382c-0.221,0.706-0.438,1.412-0.653,2.116l0.957,0.292c0.215-0.706,0.432-1.409,0.65-2.111
				L56.561,379.382z"/>
			<path fill="#444444" d="M34.927,501.354c-0.037,0.738-0.071,1.479-0.105,2.219l0.999,0.045c0.034-0.737,0.069-1.477,0.105-2.213
				L34.927,501.354z"/>

				<rect x="41.11" y="440.328" transform="matrix(0.1725 -0.985 0.985 0.1725 -399.2818 406.3581)" fill="#444444" width="2.219" height="1"/>
			<path fill="#444444" d="M35.379,493.597c-0.05,0.739-0.096,1.479-0.141,2.218l0.998,0.062c0.044-0.736,0.092-1.475,0.143-2.213
				L35.379,493.597z"/>

				<rect x="35.292" y="486.499" transform="matrix(0.0794 -0.9968 0.9968 0.0794 -451.9498 484.5991)" fill="#444444" width="2.219" height="1"/>
			<rect x="34.306" y="524.664" fill="#444444" width="0.999" height="2.221"/>
			<path fill="#444444" d="M34.392,516.89c-0.014,0.74-0.027,1.481-0.037,2.224l1,0.014c0.011-0.739,0.023-1.479,0.036-2.216
				L34.392,516.89z"/>

				<rect x="33.953" y="509.746" transform="matrix(0.0321 -0.9995 0.9995 0.0321 -476.0454 528.9125)" fill="#444444" width="2.221" height="1"/>
			<path fill="#444444" d="M40.622,447.304c-0.118,0.73-0.234,1.461-0.349,2.19l0.987,0.157c0.116-0.729,0.23-1.458,0.348-2.188
				L40.622,447.304z"/>
			<path fill="#444444" d="M39.446,454.979c-0.105,0.731-0.21,1.465-0.312,2.195l0.99,0.142c0.103-0.729,0.207-1.462,0.312-2.191
				L39.446,454.979z"/>

				<rect x="36.719" y="471.041" transform="matrix(0.11 -0.9939 0.9939 0.11 -435.0112 457.2721)" fill="#444444" width="2.22" height="0.999"/>
			<path fill="#444444" d="M36.642,478.109c-0.071,0.733-0.143,1.473-0.21,2.209l0.996,0.093c0.068-0.735,0.138-1.47,0.209-2.205
				L36.642,478.109z"/>

				<rect x="37.637" y="463.337" transform="matrix(0.1258 -0.9921 0.9921 0.1258 -426.2781 443.9144)" fill="#444444" width="2.22" height="0.999"/>

				<rect x="45.667" y="417.52" transform="matrix(0.2185 -0.9758 0.9758 0.2185 -371.3635 372.3211)" fill="#444444" width="2.217" height="1"/>

				<rect x="33.745" y="532.988" transform="matrix(-0.015 -0.9999 0.9999 -0.015 -498.0511 576.3155)" fill="#444444" width="2.221" height="1"/>
			<path fill="#444444" d="M134.425,228.196c-0.448,0.591-0.896,1.181-1.34,1.772l0.799,0.603c0.443-0.591,0.89-1.18,1.338-1.77
				L134.425,228.196z"/>
			<path fill="#444444" d="M139.178,222.041c-0.458,0.583-0.915,1.167-1.368,1.751l0.789,0.614c0.454-0.583,0.91-1.166,1.366-1.747
				L139.178,222.041z"/>

				<rect x="142.61" y="216.641" transform="matrix(0.6278 -0.7784 0.7784 0.6278 -115.5228 192.6799)" fill="#444444" width="2.222" height="1"/>

				<rect x="119.411" y="247.793" transform="matrix(0.565 -0.8251 0.8251 0.565 -152.4364 207.4462)" fill="#444444" width="2.221" height="0.998"/>
			<path fill="#444444" d="M125.209,240.728c-0.429,0.604-0.855,1.208-1.282,1.813l0.816,0.577c0.426-0.604,0.854-1.208,1.282-1.811
				L125.209,240.728z"/>

				<rect x="128.408" y="235.128" transform="matrix(0.5906 -0.807 0.807 0.5906 -137.1171 200.98)" fill="#444444" width="2.223" height="1"/>
			<path fill="#444444" d="M164.366,192.427c-0.503,0.546-1.004,1.092-1.501,1.638l0.737,0.675c0.498-0.546,0.998-1.092,1.499-1.637
				L164.366,192.427z"/>
			<path fill="#444444" d="M169.658,186.764c-0.509,0.535-1.016,1.072-1.521,1.611l0.729,0.685c0.505-0.538,1.012-1.074,1.519-1.608
				L169.658,186.764z"/>
			<path fill="#444444" d="M148.973,209.96c-0.478,0.568-0.95,1.139-1.423,1.708l0.771,0.638c0.472-0.568,0.944-1.136,1.419-1.703
				L148.973,209.96z"/>

				<rect x="157.672" y="198.854" transform="matrix(0.664 -0.7477 0.7477 0.664 -95.7128 185.7114)" fill="#444444" width="2.222" height="1"/>
			<path fill="#444444" d="M154.012,204.035c-0.484,0.562-0.968,1.123-1.449,1.686l0.759,0.65c0.48-0.561,0.963-1.122,1.446-1.683
				L154.012,204.035z"/>
			<path fill="#444444" d="M116.398,253.543c-0.41,0.617-0.818,1.235-1.226,1.854l0.835,0.549c0.405-0.617,0.812-1.234,1.224-1.849
				L116.398,253.543z"/>

				<rect x="84.184" y="308.133" transform="matrix(0.441 -0.8975 0.8975 0.441 -229.3167 249.0606)" fill="#444444" width="2.222" height="0.999"/>
			<path fill="#444444" d="M92.458,293.578c-0.351,0.651-0.698,1.307-1.045,1.961l0.885,0.468c0.345-0.653,0.692-1.306,1.041-1.958
				L92.458,293.578z"/>
			<path fill="#444444" d="M175.047,181.173c-0.518,0.529-1.035,1.059-1.549,1.59l0.718,0.696c0.514-0.529,1.029-1.059,1.546-1.585
				L175.047,181.173z"/>

				<rect x="80.797" y="315.122" transform="matrix(0.427 -0.9043 0.9043 0.427 -238.4715 254.9305)" fill="#444444" width="2.221" height="1"/>
			<path fill="#444444" d="M78.662,321.456c-0.309,0.674-0.613,1.35-0.918,2.025l0.912,0.411c0.303-0.674,0.608-1.348,0.915-2.02
				L78.662,321.456z"/>

				<rect x="74.422" y="329.282" transform="matrix(0.3984 -0.9172 0.9172 0.3984 -257.0368 267.6618)" fill="#444444" width="2.224" height="1.002"/>
			<path fill="#444444" d="M88.842,300.465c-0.34,0.659-0.676,1.318-1.012,1.978l0.891,0.455c0.335-0.66,0.672-1.316,1.01-1.975
				L88.842,300.465z"/>
			<path fill="#444444" d="M96.181,286.749c-0.36,0.648-0.72,1.297-1.075,1.946l0.876,0.48c0.355-0.647,0.713-1.294,1.073-1.94
				L96.181,286.749z"/>
			<path fill="#444444" d="M107.995,266.633c-0.39,0.629-0.779,1.26-1.166,1.891l0.853,0.523c0.386-0.63,0.772-1.259,1.164-1.888
				L107.995,266.633z"/>

				<rect x="110.866" y="260.778" transform="matrix(0.539 -0.8423 0.8423 0.539 -168.4551 214.774)" fill="#444444" width="2.221" height="0.999"/>

				<rect x="102.708" y="274.003" transform="matrix(0.5116 -0.8592 0.8592 0.5116 -185.1508 223.2546)" fill="#444444" width="2.223" height="0.999"/>
			<path fill="#444444" d="M100.011,279.982c-0.37,0.642-0.738,1.284-1.104,1.927l0.869,0.496c0.365-0.642,0.733-1.282,1.103-1.922
				L100.011,279.982z"/>
			<path fill="#444444" d="M72.435,335.708c-0.285,0.68-0.567,1.361-0.85,2.042l0.925,0.382c0.281-0.68,0.562-1.358,0.847-2.038
				L72.435,335.708z"/>
			<path fill="#444444" d="M95.094,763.735c0.357,0.649,0.714,1.299,1.074,1.945l0.875-0.485c-0.359-0.646-0.717-1.292-1.073-1.94
				L95.094,763.735z"/>
			<path fill="#444444" d="M102.802,777.247c0.377,0.637,0.756,1.272,1.137,1.91l0.857-0.515c-0.378-0.636-0.758-1.271-1.134-1.904
				L102.802,777.247z"/>
			<path fill="#444444" d="M98.896,770.521c0.365,0.646,0.734,1.286,1.105,1.93l0.865-0.5c-0.368-0.639-0.736-1.28-1.103-1.922
				L98.896,770.521z"/>
			<path fill="#444444" d="M175.057,871.289l0.714-0.7c-0.517-0.528-1.032-1.058-1.547-1.587l-0.719,0.695
				C174.022,870.229,174.539,870.761,175.057,871.289z"/>

				<rect x="115.074" y="797.148" transform="matrix(-0.5516 -0.8341 0.8341 -0.5516 -485.053 1334.5427)" fill="#444444" width="2.221" height="1.001"/>
			<path fill="#444444" d="M110.936,790.505c0.396,0.625,0.795,1.249,1.195,1.873l0.842-0.54c-0.399-0.621-0.797-1.245-1.194-1.868
				L110.936,790.505z"/>
			<path fill="#444444" d="M106.817,783.91c0.386,0.63,0.774,1.262,1.167,1.891l0.849-0.524c-0.389-0.631-0.778-1.26-1.164-1.89
				L106.817,783.91z"/>

				<rect x="77.472" y="729.196" transform="matrix(-0.4124 -0.911 0.911 -0.4124 -553.7653 1102.2043)" fill="#444444" width="2.231" height="1"/>

				<rect x="91.246" y="757.133" transform="matrix(-0.4695 -0.8829 0.8829 -0.4695 -533.2256 1194.8738)" fill="#444444" width="2.232" height="1"/>

				<rect x="80.756" y="736.219" transform="matrix(-0.4271 -0.9042 0.9042 -0.4271 -549.2911 1125.4242)" fill="#444444" width="2.23" height="1"/>

				<rect x="87.635" y="750.213" transform="matrix(-0.4554 -0.8903 0.8903 -0.4554 -539.1732 1171.6166)" fill="#444444" width="2.232" height="1.001"/>

				<rect x="84.14" y="743.243" transform="matrix(-0.4407 -0.8976 0.8976 -0.4407 -544.788 1148.0542)" fill="#444444" width="2.23" height="1"/>
			<path fill="#444444" d="M154,848.4l0.755-0.653c-0.482-0.562-0.965-1.12-1.445-1.682l-0.76,0.647
				C153.032,847.277,153.514,847.84,154,848.4z"/>
			<path fill="#444444" d="M134.411,824.238l0.797-0.604c-0.448-0.59-0.894-1.179-1.34-1.77l-0.8,0.601
				C133.515,823.058,133.963,823.646,134.411,824.238z"/>

				<rect x="129.002" y="815.708" transform="matrix(-0.8067 0.5909 -0.5909 -0.8067 716.6328 1399.2594)" fill="#444444" width="1" height="2.219"/>
			<path fill="#444444" d="M120.312,802.938l-0.828,0.562c0.417,0.611,0.836,1.224,1.256,1.834l0.823-0.566
				C121.145,804.157,120.728,803.547,120.312,802.938z"/>
			<path fill="#444444" d="M164.35,860.01l0.735-0.679c-0.5-0.544-1-1.088-1.497-1.635l-0.741,0.674
				C163.347,858.917,163.848,859.464,164.35,860.01z"/>
			<path fill="#444444" d="M157.008,896.869L157.008,896.869c-50.037-50.038-88.776-108.377-115.144-173.397
				C16.397,660.667,3.483,594.305,3.484,526.226c0-68.076,12.914-134.438,38.382-197.245
				c26.366-65.021,65.106-123.36,115.143-173.398c50.036-50.036,108.375-88.775,173.397-115.144
				C393.209,14.973,459.572,2.059,527.65,2.06c68.078,0,134.438,12.914,197.244,38.38c65.021,26.367,123.358,65.107,173.395,115.144
				l0.002,0.001l0.709-0.708h-0.002c-50.131-50.131-108.582-88.945-173.727-115.362C662.348,13.997,595.859,1.06,527.65,1.06
				c-68.207,0-134.697,12.938-197.621,38.454c-65.146,26.417-123.597,65.231-173.729,115.362
				C106.17,205.008,67.356,263.459,40.938,328.605C15.422,391.529,2.484,458.018,2.484,526.226s12.938,134.697,38.455,197.621
				c26.417,65.146,65.229,123.599,115.362,173.729v0.001L157.008,896.869z"/>
			<path fill="#444444" d="M125.197,811.706l0.813-0.58c-0.428-0.604-0.855-1.206-1.28-1.811l-0.818,0.575
				C124.339,810.497,124.766,811.102,125.197,811.706z"/>
			<path fill="#444444" d="M202.617,851.26c-43.88-43.879-77.853-95.04-100.975-152.061
				c-22.335-55.076-33.66-113.271-33.658-172.975c-0.001-59.699,11.323-117.896,33.657-172.973
				c23.123-57.021,57.097-108.181,100.977-152.062c43.878-43.878,95.039-77.851,152.061-100.975
				C409.752,77.883,467.949,66.559,527.65,66.56c59.7,0,117.896,11.323,172.973,33.657
				c57.021,23.124,108.182,57.096,152.062,100.976v0.001l0.706-0.708l0,0C809.416,156.511,758.146,122.464,701,99.291
				C645.805,76.908,587.48,65.56,527.65,65.56S409.497,76.909,354.3,99.291c-57.145,23.173-108.416,57.22-152.391,101.194
				c-43.975,43.974-78.021,95.247-101.194,152.392c-22.384,55.196-33.731,113.52-33.731,173.349
				c0,59.831,11.349,118.154,33.731,173.352c23.173,57.145,57.219,108.417,101.193,152.392v0.001L202.617,851.26L202.617,851.26z"/>

				<rect x="158.339" y="851.959" transform="matrix(-0.7467 0.6652 -0.6652 -0.7467 844.8643 1384.408)" fill="#444444" width="1" height="2.217"/>
			<path fill="#444444" d="M139.164,830.394l0.788-0.616c-0.457-0.581-0.912-1.163-1.366-1.747l-0.789,0.612
				C138.251,829.227,138.708,829.812,139.164,830.394z"/>

				<rect x="143.24" y="834.185" transform="matrix(-0.7772 0.6292 -0.6292 -0.7772 781.037 1394.0703)" fill="#444444" width="1" height="2.219"/>
			<path fill="#444444" d="M148.96,842.475l0.768-0.641c-0.474-0.567-0.948-1.135-1.419-1.704l-0.771,0.639
				C148.01,841.339,148.484,841.907,148.96,842.475z"/>

				<rect x="35.842" y="571.827" transform="matrix(-0.0927 -0.9957 0.9957 -0.0927 -529.4861 662.1614)" fill="#444444" width="2.223" height="1"/>

				<rect x="37.514" y="587.273" transform="matrix(-0.1238 -0.9923 0.9923 -0.1238 -539.8418 698.8805)" fill="#444444" width="2.224" height="1.001"/>

				<rect x="45.51" y="633.3" transform="matrix(-0.2178 -0.976 0.976 -0.2178 -561.814 817.324)" fill="#444444" width="2.224" height="0.999"/>

				<rect x="40.972" y="610.353" transform="matrix(-0.1708 -0.9853 0.9853 -0.1708 -552.6039 756.655)" fill="#444444" width="2.224" height="1"/>

				<rect x="39.7" y="602.7" transform="matrix(-0.1555 -0.9878 0.9878 -0.1555 -548.7068 737.306)" fill="#444444" width="2.223" height="1.001"/>

				<rect x="74.334" y="722.017" transform="matrix(-0.3982 -0.9173 0.9173 -0.3982 -557.2619 1079.4471)" fill="#444444" width="2.23" height="0.999"/>
			<path fill="#444444" d="M42.775,617.509c0.136,0.729,0.273,1.457,0.415,2.188l0.98-0.189c-0.14-0.726-0.276-1.453-0.413-2.181
				L42.775,617.509z"/>
			<path fill="#444444" d="M39.017,594.459c0.103,0.735,0.206,1.47,0.312,2.202l0.99-0.144c-0.106-0.73-0.209-1.465-0.312-2.195
				L39.017,594.459z"/>

				<rect x="36.627" y="579.561" transform="matrix(-0.1081 -0.9941 0.9941 -0.1081 -534.843 680.2914)" fill="#444444" width="2.222" height="1.001"/>

				<rect x="34.227" y="548.57" transform="matrix(-0.046 -0.9989 0.9989 -0.046 -511.5284 609.6089)" fill="#444444" width="2.22" height="1"/>
			<path fill="#444444" d="M35.184,555.754c0.044,0.738,0.09,1.479,0.137,2.218l0.998-0.062c-0.046-0.737-0.092-1.477-0.137-2.213
				L35.184,555.754z"/>
			<path fill="#444444" d="M34.502,540.214c0.021,0.74,0.043,1.48,0.067,2.221l0.999-0.03c-0.023-0.739-0.046-1.479-0.066-2.217
				L34.502,540.214z"/>
			<path fill="#444444" d="M35.708,563.515c0.055,0.738,0.111,1.479,0.171,2.219l0.997-0.08c-0.06-0.736-0.117-1.477-0.172-2.212
				L35.708,563.515z"/>
			<path fill="#444444" d="M44.27,625.151c0.146,0.727,0.298,1.45,0.448,2.18l0.979-0.204c-0.149-0.726-0.301-1.45-0.447-2.175
				L44.27,625.151z"/>
			<path fill="#444444" d="M65.784,699.976c0.262,0.695,0.522,1.393,0.789,2.084l0.936-0.354c-0.266-0.692-0.528-1.386-0.789-2.08
				L65.784,699.976z"/>

				<rect x="62.818" y="693.007" transform="matrix(-0.3389 -0.9408 0.9408 -0.3389 -566.8542 988.7158)" fill="#444444" width="2.229" height="1.001"/>
			<path fill="#444444" d="M68.585,707.256c0.271,0.692,0.545,1.383,0.82,2.073l0.93-0.371c-0.274-0.688-0.548-1.378-0.819-2.068
				L68.585,707.256z"/>

				<rect x="60.309" y="685.693" transform="matrix(-0.3236 -0.9462 0.9462 -0.3236 -567.9775 966.352)" fill="#444444" width="2.227" height="0.999"/>

				<rect x="71.274" y="714.83" transform="matrix(-0.3836 -0.9235 0.9235 -0.3836 -560.4534 1056.5735)" fill="#444444" width="2.23" height="1"/>
			<path fill="#444444" d="M50.443,647.688l-0.97,0.244c0.183,0.72,0.366,1.438,0.552,2.156l0.968-0.25
				C50.808,649.121,50.625,648.403,50.443,647.688z"/>
			<path fill="#444444" d="M58.085,677.886c0.228,0.708,0.457,1.415,0.688,2.12l0.949-0.312c-0.229-0.705-0.458-1.408-0.688-2.114
				L58.085,677.886z"/>
			<path fill="#444444" d="M47.618,640.364c0.171,0.722,0.346,1.441,0.519,2.164l0.972-0.235c-0.173-0.719-0.347-1.438-0.516-2.159
				L47.618,640.364z"/>
			<path fill="#444444" d="M51.447,655.468c0.193,0.717,0.391,1.435,0.587,2.147l0.965-0.267c-0.197-0.714-0.393-1.428-0.585-2.143
				L51.447,655.468z"/>

				<rect x="53.18" y="663.404" transform="matrix(-0.2787 -0.9604 0.9604 -0.2787 -568.1782 901.0673)" fill="#444444" width="2.227" height="1"/>
			<path fill="#444444" d="M55.754,670.447c0.217,0.711,0.435,1.421,0.655,2.13l0.956-0.296c-0.221-0.707-0.438-1.416-0.653-2.125
				L55.754,670.447z"/>

				<rect x="168.792" y="863.397" transform="matrix(-0.7259 0.6878 -0.6878 -0.7259 886.8074 1375.584)" fill="#444444" width="1.001" height="2.217"/>
			<path fill="#444444" d="M660.035,50.883l-0.269,0.964c0.709,0.196,1.42,0.396,2.13,0.596l0.271-0.962
				C661.457,51.28,660.746,51.08,660.035,50.883z"/>

				<rect x="645.493" y="46.652" transform="matrix(0.2382 -0.9712 0.9712 0.2382 445.7534 663.7875)" fill="#444444" width="1" height="2.212"/>

				<rect x="652.993" y="48.522" transform="matrix(0.2519 -0.9677 0.9677 0.2519 440.8221 669.5368)" fill="#444444" width="1" height="2.212"/>
			<path fill="#444444" d="M537.422,32.977l-0.02,1c0.737,0.015,1.477,0.029,2.215,0.047l0.024-1
				C538.902,33.006,538.162,32.99,537.422,32.977z"/>
			<path fill="#444444" d="M637.471,45.192l-0.221,0.975c0.719,0.164,1.438,0.328,2.156,0.496l0.225-0.976
				C638.912,45.521,638.191,45.355,637.471,45.192z"/>

				<rect x="179.575" y="175.688" transform="matrix(-0.7054 -0.7088 0.7088 -0.7054 181.784 429.1486)" fill="#444444" width="1" height="2.219"/>
			<path fill="#444444" d="M614.654,40.567l-0.177,0.986c0.728,0.129,1.453,0.26,2.181,0.393l0.178-0.982
				C616.109,40.829,615.383,40.698,614.654,40.567z"/>
			<path fill="#444444" d="M583.924,36.08l-0.111,0.994c0.732,0.083,1.468,0.169,2.199,0.256l0.117-0.993
				C585.395,36.25,584.658,36.165,583.924,36.08z"/>

				<rect x="576.742" y="34.765" transform="matrix(0.0977 -0.9952 0.9952 0.0977 485.1633 606.8522)" fill="#444444" width="1" height="2.216"/>

				<rect x="561.286" y="33.45" transform="matrix(0.0665 -0.9978 0.9978 0.0665 489.9533 592.8016)" fill="#444444" width="0.999" height="2.214"/>

				<rect x="569.046" y="33.999" transform="matrix(0.0821 -0.9966 0.9966 0.0821 487.8113 599.8503)" fill="#444444" width="0.999" height="2.216"/>

				<rect x="545.738" y="32.656" transform="matrix(0.0352 -0.9994 0.9994 0.0352 493.2935 578.4782)" fill="#444444" width="1" height="2.216"/>

				<rect x="553.54" y="32.95" transform="matrix(0.0528 -0.9986 0.9986 0.0528 490.7813 585.5262)" fill="#444444" width="0.999" height="2.216"/>

				<rect x="592.206" y="36.552" transform="matrix(0.129 -0.9916 0.9916 0.129 478.8862 620.5512)" fill="#444444" width="0.999" height="2.216"/>
			<polygon fill="#444444" points="622.285,41.99 622.094,42.971 624.266,43.399 624.461,42.418 			"/>
			<path fill="#444444" d="M725.715,74.24l-0.399,0.916c0.678,0.296,1.354,0.594,2.028,0.895l0.406-0.914
				C727.074,74.834,726.395,74.537,725.715,74.24z"/>
			<path fill="#444444" d="M629.891,43.531l-0.205,0.979c0.724,0.152,1.441,0.306,2.164,0.461l0.211-0.977
				C631.338,43.838,630.615,43.685,629.891,43.531z"/>

				<rect x="607.495" y="38.851" transform="matrix(0.1582 -0.9874 0.9874 0.1582 472.3434 633.9725)" fill="#444444" width="1" height="2.214"/>
			<path fill="#444444" d="M599.326,38.083l-0.146,0.991c0.73,0.105,1.461,0.213,2.189,0.323l0.147-0.989
				C600.789,38.299,600.059,38.19,599.326,38.083z"/>

				<rect x="843.595" y="148.426" transform="matrix(-0.7651 -0.6439 0.6439 -0.7651 1395.104 806.7751)" fill="#444444" width="2.22" height="1"/>

				<rect x="849.587" y="153.473" transform="matrix(-0.7546 -0.6562 0.6562 -0.7546 1391.5879 828.3826)" fill="#444444" width="2.218" height="1"/>

				<rect x="837.761" y="143.495" transform="matrix(-0.7743 -0.6329 0.6329 -0.7743 1397.235 786.384)" fill="#444444" width="2.217" height="0.998"/>

				<rect x="831.56" y="138.63" transform="matrix(-0.785 -0.6196 0.6196 -0.785 1400.0789 764.2237)" fill="#444444" width="2.217" height="1.002"/>
			<path fill="#444444" d="M861.09,163.968c0.541,0.499,1.08,0.999,1.621,1.5l0.682-0.731c-0.541-0.503-1.08-1.004-1.623-1.504
				L861.09,163.968z"/>
			<path fill="#444444" d="M732.814,77.416l-0.414,0.91c0.672,0.307,1.344,0.615,2.014,0.926l0.422-0.908
				C734.162,78.034,733.488,77.724,732.814,77.416z"/>

				<rect x="812.96" y="124.582" transform="matrix(-0.8136 -0.5814 0.5814 -0.8136 1403.6992 700.1398)" fill="#444444" width="2.218" height="1.001"/>

				<rect x="875.647" y="177.729" transform="matrix(0.7071 -0.7071 0.7071 0.7071 130.9427 671.5852)" fill="#444444" width="1" height="0.002"/>

				<rect x="806.662" y="120.078" transform="matrix(-0.8222 -0.5691 0.5691 -0.8222 1403.3264 679.458)" fill="#444444" width="2.219" height="1"/>
			<path fill="#444444" d="M819.207,129.403c0.598,0.438,1.191,0.877,1.783,1.319l0.598-0.804c-0.596-0.442-1.188-0.882-1.787-1.321
				L819.207,129.403z"/>
			<path fill="#444444" d="M825.42,134.057c0.59,0.447,1.176,0.896,1.762,1.347l0.609-0.793c-0.588-0.452-1.176-0.901-1.766-1.35
				L825.42,134.057z"/>

				<rect x="872.354" y="174.553" transform="matrix(0.7126 0.7016 -0.7016 0.7126 373.8628 -562.4982)" fill="#444444" width="2.22" height="1.001"/>
			<path fill="#444444" d="M855.344,158.751c0.551,0.493,1.101,0.985,1.648,1.48l0.668-0.743c-0.549-0.497-1.1-0.991-1.652-1.484
				L855.344,158.751z"/>

				<rect x="760.921" y="91.093" transform="matrix(0.4728 -0.8812 0.8812 0.4728 320.1628 719.5413)" fill="#444444" width="1" height="2.219"/>

				<rect x="767.726" y="94.825" transform="matrix(0.4862 -0.8738 0.8738 0.4862 310.8676 720.5911)" fill="#444444" width="1" height="2.215"/>

				<rect x="754.052" y="87.461" transform="matrix(0.4589 -0.8885 0.8885 0.4589 329.6004 718.3394)" fill="#444444" width="1" height="2.218"/>

				<rect x="747.131" y="83.943" transform="matrix(0.4443 -0.8959 0.8959 0.4443 339.2759 717.0578)" fill="#444444" width="1" height="2.216"/>

				<rect x="740.145" y="80.548" transform="matrix(0.4296 -0.903 0.903 0.4296 348.7571 715.4147)" fill="#444444" width="1" height="2.219"/>

				<rect x="866.854" y="169.186" transform="matrix(-0.7234 -0.6905 0.6905 -0.7234 1378.6396 891.7368)" fill="#444444" width="2.213" height="1.001"/>
			<path fill="#444444" d="M794.184,110.951l-0.539,0.84c0.621,0.401,1.242,0.803,1.861,1.205l0.545-0.838
				C795.432,111.754,794.809,111.353,794.184,110.951z"/>

				<rect x="800.812" y="115.172" transform="matrix(0.5547 -0.8321 0.8321 0.5547 260.0729 718.5121)" fill="#444444" width="1" height="2.218"/>
			<path fill="#444444" d="M774.271,98.803l-0.503,0.865c0.642,0.371,1.279,0.742,1.919,1.116l0.504-0.863
				C775.553,99.546,774.912,99.173,774.271,98.803z"/>
			<path fill="#444444" d="M780.975,102.748l-0.518,0.858c0.635,0.38,1.27,0.761,1.9,1.144l0.52-0.854
				C782.244,103.509,781.607,103.127,780.975,102.748z"/>

				<rect x="787.801" y="106.729" transform="matrix(0.5274 -0.8496 0.8496 0.5274 280.9564 720.7404)" fill="#444444" width="1" height="2.218"/>
			<g display="none">

					<rect x="667.907" y="52.705" transform="matrix(0.2828 -0.9592 0.9592 0.2828 427.7519 679.7083)" display="inline" fill="#444444" width="1.001" height="2.209"/>

					<rect x="675.331" y="54.979" transform="matrix(0.2967 -0.955 0.955 0.2967 421.7594 684.8452)" display="inline" fill="#444444" width="1.001" height="2.211"/>

					<rect x="682.684" y="57.347" transform="matrix(0.3124 -0.9499 0.9499 0.3124 414.2196 689.1782)" display="inline" fill="#444444" width="1" height="2.21"/>

					<rect x="697.256" y="62.479" transform="matrix(0.3414 -0.9399 0.9399 0.3414 399.7593 697.701)" display="inline" fill="#444444" width="1.001" height="2.209"/>
				<path display="inline" fill="#444444" d="M718.568,71.176l-0.388,0.923c0.683,0.286,1.361,0.572,2.043,0.862l0.392-0.92
					C719.934,71.751,719.25,71.462,718.568,71.176z"/>
				<path display="inline" fill="#444444" d="M704.189,65.417l-0.355,0.934c0.688,0.263,1.373,0.527,2.062,0.793l0.356-0.932
					C705.566,65.945,704.879,65.679,704.189,65.417z"/>
				<path display="inline" fill="#444444" d="M711.402,68.24l-0.371,0.929c0.682,0.273,1.365,0.548,2.047,0.826l0.377-0.927
					C712.771,68.791,712.088,68.515,711.402,68.24z"/>

					<rect x="690.015" y="59.841" transform="matrix(0.3281 -0.9447 0.9447 0.3281 406.407 693.2499)" display="inline" fill="#444444" width="1" height="2.21"/>
			</g>
			<path fill="#444444" d="M297.38,89.769l0.467,0.885c0.658-0.348,1.315-0.693,1.973-1.035l-0.462-0.887
				C298.696,89.076,298.038,89.42,297.38,89.769z"/>
			<path fill="#444444" d="M277.014,101.15l0.509,0.861c0.637-0.377,1.274-0.75,1.913-1.125l-0.504-0.864
				C278.292,100.398,277.653,100.773,277.014,101.15z"/>
			<path fill="#444444" d="M290.53,93.455l0.481,0.876c0.647-0.355,1.297-0.709,1.947-1.062l-0.479-0.879
				C291.832,92.743,291.18,93.098,290.53,93.455z"/>
			<path fill="#444444" d="M283.742,97.249l0.495,0.869c0.643-0.366,1.287-0.729,1.93-1.093l-0.49-0.872
				C285.031,96.517,284.386,96.881,283.742,97.249z"/>

				<rect x="271.051" y="103.908" transform="matrix(-0.5224 -0.8527 0.8527 -0.5224 323.8735 391.4271)" fill="#444444" width="1.001" height="2.218"/>
			<path fill="#444444" d="M263.749,109.271l0.535,0.845c0.625-0.396,1.25-0.791,1.875-1.184l-0.531-0.847
				C265,108.479,264.375,108.874,263.749,109.271z"/>

				<rect x="257.905" y="112.202" transform="matrix(-0.5495 -0.8355 0.8355 -0.5495 305.7315 391.4696)" fill="#444444" width="1.001" height="2.217"/>

				<rect x="305.041" y="85.008" transform="matrix(-0.4523 -0.8919 0.8919 -0.4523 366.9257 397.5757)" fill="#444444" width="0.998" height="2.228"/>
			<path fill="#444444" d="M332.595,72.936l0.396,0.918c0.682-0.292,1.363-0.585,2.047-0.875l-0.391-0.919
				C333.961,72.349,333.278,72.641,332.595,72.936z"/>

				<rect x="326.171" y="74.964" transform="matrix(-0.4083 -0.9128 0.9128 -0.4083 390.6085 405.339)" fill="#444444" width="1" height="2.226"/>
			<path fill="#444444" d="M318.354,79.328l0.425,0.906c0.671-0.315,1.344-0.628,2.018-0.939l-0.419-0.907
				C319.701,78.699,319.026,79.014,318.354,79.328z"/>

				<rect x="312.032" y="81.545" transform="matrix(-0.4394 -0.8983 0.8983 -0.4394 375.5944 399.7256)" fill="#444444" width="0.998" height="2.227"/>
			<path fill="#444444" d="M250.747,117.81l0.562,0.827c0.611-0.415,1.224-0.83,1.837-1.242l-0.558-0.83
				C251.973,116.978,251.36,117.393,250.747,117.81z"/>

				<rect x="202.303" y="154.478" transform="matrix(-0.6621 -0.7495 0.7495 -0.6621 220.4643 410.5863)" fill="#444444" width="1" height="2.219"/>
			<path fill="#444444" d="M195.837,161.124l0.673,0.739c0.546-0.498,1.095-0.994,1.644-1.488l-0.671-0.743
				C196.934,160.126,196.385,160.624,195.837,161.124z"/>

				<rect x="340.496" y="68.845" transform="matrix(-0.3808 -0.9247 0.9247 -0.3808 406.1594 411.9034)" fill="#444444" width="1" height="2.226"/>

				<rect x="190.796" y="164.898" transform="matrix(-0.6848 -0.7287 0.7287 -0.6848 201.3167 419.0912)" fill="#444444" width="1" height="2.216"/>
			<path fill="#444444" d="M184.499,171.771l0.696,0.718c0.532-0.515,1.063-1.028,1.597-1.541l-0.692-0.722
				C185.564,170.741,185.031,171.254,184.499,171.771z"/>
			<path fill="#444444" d="M213.453,145.828l0.638,0.771c0.569-0.473,1.14-0.942,1.711-1.41l-0.634-0.773
				C214.594,144.884,214.024,145.354,213.453,145.828z"/>
			<rect x="529.646" y="32.89" fill="#444444" width="2.217" height="1.001"/>

				<rect x="238.714" y="125.4" transform="matrix(-0.5878 -0.809 0.809 -0.5878 277.4847 394.3958)" fill="#444444" width="1" height="2.218"/>

				<rect x="220.145" y="139.51" transform="matrix(-0.626 -0.7798 0.7798 -0.626 249.1114 400.7103)" fill="#444444" width="1" height="2.218"/>
			<path fill="#444444" d="M244.349,122.232l0.575,0.818c0.605-0.425,1.211-0.85,1.817-1.271l-0.571-0.821
				C245.562,121.382,244.956,121.806,244.349,122.232z"/>
			<path fill="#444444" d="M225.587,136.099l0.613,0.79c0.583-0.454,1.169-0.906,1.755-1.357l-0.61-0.792
				C226.757,135.19,226.173,135.643,225.587,136.099z"/>
			<path fill="#444444" d="M231.767,131.377l0.601,0.799c0.593-0.444,1.185-0.887,1.776-1.328l-0.597-0.804
				C232.953,130.489,232.36,130.932,231.767,131.377z"/>
			<path fill="#444444" d="M207.502,150.833l0.649,0.76c0.562-0.479,1.125-0.96,1.689-1.438l-0.646-0.762
				C208.629,149.872,208.065,150.352,207.502,150.833z"/>

				<rect x="468.232" y="35.781" transform="matrix(-0.1193 -0.9929 0.9929 -0.1193 488.0148 506.6757)" fill="#444444" width="0.999" height="2.219"/>
			<path fill="#444444" d="M436.797,41.27l0.186,0.982c0.727-0.136,1.454-0.27,2.183-0.4l-0.178-0.984
				C438.256,41,437.526,41.134,436.797,41.27z"/>

				<rect x="347.758" y="65.934" transform="matrix(-0.3662 -0.9305 0.9305 -0.3662 413.3872 415.6701)" fill="#444444" width="1" height="2.227"/>
			<path fill="#444444" d="M452.146,38.659l0.149,0.988c0.732-0.113,1.465-0.224,2.195-0.333l-0.146-0.989
				C453.613,38.434,452.879,38.545,452.146,38.659z"/>
			<path fill="#444444" d="M483.043,34.888l0.09,0.997c0.734-0.066,1.474-0.132,2.211-0.194l-0.086-0.997
				C484.518,34.757,483.781,34.821,483.043,34.888z"/>
			<path fill="#444444" d="M444.462,39.902l0.168,0.986c0.729-0.124,1.46-0.247,2.188-0.367l-0.162-0.986
				C445.926,39.655,445.194,39.779,444.462,39.902z"/>

				<rect x="460.518" y="36.769" transform="matrix(-0.1367 -0.9906 0.9906 -0.1367 486.5179 499.7479)" fill="#444444" width="1" height="2.22"/>

				<rect x="491.441" y="33.559" transform="matrix(-0.0742 -0.9972 0.9972 -0.0742 493.8849 527.8254)" fill="#444444" width="1" height="2.219"/>
			<path fill="#444444" d="M514.098,33.065l0.027,0.999c0.738-0.02,1.479-0.039,2.215-0.055l-0.021-1
				C515.578,33.027,514.838,33.045,514.098,33.065z"/>
			<path fill="#444444" d="M521.873,32.914l0.014,1c0.736-0.011,1.478-0.018,2.217-0.022l-0.008-1
				C523.355,32.897,522.613,32.905,521.873,32.914z"/>

				<rect x="506.938" y="32.682" transform="matrix(-0.0431 -0.9991 0.9991 -0.0431 495.5245 542.2119)" fill="#444444" width="0.998" height="2.219"/>

				<rect x="499.181" y="33.06" transform="matrix(-0.0587 -0.9983 0.9983 -0.0587 494.883 534.9938)" fill="#444444" width="0.999" height="2.22"/>
			<path fill="#444444" d="M475.299,35.649l0.105,0.995c0.733-0.08,1.471-0.155,2.207-0.229l-0.103-0.996
				C476.773,35.495,476.035,35.571,475.299,35.649z"/>

				<rect x="369.706" y="57.977" transform="matrix(-0.3193 -0.9477 0.9477 -0.3193 432.4181 428.7826)" fill="#444444" width="1" height="2.223"/>
			<path fill="#444444" d="M376.406,56.526l0.306,0.953c0.705-0.227,1.411-0.452,2.117-0.674l-0.301-0.954
				C377.821,56.074,377.113,56.299,376.406,56.526z"/>
			<path fill="#444444" d="M429.153,42.758l0.198,0.98c0.727-0.148,1.451-0.293,2.178-0.437l-0.194-0.981
				C430.608,42.464,429.879,42.61,429.153,42.758z"/>

				<rect x="384.555" y="53.25" transform="matrix(-0.2903 -0.9569 0.9569 -0.2903 444.8183 438.6143)" fill="#444444" width="0.999" height="2.222"/>

				<rect x="355.003" y="63.193" transform="matrix(-0.3506 -0.9365 0.9365 -0.3506 419.9146 419.7885)" fill="#444444" width="1" height="2.224"/>
			<path fill="#444444" d="M361.636,61.528l0.336,0.94c0.697-0.249,1.396-0.496,2.097-0.741l-0.331-0.943
				C363.037,61.029,362.336,61.278,361.636,61.528z"/>
			<path fill="#444444" d="M413.936,46.094l0.229,0.973c0.721-0.17,1.441-0.338,2.162-0.505l-0.226-0.975
				C415.381,45.754,414.659,45.923,413.936,46.094z"/>

				<rect x="392.054" y="51.081" transform="matrix(-0.2765 -0.961 0.961 -0.2765 450.9492 443.8716)" fill="#444444" width="0.999" height="2.221"/>

				<rect x="422.224" y="43.509" transform="matrix(-0.2149 -0.9766 0.9766 -0.2149 469.9735 467.0571)" fill="#444444" width="1" height="2.22"/>
			<path fill="#444444" d="M398.829,49.911l0.262,0.964c0.715-0.192,1.432-0.383,2.146-0.572l-0.255-0.967
				C400.262,49.525,399.545,49.717,398.829,49.911z"/>
			<path fill="#444444" d="M406.37,47.942l0.244,0.969c0.719-0.181,1.438-0.36,2.155-0.539l-0.24-0.97
				C407.809,47.58,407.089,47.76,406.37,47.942z"/>
		</g>
		<g>
			<path fill="#FFFFFF" d="M682.607,65.029h2.167v-7.125c0-0.275,0.015-0.539,0.015-0.539h-0.027c0,0-0.098,0.208-0.484,0.58
				l-1.034,1.035l-0.608-0.621l2.195-2.18h0.91v8.849h2.127v0.855h-5.26V65.029L682.607,65.029z"/>
			<path fill="#FFFFFF" d="M690.254,60.583v-0.028c0,0-1.325-0.621-1.325-2c0-1.339,1.049-2.541,2.926-2.541
				c1.836,0,2.969,1.077,2.969,2.582c0,1.478-1.298,2.402-1.298,2.402v0.027c0.911,0.47,1.561,1.091,1.561,2.223
				c-0.001,1.519-1.408,2.803-3.257,2.804c-1.714,0-3.301-1.063-3.301-2.899C688.528,61.453,690.254,60.583,690.254,60.583z
				 M691.829,65.153c1.145,0,2.263-0.788,2.263-1.918c0-1.008-0.827-1.409-1.851-1.823c-0.36-0.152-1.021-0.388-1.132-0.388
				c-0.373,0-1.588,0.884-1.588,2.085C689.522,64.379,690.641,65.153,691.829,65.153z M692.629,60.583
				c0.345,0,1.229-0.953,1.229-1.96c0-1.05-0.828-1.711-2.002-1.711c-1.229-0.001-1.96,0.732-1.96,1.643
				c0,1.021,0.855,1.394,1.863,1.767C691.979,60.403,692.448,60.583,692.629,60.583z"/>
			<path fill="#FFFFFF" d="M696.147,61.024c0-2.789,0.814-5.012,3.341-5.012s3.354,2.223,3.354,5.012
				c0,2.817-0.827,5.026-3.354,5.026C696.962,66.051,696.147,63.842,696.147,61.024z M701.85,61.024
				c0-2.305-0.524-4.114-2.361-4.114c-1.837,0-2.361,1.809-2.361,4.114c0,2.32,0.524,4.128,2.361,4.128
				C701.325,65.153,701.85,63.344,701.85,61.024z"/>
			<path fill="#FFFFFF" d="M703.932,57.946c0-1.05,0.856-1.918,1.934-1.918c1.076,0,1.945,0.87,1.945,1.918
				c0,1.063-0.869,1.919-1.945,1.919C704.788,59.865,703.932,59.01,703.932,57.946z M706.997,57.946
				c0-0.621-0.498-1.146-1.133-1.146s-1.104,0.523-1.104,1.146c0,0.635,0.47,1.146,1.104,1.146S706.997,58.581,706.997,57.946z"/>
		</g>
	</g>
	<g>
		<path fill="#FFFFFF" d="M409.675,640.903l-0.734-0.759l6.119-5.928l0.735,0.759L409.675,640.903z"/>
		<path fill="#FFFFFF" d="M405.955,636.968l-0.71-0.782l6.306-5.729l0.709,0.782L405.955,636.968z"/>
		<path fill="#FFFFFF" d="M402.343,632.873l-0.685-0.805l6.489-5.515l0.684,0.805L402.343,632.873z"/>
		<path fill="#FFFFFF" d="M398.875,628.688l-0.659-0.827l6.675-5.296l0.656,0.825L398.875,628.688z"/>
		<path fill="#FFFFFF" d="M395.529,624.368l-0.63-0.849l6.848-5.08l0.629,0.847L395.529,624.368z"/>
		<path fill="#FFFFFF" d="M392.348,619.947l-0.6-0.869l7.009-4.842l0.601,0.867L392.348,619.947z"/>
		<path fill="#FFFFFF" d="M389.312,615.434l-0.571-0.887l7.162-4.615l0.571,0.888L389.312,615.434z"/>
		<path fill="#FFFFFF" d="M386.417,610.811l-0.541-0.905l7.312-4.377l0.542,0.905L386.417,610.811z"/>
		<path fill="#FFFFFF" d="M383.692,606.106l-0.514-0.925l7.454-4.128l0.512,0.925L383.692,606.106z"/>
		<path fill="#FFFFFF" d="M381.106,601.284l-0.481-0.941l7.584-3.877l0.479,0.939L381.106,601.284z"/>
		<path fill="#FFFFFF" d="M378.694,596.426l-0.449-0.956l7.714-3.629l0.449,0.956L378.694,596.426z"/>
		<path fill="#FFFFFF" d="M376.441,591.445l-0.417-0.971l7.821-3.369l0.419,0.971L376.441,591.445z"/>
		<path fill="#FFFFFF" d="M374.365,586.438l-0.385-0.982l7.93-3.11l0.385,0.983L374.365,586.438z"/>
		<path fill="#FFFFFF" d="M372.432,581.312l-0.352-0.997l8.037-2.84l0.352,0.997L372.432,581.312z"/>
		<path fill="#FFFFFF" d="M370.697,576.169l-0.318-1.007l8.126-2.569l0.317,1.009L370.697,576.169z"/>
		<path fill="#FFFFFF" d="M369.122,570.928l-0.285-1.017l8.201-2.298l0.286,1.018L369.122,570.928z"/>
		<path fill="#FFFFFF" d="M367.724,565.663l-0.25-1.024l8.277-2.016l0.249,1.025L367.724,565.663z"/>
		<path fill="#FFFFFF" d="M366.498,560.348l-0.216-1.034l8.342-1.742l0.217,1.034L366.498,560.348z"/>
		<path fill="#FFFFFF" d="M365.458,555.018l-0.182-1.039l8.396-1.463l0.184,1.041L365.458,555.018z"/>
		<path fill="#FFFFFF" d="M364.592,549.634l-0.146-1.046l8.438-1.18l0.146,1.045L364.592,549.634z"/>
		<path fill="#FFFFFF" d="M363.908,544.235l-0.113-1.05l8.472-0.908l0.114,1.049L363.908,544.235z"/>
		<path fill="#FFFFFF" d="M363.405,538.809l-0.08-1.053l8.495-0.628l0.077,1.052L363.405,538.809z"/>
		<path fill="#FFFFFF" d="M363.07,533.364l-0.043-1.057l8.515-0.347l0.044,1.056L363.07,533.364z"/>
		<path fill="#FFFFFF" d="M362.929,527.984l-0.018-1.056l8.516-0.143l0.018,1.057L362.929,527.984z"/>
		<path fill="#FFFFFF" d="M362.948,522.475l0.025-1.054l8.517,0.204l-0.026,1.057L362.948,522.475z"/>
		<path fill="#FFFFFF" d="M363.153,517.038l0.06-1.054l8.505,0.487l-0.061,1.053L363.153,517.038z"/>
		<path fill="#FFFFFF" d="M363.535,511.614l0.094-1.052l8.484,0.77l-0.097,1.052L363.535,511.614z"/>
		<path fill="#FFFFFF" d="M364.087,506.186l0.129-1.047l8.461,1.038l-0.13,1.049L364.087,506.186z"/>
		<path fill="#FFFFFF" d="M364.829,500.8l0.164-1.043l8.418,1.321l-0.165,1.043L364.829,500.8z"/>
		<path fill="#FFFFFF" d="M365.751,495.438l0.199-1.036l8.362,1.604l-0.197,1.037L365.751,495.438z"/>
		<path fill="#FFFFFF" d="M366.849,490.07l0.233-1.029l8.309,1.885l-0.232,1.028L366.849,490.07z"/>
		<path fill="#FFFFFF" d="M368.12,484.777l0.268-1.021l8.244,2.155l-0.267,1.021L368.12,484.777z"/>
		<path fill="#FFFFFF" d="M369.562,479.547l0.301-1.012l8.169,2.426l-0.302,1.013L369.562,479.547z"/>
		<path fill="#FFFFFF" d="M371.192,474.328l0.335-1l8.082,2.697l-0.335,1.002L371.192,474.328z"/>
		<path fill="#FFFFFF" d="M372.993,469.184l0.367-0.989l7.983,2.969l-0.368,0.99L372.993,469.184z"/>
		<path fill="#FFFFFF" d="M374.947,464.121l0.399-0.979l7.887,3.229l-0.399,0.977L374.947,464.121z"/>
		<path fill="#FFFFFF" d="M377.087,459.113l0.433-0.963l7.77,3.487l-0.433,0.963L377.087,459.113z"/>
		<path fill="#FFFFFF" d="M379.392,454.157l0.465-0.948l7.649,3.75l-0.466,0.946L379.392,454.157z"/>
		<path fill="#FFFFFF" d="M381.858,449.3l0.493-0.934l7.521,3.998l-0.495,0.933L381.858,449.3z"/>
		<path fill="#FFFFFF" d="M384.469,444.53l0.526-0.916l7.389,4.247l-0.525,0.916L384.469,444.53z"/>
		<path fill="#FFFFFF" d="M387.263,439.83l0.558-0.897l7.236,4.496l-0.557,0.897L387.263,439.83z"/>
		<path fill="#FFFFFF" d="M390.198,435.235l0.587-0.878l7.085,4.733l-0.586,0.879L390.198,435.235z"/>
		<path fill="#FFFFFF" d="M393.282,430.752l0.614-0.857l6.923,4.961l-0.614,0.859L393.282,430.752z"/>
		<path fill="#FFFFFF" d="M396.501,426.37l0.644-0.837l6.76,5.188l-0.643,0.838L396.501,426.37z"/>
		<path fill="#FFFFFF" d="M399.882,422.084l0.669-0.816l6.588,5.406l-0.67,0.816L399.882,422.084z"/>
		<path fill="#FFFFFF" d="M403.387,417.932l0.696-0.793l6.402,5.621l-0.697,0.795L403.387,417.932z"/>
		<path fill="#FFFFFF" d="M407.035,413.88l0.724-0.77l6.218,5.827l-0.722,0.771L407.035,413.88z"/>
		<path fill="#FFFFFF" d="M410.799,409.967l0.748-0.749l6.024,6.036l-0.747,0.747L410.799,409.967z"/>
		<path fill="#FFFFFF" d="M414.714,406.162l0.771-0.722l5.817,6.229l-0.771,0.722L414.714,406.162z"/>
		<path fill="#FFFFFF" d="M418.749,402.493l0.794-0.696l5.612,6.415l-0.794,0.695L418.749,402.493z"/>
		<path fill="#FFFFFF" d="M422.884,398.969l0.819-0.67l5.394,6.598l-0.816,0.67L422.884,398.969z"/>
		<path fill="#FFFFFF" d="M427.155,395.566l0.839-0.642l5.178,6.771l-0.839,0.642L427.155,395.566z"/>
		<path fill="#FFFFFF" d="M431.519,392.324l0.859-0.613l4.952,6.934l-0.86,0.614L431.519,392.324z"/>
		<path fill="#FFFFFF" d="M436,389.219l0.88-0.584l4.711,7.097l-0.88,0.584L436,389.219z"/>
		<path fill="#FFFFFF" d="M440.566,386.26l0.897-0.556l4.485,7.248l-0.898,0.557L440.566,386.26z"/>
		<path fill="#FFFFFF" d="M445.254,383.456l0.916-0.525l4.236,7.389l-0.916,0.525L445.254,383.456z"/>
		<path fill="#FFFFFF" d="M450.01,380.81l0.935-0.495l3.987,7.53l-0.934,0.494L450.01,380.81z"/>
		<path fill="#FFFFFF" d="M454.857,378.319l0.948-0.463l3.738,7.659l-0.949,0.463L454.857,378.319z"/>
		<path fill="#FFFFFF" d="M459.775,376.002l0.963-0.432l3.479,7.778l-0.965,0.432L459.775,376.002z"/>
		<path fill="#FFFFFF" d="M464.773,373.846l0.977-0.398l3.219,7.887l-0.977,0.398L464.773,373.846z"/>
		<path fill="#FFFFFF" d="M469.854,371.842l0.99-0.366l2.959,7.996l-0.992,0.367L469.854,371.842z"/>
		<path fill="#FFFFFF" d="M474.992,370.029l1-0.333l2.688,8.082l-1.002,0.333L474.992,370.029z"/>
		<path fill="#FFFFFF" d="M480.174,368.38l1.012-0.299l2.416,8.168l-1.012,0.3L480.174,368.38z"/>
		<path fill="#FFFFFF" d="M485.426,366.903l1.021-0.266l2.145,8.245l-1.021,0.266L485.426,366.903z"/>
		<path fill="#FFFFFF" d="M490.725,365.604l1.029-0.231l1.863,8.31l-1.029,0.232L490.725,365.604z"/>
		<path fill="#FFFFFF" d="M496.045,364.478l1.039-0.198l1.592,8.374l-1.037,0.198L496.045,364.478z"/>
		<path fill="#FFFFFF" d="M501.406,363.538l1.043-0.161l1.311,8.417l-1.043,0.162L501.406,363.538z"/>
		<path fill="#FFFFFF" d="M506.822,362.765l1.049-0.126l1.029,8.461l-1.05,0.128L506.822,362.765z"/>
		<path fill="#FFFFFF" d="M512.227,362.187l1.052-0.093l0.748,8.482l-1.052,0.093L512.227,362.187z"/>
		<path fill="#FFFFFF" d="M517.641,361.78l1.054-0.06l0.477,8.503l-1.053,0.059L517.641,361.78z"/>
		<path fill="#FFFFFF" d="M523.109,361.548l1.055-0.025l0.195,8.516l-1.056,0.023L523.109,361.548z"/>
		<path fill="#FFFFFF" d="M528.576,361.496l1.055,0.017l-0.141,8.516l-1.058-0.017L528.576,361.496z"/>
		<path fill="#FFFFFF" d="M533.967,361.614l1.055,0.044l-0.354,8.516l-1.057-0.043L533.967,361.614z"/>
		<path fill="#FFFFFF" d="M539.41,361.922l1.053,0.079l-0.639,8.492l-1.053-0.077L539.41,361.922z"/>
		<path fill="#FFFFFF" d="M544.84,362.398l1.049,0.114l-0.92,8.471l-1.049-0.113L544.84,362.398z"/>
		<path fill="#FFFFFF" d="M550.25,363.056l1.047,0.149l-1.203,8.439l-1.047-0.149L550.25,363.056z"/>
		<path fill="#FFFFFF" d="M555.627,363.893l1.041,0.183l-1.475,8.396l-1.037-0.182L555.627,363.893z"/>
		<path fill="#FFFFFF" d="M560.988,364.913l1.035,0.217l-1.757,8.343l-1.032-0.218L560.988,364.913z"/>
		<path fill="#FFFFFF" d="M566.32,366.11l1.024,0.251l-2.034,8.277l-1.025-0.252L566.32,366.11z"/>
		<path fill="#FFFFFF" d="M571.578,367.485l1.018,0.286l-2.309,8.2l-1.016-0.285L571.578,367.485z"/>
		<path fill="#FFFFFF" d="M576.797,369.033l1.006,0.32l-2.578,8.114l-1.004-0.319L576.797,369.033z"/>
		<path fill="#FFFFFF" d="M581.979,370.751l0.994,0.354l-2.85,8.028l-0.994-0.354L581.979,370.751z"/>
		<path fill="#FFFFFF" d="M587.084,372.64l0.982,0.385l-3.119,7.931l-0.984-0.387L587.084,372.64z"/>
		<path fill="#FFFFFF" d="M592.129,374.699l0.969,0.42l-3.379,7.823l-0.971-0.421L592.129,374.699z"/>
		<path fill="#FFFFFF" d="M597.094,376.926l0.955,0.452l-3.639,7.702l-0.957-0.452L597.094,376.926z"/>
		<path fill="#FFFFFF" d="M601.99,379.313l0.94,0.482l-3.891,7.583l-0.939-0.482L601.99,379.313z"/>
		<path fill="#FFFFFF" d="M606.799,381.872l0.922,0.512l-4.139,7.442l-0.922-0.512L606.799,381.872z"/>
		<path fill="#FFFFFF" d="M611.541,384.59l0.906,0.544l-4.388,7.302l-0.905-0.544L611.541,384.59z"/>
		<path fill="#FFFFFF" d="M616.18,387.462l0.886,0.573l-4.625,7.15l-0.888-0.573L616.18,387.462z"/>
		<path fill="#FFFFFF" d="M620.719,390.475l0.867,0.603l-4.865,7l-0.864-0.604L620.719,390.475z"/>
		<path fill="#FFFFFF" d="M625.145,393.634l0.849,0.63l-5.092,6.835l-0.849-0.63L625.145,393.634z"/>
		<path fill="#FFFFFF" d="M629.455,396.938l0.826,0.657l-5.308,6.664l-0.827-0.659L629.455,396.938z"/>
		<path fill="#FFFFFF" d="M633.682,400.391l0.804,0.686l-5.523,6.49l-0.805-0.687L633.682,400.391z"/>
		<path fill="#FFFFFF" d="M637.76,403.978l0.781,0.71l-5.73,6.295l-0.78-0.711L637.76,403.978z"/>
		<path fill="#FFFFFF" d="M641.748,407.695l0.758,0.735l-5.936,6.111l-0.758-0.737L641.748,407.695z"/>
	</g>
</g>
</svg>
