<?xml version="1.0" encoding="utf-8"?>
<!-- Generator: Adobe Illustrator 17.0.0, SVG Export Plug-In . SVG Version: 6.00 Build 0)  -->
<!DOCTYPE svg PUBLIC "-//W3C//DTD SVG 1.1//EN" "http://www.w3.org/Graphics/SVG/1.1/DTD/svg11.dtd">
<svg version="1.1" id="Calque_1" xmlns="http://www.w3.org/2000/svg" xmlns:xlink="http://www.w3.org/1999/xlink" x="0px" y="0px"
	 width="612px" height="792px" viewBox="0 0 612 792" enable-background="new 0 0 612 792" xml:space="preserve">
<g>
	<path fill="#FFFFFF" d="M610.23,430.719c-204.096,0-408.096,0-612,0c0-143.64,0-287.213,0-430.719c204.096,0,408.096,0,612,0
		C610.23,143.64,610.23,287.213,610.23,430.719z M56.626,44.617c8.26,1.643,15.981,3.286,23.782,4.71
		c24.206,4.419,38.53,14.022,44.653,32.307c27.061,80.815,55.772,161.357,84.116,241.958c9.757,27.745,20.181,55.373,30.329,83.131
		c11.978,0,22.589,0,34.568,0c9.138-25.769,18.325-51.413,27.319-77.091c29.086-83.042,58.044-166.106,87.282-249.121
		c1.809-5.137,1.719-11.998,13.906-11.709c10.575,0.251,19.624-0.626,26.276,8.468c18.311,25.034,21.189,51.266,11.257,77.366
		c-5.938,15.605-13.374,32.829-38.334,40.785c-2.549,0.812-5.385,3.599-5.427,5.499c-0.318,14.347-3.298,29.195,0.828,42.954
		c10.18,33.941,23.593,67.405,36.161,100.977c0.904,2.415,5.447,5.897,8.366,5.93c35.527,0.41,71.066,0.266,106.586,0.266
		c0-6.207,0-11.109,0-16.168c-4.995-1.081-9.236-2.388-13.661-2.891c-27.232-3.096-43.169-14.057-49.494-33.003
		c-7.211-21.6-16.572-42.858-23.206-64.536c-3.23-10.556-6.017-21.961,8.227-31.07c30.572-19.551,42.484-44.654,42.229-73.143
		c-0.084-9.333-0.412-18.677,0.067-27.998c1.115-21.688-8.258-41.328-26.294-58.298c-9.322-8.771-22.522-20.41-35.46-21.435
		c-36.722-2.908-74.212-1.019-111.796-1.019c-1.604,3.906-3.221,7.247-4.345,10.669c-20.277,61.733-40.434,123.486-60.768,185.21
		c-4.774,14.491-5.03,14.449-25.933,11.987c-24.265-66.914-48.498-133.737-72.777-200.689c-40.203,0-79.168,0-118.456,0
		C56.626,34.021,56.626,38.656,56.626,44.617z"/>
	<path d="M56.626,44.617c0-5.961,0-10.596,0-15.954c39.288,0,78.253,0,118.456,0c24.279,66.951,48.512,133.775,72.777,200.689
		c20.904,2.463,21.159,2.505,25.933-11.987c20.334-61.724,40.491-123.477,60.768-185.21c1.124-3.422,2.741-6.763,4.345-10.669
		c37.584,0,75.074-1.889,111.796,1.019c12.938,1.025,26.138,12.663,35.46,21.435c18.036,16.971,27.409,36.611,26.294,58.298
		c-0.479,9.321-0.151,18.665-0.067,27.998c0.255,28.49-11.657,53.592-42.229,73.143c-14.243,9.109-11.457,20.514-8.227,31.07
		c6.634,21.678,15.995,42.936,23.206,64.536c6.325,18.946,22.262,29.907,49.494,33.003c4.426,0.503,8.666,1.811,13.661,2.891
		c0,5.06,0,9.961,0,16.168c-35.52,0-71.06,0.144-106.586-0.266c-2.92-0.034-7.462-3.516-8.366-5.93
		c-12.568-33.572-25.981-67.036-36.161-100.977c-4.127-13.759-1.146-28.608-0.828-42.954c0.042-1.9,2.878-4.687,5.427-5.499
		c24.96-7.956,32.396-25.18,38.334-40.785c9.932-26.1,7.055-52.332-11.257-77.366c-6.652-9.094-15.701-8.217-26.276-8.468
		c-12.187-0.289-12.096,6.571-13.906,11.709c-29.238,83.015-58.196,166.079-87.282,249.121
		c-8.994,25.678-18.181,51.322-27.319,77.091c-11.979,0-22.59,0-34.568,0c-10.147-27.758-20.572-55.386-30.329-83.131
		c-28.344-80.601-57.056-161.143-84.116-241.958c-6.123-18.285-20.447-27.888-44.653-32.307
		C72.607,47.902,64.886,46.259,56.626,44.617z"/>
</g>
</svg>
