<?xml version="1.0" encoding="utf-8"?>
<!-- Generator: Adobe Illustrator 15.0.2, SVG Export Plug-In . SVG Version: 6.00 Build 0)  -->
<!DOCTYPE svg PUBLIC "-//W3C//DTD SVG 1.1//EN" "http://www.w3.org/Graphics/SVG/1.1/DTD/svg11.dtd">
<svg version="1.1" id="Livello_1" xmlns="http://www.w3.org/2000/svg" xmlns:xlink="http://www.w3.org/1999/xlink" x="0px" y="0px"
	 width="16px" height="16px" viewBox="0 0 16 16" enable-background="new 0 0 16 16" xml:space="preserve">
<g>
	<polygon fill="#F28568" points="12.652,14.5 1.5,14.5 1.5,3.348 7.206,3.348 7.206,4.904 3.056,4.904 3.056,12.945 11.096,12.945
		11.096,9.054 12.652,9.054 	"/>
	<path fill="#F28568" d="M7.076,9.703c-0.199,0-0.398-0.076-0.55-0.229c-0.304-0.304-0.304-0.797,0-1.101l5.382-5.381
		c0.304-0.304,0.795-0.304,1.1,0c0.304,0.304,0.304,0.796,0,1.1L7.626,9.475C7.475,9.627,7.275,9.703,7.076,9.703z"/>
	<polygon fill="#F28568" points="9.247,1.5 14.5,1.5 14.5,6.753 	"/>
</g>
</svg>
