<?xml version="1.0" encoding="utf-8"?>
<!-- Generator: Adobe Illustrator 15.0.2, SVG Export Plug-In . SVG Version: 6.00 Build 0)  -->
<!DOCTYPE svg PUBLIC "-//W3C//DTD SVG 1.1//EN" "http://www.w3.org/Graphics/SVG/1.1/DTD/svg11.dtd">
<svg version="1.1" id="Livello_1" xmlns="http://www.w3.org/2000/svg" xmlns:xlink="http://www.w3.org/1999/xlink" x="0px" y="0px"
	 width="208px" height="208px" viewBox="0 0 208 208" enable-background="new 0 0 208 208" xml:space="preserve">
<g>
	<path fill="#E47348" d="M161.952,93.129c0.672,3.562,1.039,7.231,1.039,10.988c0,15.647-6.115,29.855-16.07,40.399
		c3.416,7.667,6.219,15.668,8.331,23.945c8.532,2.207,17.363,3.671,26.41,4.354c16.214-18.288,26.074-42.335,26.074-68.698
		c0-4.902-0.364-9.717-1.024-14.438c-4.436-0.511-8.946-0.786-13.521-0.786C182.368,88.893,171.896,90.374,161.952,93.129z"/>
	<path fill="#D72815" d="M127.377,158.208c7.434-3.2,14.068-7.892,19.543-13.692c3.416,7.667,6.219,15.668,8.331,23.945
		C145.547,165.952,136.224,162.494,127.377,158.208z"/>
	<path fill="#5D392E" d="M17.485,160.942C6.759,144.623,0.5,125.104,0.5,104.117c0-17.823,4.503-34.592,12.429-49.238
		c11.647,0.311,22.97,1.934,33.816,4.738c1.469,5.758,3.284,11.378,5.392,16.852c-4.393,8.245-6.893,17.653-6.893,27.648
		c0,17.961,8.052,34.033,20.734,44.831C51.033,155.699,34.685,159.882,17.485,160.942z"/>
	<path fill="#58321F" d="M46.746,59.617c1.469,5.758,3.284,11.378,5.392,16.852c2.405-4.511,5.381-8.67,8.83-12.386
		C56.327,62.376,51.588,60.869,46.746,59.617z"/>
	<path fill="#62A69F" d="M46.746,59.617c-3.059-11.988-4.689-24.548-4.689-37.488c0-0.335,0.012-0.668,0.014-1.003
		c-11.99,8.979-21.968,20.496-29.141,33.753C24.576,55.189,35.899,56.812,46.746,59.617z"/>
	<path fill="#F1836B" d="M155.252,168.461c1.934,7.573,3.291,15.374,4.033,23.354c8.336-5.256,15.869-11.659,22.377-19
		C172.615,172.132,163.784,170.668,155.252,168.461z"/>
	<path fill="#5D926B" d="M60.967,64.082C71.72,52.5,87.07,45.244,104.123,45.244c14.783,0,28.285,5.463,38.623,14.464
		c3.349-11.953,5.159-24.55,5.159-37.574c0-4.103-0.186-8.161-0.533-12.172C134.206,3.903,119.565,0.5,104.123,0.5
		c-23.274,0-44.754,7.673-62.052,20.625c-0.001,0.335-0.014,0.668-0.014,1.003c0,12.94,1.63,25.5,4.689,37.488
		C51.588,60.869,56.327,62.376,60.967,64.082z"/>
	<path fill="#E42D1F" d="M127.377,158.208c-7.133,3.072-14.994,4.781-23.255,4.781c-6.492,0-12.73-1.065-18.569-3.006
		c-5.791,13.518-9.107,28.337-9.377,43.909c8.894,2.486,18.259,3.844,27.946,3.844c20.281,0,39.185-5.85,55.163-15.922
		c-0.742-7.979-2.1-15.78-4.033-23.354C145.547,165.952,136.224,162.494,127.377,158.208z"/>
	<path fill="#F1584A" d="M17.485,160.942c17.2-1.061,33.548-5.243,48.494-11.995c5.693,4.849,12.319,8.626,19.574,11.036
		c-5.791,13.518-9.107,28.337-9.377,43.909C51.798,197.078,31.055,181.588,17.485,160.942z"/>
	<path fill="#F1E0AC" d="M142.745,59.708c9.771,8.506,16.705,20.175,19.207,33.421c9.943-2.755,20.416-4.236,31.239-4.236
		c4.574,0,9.085,0.275,13.521,0.786c-4.953-35.517-27.899-65.25-59.341-79.717c0.348,4.011,0.533,8.069,0.533,12.172
		C147.904,35.158,146.094,47.755,142.745,59.708z"/>
</g>
</svg>
