<?xml version="1.0" encoding="utf-8"?>
<!-- Generator: Adobe Illustrator 15.0.2, SVG Export Plug-In . SVG Version: 6.00 Build 0)  -->
<!DOCTYPE svg PUBLIC "-//W3C//DTD SVG 1.1//EN" "http://www.w3.org/Graphics/SVG/1.1/DTD/svg11.dtd">
<svg version="1.1" id="Livello_1" xmlns="http://www.w3.org/2000/svg" xmlns:xlink="http://www.w3.org/1999/xlink" x="0px" y="0px"
	 width="14px" height="10px" viewBox="0 0 14 10" enable-background="new 0 0 14 10" xml:space="preserve">
<path fill-rule="evenodd" clip-rule="evenodd" fill="#FFFFFF" d="M2.69,1.263L8.097,6.67c0.597,0.597,0.597,1.565,0,2.163
	C7.5,9.43,6.532,9.43,5.934,8.833L0.527,3.426c-0.598-0.597-0.598-1.566,0-2.163C1.125,0.666,2.093,0.666,2.69,1.263z"/>
<path fill-rule="evenodd" clip-rule="evenodd" fill="#FFFFFF" d="M5.934,6.67l5.407-5.407c0.597-0.597,1.566-0.597,2.163,0
	s0.597,1.566,0,2.163L8.097,8.833C7.5,9.43,6.532,9.43,5.934,8.833C5.337,8.235,5.337,7.267,5.934,6.67z"/>
</svg>
