<?xml version="1.0" encoding="utf-8"?>
<!-- Generator: Adobe Illustrator 15.0.2, SVG Export Plug-In . SVG Version: 6.00 Build 0)  -->
<!DOCTYPE svg PUBLIC "-//W3C//DTD SVG 1.1//EN" "http://www.w3.org/Graphics/SVG/1.1/DTD/svg11.dtd">
<svg version="1.1" id="Livello_1" xmlns="http://www.w3.org/2000/svg" xmlns:xlink="http://www.w3.org/1999/xlink" x="0px" y="0px"
	 width="175px" height="43px" viewBox="0 0 175 43" enable-background="new 0 0 175 43" xml:space="preserve">
<g>
	<path fill="#581D13" d="M20.387,29.581c-1.209,0.68-2.604,1.07-4.09,1.07c-1.213,0-2.365-0.261-3.405-0.726
		c0.247,1.673,0.825,3.283,1.711,4.733l0.092,0.15l0.158-0.076C17.198,33.611,19.117,31.791,20.387,29.581z"/>
	<path fill="#F1584A" d="M16.981,36.983c-0.782-0.741-2.212-2.425-2.212-2.425s-3.167,0.933-4.818,1.006
		C11.873,36.484,14.024,37,16.297,37C16.526,37,16.755,36.993,16.981,36.983z"/>
	<path fill="#5D926B" d="M9.302,17.729c1.492-2.28,4.066-3.788,6.995-3.788c0.649,0,1.281,0.077,1.889,0.218
		c-2.33-2.255-5.447-3.54-8.795-3.54c-0.769,0-1.54,0.075-2.301,0.215c-0.174,0.14-0.344,0.283-0.512,0.431
		C6.857,13.662,7.827,15.896,9.302,17.729z"/>
	<path fill="#E47348" d="M29.854,16.596c-0.069-0.164-0.144-0.324-0.218-0.485c-1.351-0.476-2.766-0.72-4.208-0.72
		c-1.274,0-2.514,0.189-3.707,0.554c1.541,1.317,2.596,3.185,2.862,5.298C26.721,20.226,28.563,18.617,29.854,16.596z"/>
	<path fill="#F1836B" d="M29.759,16.386c-1.253,2.007-3.059,3.629-5.205,4.659c0.062,0.408,0.098,0.826,0.098,1.251
		c0,1.912-0.645,3.673-1.726,5.081c1.457,1.817,2.375,4.016,2.631,6.337C28.877,31.019,31,26.906,31,22.296
		C31,20.193,30.554,18.195,29.759,16.386z"/>
	<path fill="#E42D1F" d="M23.047,27.215c-0.775,1.063-1.795,1.935-2.978,2.534c-1.257,2.075-3.1,3.755-5.3,4.808
		c0.544,0.891,1.196,1.707,1.939,2.432c3.432-0.095,6.57-1.363,9.026-3.422C25.451,31.177,24.489,28.995,23.047,27.215z"/>
	<path fill="#5D392E" d="M14.77,34.558c-0.832-1.363-1.41-2.899-1.667-4.541c0.001-0.001,0.001-0.003,0.002-0.004
		c-2.656-1.101-4.623-3.525-5.067-6.455c-2.134,0.988-3.962,2.556-5.264,4.519c1.46,3.411,4.176,6.153,7.562,7.658
		C11.913,35.615,13.409,35.208,14.77,34.558z"/>
	<path fill="#62A69F" d="M7.941,22.296c0-1.754,0.542-3.382,1.467-4.726c-1.444-1.81-2.397-4.03-2.652-6.458
		c-3.158,2.697-5.163,6.705-5.163,11.184c0,2.134,0.458,4.16,1.276,5.99c1.269-1.959,3.07-3.541,5.201-4.537
		C7.987,23.277,7.941,22.792,7.941,22.296z"/>
	<path fill="#F1E0AC" d="M16.297,7.593c-3.631,0-6.951,1.318-9.517,3.499c0.842-0.18,1.715-0.277,2.61-0.277
		c3.243,0,6.198,1.238,8.417,3.267c1.554,0.284,2.959,0.997,4.086,2.014c1.121-0.331,2.306-0.509,3.534-0.509
		c1.519,0,2.972,0.273,4.318,0.77C27.464,11.195,22.302,7.593,16.297,7.593z"/>
</g>
<g>
	<path fill="#D3D3D3" d="M46.992,26.674c-0.639,0.511-1.501,0.766-2.586,0.766c-0.574,0-1.117-0.108-1.628-0.326
		c-0.383-0.179-0.722-0.44-1.016-0.785v0.824h-1.188v-3.448h1.188c0.013,0.473,0.08,0.869,0.201,1.188
		c0.121,0.319,0.31,0.587,0.565,0.805c0.511,0.447,1.168,0.67,1.973,0.67c0.613,0,1.155-0.166,1.628-0.498
		c0.447-0.319,0.671-0.721,0.671-1.207c0-0.498-0.166-0.862-0.498-1.092c-0.319-0.242-0.983-0.453-1.992-0.632
		c-1.111-0.191-1.922-0.479-2.433-0.862c-0.536-0.37-0.805-0.983-0.805-1.839c0-0.843,0.294-1.5,0.882-1.973
		c0.6-0.485,1.309-0.728,2.126-0.728c0.459,0,0.887,0.077,1.283,0.23c0.396,0.153,0.753,0.396,1.072,0.728v-0.44h1.149v2.892h-1.149
		c-0.013-0.383-0.076-0.708-0.191-0.977s-0.281-0.504-0.498-0.708c-0.46-0.396-1.009-0.594-1.647-0.594
		c-0.587,0-1.034,0.153-1.341,0.46c-0.319,0.307-0.479,0.664-0.479,1.073c0,0.447,0.146,0.766,0.44,0.958
		c0.307,0.217,0.926,0.409,1.858,0.575c0.689,0.127,1.264,0.274,1.724,0.44c0.459,0.166,0.798,0.357,1.015,0.575
		c0.447,0.434,0.671,1.041,0.671,1.819C47.988,25.436,47.656,26.138,46.992,26.674z"/>
	<path fill="#D3D3D3" d="M50.497,22.844c0.077,0.971,0.422,1.762,1.034,2.375c0.69,0.728,1.571,1.092,2.644,1.092
		c0.179,0,0.396-0.029,0.651-0.086c0.255-0.057,0.504-0.125,0.747-0.201c0.242-0.076,0.456-0.15,0.642-0.22
		c0.185-0.07,0.297-0.118,0.335-0.144l0.307,1.034c-0.409,0.153-0.757,0.275-1.044,0.364c-0.287,0.089-0.597,0.172-0.929,0.249
		s-0.62,0.115-0.862,0.115c-1.392,0-2.547-0.466-3.467-1.398c-0.906-0.945-1.359-2.126-1.359-3.543c0-1.43,0.446-2.611,1.341-3.543
		c0.894-0.932,2.036-1.398,3.428-1.398c1.366,0,2.471,0.46,3.313,1.379c0.422,0.447,0.747,0.993,0.978,1.638
		c0.229,0.645,0.363,1.408,0.402,2.289H50.497z M56.205,19.568c-0.588-0.587-1.359-0.881-2.317-0.881
		c-0.983,0-1.801,0.357-2.452,1.072c-0.229,0.256-0.418,0.543-0.564,0.862c-0.147,0.319-0.259,0.67-0.335,1.053h6.741
		C57.125,20.807,56.767,20.104,56.205,19.568z"/>
	<path fill="#D3D3D3" d="M64.881,18.802c-1.264,0-2.196,0.262-2.796,0.785c-0.588,0.524-0.882,1.354-0.882,2.49v3.907h1.858v1.168
		h-3.16v-1.015v-7.183h-1.724v-1.168h3.025v1.245c0.115-0.166,0.256-0.338,0.422-0.517s0.351-0.326,0.556-0.441
		c0.179-0.089,0.38-0.172,0.604-0.249c0.223-0.077,0.456-0.137,0.698-0.182c0.243-0.044,0.485-0.08,0.729-0.105
		c0.242-0.025,0.466-0.032,0.67-0.019l0.518,0.019v1.264H64.881z"/>
	<path fill="#D3D3D3" d="M74.4,18.956v8.255c0,1.29-0.447,2.318-1.341,3.084c-0.881,0.766-2.018,1.149-3.409,1.149
		c-0.191,0-0.412-0.02-0.661-0.058c-0.249-0.039-0.485-0.083-0.708-0.134c-0.224-0.051-0.495-0.115-0.814-0.191l0.287-1.149
		c0.039,0.013,0.138,0.035,0.297,0.067c0.16,0.032,0.339,0.067,0.536,0.105c0.198,0.039,0.402,0.074,0.613,0.105
		s0.393,0.048,0.546,0.048c0.996,0,1.807-0.255,2.433-0.766c0.613-0.498,0.919-1.219,0.919-2.164v-1.762
		c-0.396,0.562-0.855,0.977-1.379,1.245c-0.689,0.332-1.386,0.498-2.088,0.498c-1.302,0-2.406-0.453-3.313-1.36
		c-0.881-0.894-1.321-2.017-1.321-3.371c0-1.392,0.453-2.573,1.36-3.543c0.906-0.983,2.004-1.475,3.294-1.475
		c0.664,0,1.303,0.153,1.915,0.46c0.511,0.255,1.021,0.728,1.532,1.417v-1.628h2.969v1.168H74.4z M72.103,19.798
		c-0.678-0.728-1.481-1.092-2.414-1.092c-0.945,0-1.743,0.364-2.394,1.092c-0.651,0.728-0.978,1.622-0.978,2.682
		c0,1.06,0.313,1.941,0.938,2.643c0.639,0.677,1.449,1.015,2.433,1.015c0.971,0,1.781-0.345,2.433-1.034
		c0.651-0.702,0.977-1.577,0.977-2.624S72.766,20.539,72.103,19.798z"/>
	<path fill="#D3D3D3" d="M78.672,27.153v-0.862h-0.019v-7.336h-1.59v-1.168h2.892v8.198h1.552v1.168H78.672z M79.688,15.221
		c-0.204,0.179-0.422,0.268-0.651,0.268s-0.447-0.089-0.651-0.268c-0.179-0.204-0.268-0.421-0.268-0.651
		c0-0.242,0.089-0.466,0.268-0.67c0.204-0.179,0.422-0.268,0.651-0.268s0.447,0.089,0.651,0.268
		c0.179,0.205,0.268,0.421,0.268,0.651C79.955,14.793,79.866,15.017,79.688,15.221z"/>
	<path fill="#D3D3D3" d="M89.456,25.985c-0.882,0.958-1.992,1.437-3.333,1.437s-2.452-0.479-3.333-1.437
		c-0.894-0.932-1.341-2.1-1.341-3.505s0.447-2.573,1.341-3.505c0.881-0.958,1.992-1.437,3.333-1.437s2.451,0.479,3.333,1.437
		c0.894,0.932,1.34,2.101,1.34,3.505S90.35,25.053,89.456,25.985z M88.536,19.798c-0.626-0.702-1.43-1.054-2.413-1.054
		s-1.788,0.352-2.413,1.054c-0.626,0.702-0.938,1.596-0.938,2.682s0.312,1.979,0.938,2.681c0.625,0.703,1.43,1.054,2.413,1.054
		s1.787-0.351,2.413-1.054c0.626-0.702,0.938-1.596,0.938-2.681S89.162,20.5,88.536,19.798z"/>
	<path fill="#D3D3D3" d="M100.277,26.004c-0.855,0.945-1.967,1.417-3.333,1.417c-0.689,0-1.348-0.153-1.973-0.459
		c-0.485-0.243-0.938-0.658-1.36-1.245v4.329h1.647v1.168H92.31v-1.015V18.956h-1.532v-1.168h2.834v1.494
		c0.435-0.587,0.913-1.015,1.437-1.283c0.651-0.307,1.303-0.46,1.954-0.46c1.314,0,2.4,0.466,3.256,1.398
		c0.868,0.919,1.303,2.081,1.303,3.486C101.561,23.878,101.133,25.072,100.277,26.004z M99.377,19.76
		c-0.626-0.702-1.449-1.053-2.471-1.053c-0.945,0-1.737,0.338-2.375,1.015c-0.639,0.702-0.958,1.609-0.958,2.72
		c0,1.124,0.326,2.037,0.977,2.739c0.651,0.69,1.456,1.035,2.414,1.035c1.008,0,1.819-0.345,2.433-1.035
		c0.625-0.702,0.938-1.602,0.938-2.7C100.335,21.369,100.016,20.462,99.377,19.76z"/>
	<path fill="#D3D3D3" d="M104.146,22.844c0.077,0.971,0.422,1.762,1.034,2.375c0.69,0.728,1.571,1.092,2.644,1.092
		c0.179,0,0.396-0.029,0.651-0.086c0.255-0.057,0.504-0.125,0.747-0.201c0.242-0.076,0.456-0.15,0.642-0.22
		c0.185-0.07,0.297-0.118,0.335-0.144l0.307,1.034c-0.409,0.153-0.757,0.275-1.044,0.364c-0.287,0.089-0.597,0.172-0.929,0.249
		s-0.62,0.115-0.862,0.115c-1.392,0-2.547-0.466-3.467-1.398c-0.906-0.945-1.359-2.126-1.359-3.543c0-1.43,0.446-2.611,1.341-3.543
		c0.894-0.932,2.036-1.398,3.428-1.398c1.366,0,2.471,0.46,3.313,1.379c0.422,0.447,0.747,0.993,0.978,1.638
		c0.229,0.645,0.363,1.408,0.402,2.289H104.146z M109.854,19.568c-0.588-0.587-1.359-0.881-2.317-0.881
		c-0.983,0-1.801,0.357-2.452,1.072c-0.229,0.256-0.418,0.543-0.564,0.862c-0.147,0.319-0.259,0.67-0.335,1.053h6.741
		C110.773,20.807,110.415,20.104,109.854,19.568z"/>
	<path fill="#D3D3D3" d="M121.326,27.153v-1.494c-0.409,0.524-0.868,0.913-1.379,1.168c-0.613,0.307-1.271,0.459-1.973,0.459
		c-1.328,0-2.433-0.459-3.314-1.379c-0.881-0.919-1.321-2.062-1.321-3.428c0-1.43,0.435-2.605,1.303-3.524
		c0.868-0.945,1.96-1.417,3.275-1.417c0.689,0,1.354,0.16,1.992,0.479c0.51,0.268,0.982,0.696,1.417,1.283v-4.444v-1.015h1.303
		v12.144h1.646v1.168H121.326z M120.35,19.741c-0.651-0.715-1.456-1.073-2.414-1.073c-0.944,0-1.742,0.364-2.394,1.092
		c-0.639,0.741-0.958,1.647-0.958,2.72c0,1.021,0.325,1.896,0.977,2.624c0.664,0.702,1.469,1.053,2.414,1.053
		c0.995,0,1.807-0.351,2.432-1.053c0.626-0.702,0.939-1.596,0.939-2.682C121.346,21.35,121.013,20.456,120.35,19.741z"/>
	<path fill="#D3D3D3" d="M125.463,22.844c0.077,0.971,0.422,1.762,1.034,2.375c0.69,0.728,1.571,1.092,2.644,1.092
		c0.179,0,0.396-0.029,0.651-0.086c0.255-0.057,0.504-0.125,0.747-0.201c0.242-0.076,0.456-0.15,0.642-0.22
		c0.185-0.07,0.297-0.118,0.335-0.144l0.307,1.034c-0.409,0.153-0.757,0.275-1.044,0.364c-0.287,0.089-0.597,0.172-0.929,0.249
		s-0.62,0.115-0.862,0.115c-1.392,0-2.547-0.466-3.467-1.398c-0.906-0.945-1.359-2.126-1.359-3.543c0-1.43,0.446-2.611,1.341-3.543
		c0.894-0.932,2.036-1.398,3.428-1.398c1.366,0,2.471,0.46,3.313,1.379c0.422,0.447,0.747,0.993,0.978,1.638
		c0.229,0.645,0.363,1.408,0.402,2.289H125.463z M131.171,19.568c-0.588-0.587-1.359-0.881-2.317-0.881
		c-0.983,0-1.801,0.357-2.452,1.072c-0.229,0.256-0.418,0.543-0.564,0.862c-0.147,0.319-0.259,0.67-0.335,1.053h6.741
		C132.091,20.807,131.732,20.104,131.171,19.568z"/>
	<path fill="#D3D3D3" d="M139.848,18.802c-1.264,0-2.196,0.262-2.796,0.785c-0.588,0.524-0.882,1.354-0.882,2.49v3.907h1.858v1.168
		h-3.16v-1.015v-7.183h-1.724v-1.168h3.025v1.245c0.115-0.166,0.256-0.338,0.422-0.517s0.351-0.326,0.556-0.441
		c0.179-0.089,0.38-0.172,0.604-0.249c0.223-0.077,0.456-0.137,0.698-0.182c0.243-0.044,0.485-0.08,0.729-0.105
		c0.242-0.025,0.466-0.032,0.67-0.019l0.518,0.019v1.264H139.848z"/>
	<path fill="#D3D3D3" d="M148.122,25.784c-0.269,0.352-0.581,0.655-0.938,0.91c-0.741,0.485-1.564,0.728-2.471,0.728
		c-1.38,0-2.497-0.466-3.353-1.398c-0.855-0.906-1.283-2.087-1.283-3.543c0-1.405,0.428-2.573,1.283-3.505
		c0.855-0.958,1.935-1.437,3.237-1.437c0.651,0,1.238,0.134,1.762,0.402c0.396,0.191,0.722,0.447,0.978,0.766v-0.345h1.13v3.179
		h-1.13c-0.026-0.536-0.109-0.973-0.249-1.312c-0.141-0.338-0.345-0.616-0.613-0.833c-0.549-0.434-1.175-0.651-1.877-0.651
		c-0.958,0-1.724,0.345-2.299,1.035c-0.6,0.702-0.899,1.603-0.899,2.701c0,1.124,0.306,2.03,0.919,2.72
		c0.613,0.677,1.417,1.015,2.413,1.015c0.729,0,1.341-0.192,1.839-0.575c0.242-0.191,0.46-0.418,0.651-0.68
		c0.191-0.261,0.37-0.584,0.536-0.967l1.072,0.479C148.626,24.996,148.39,25.433,148.122,25.784z"/>
	<path fill="#D3D3D3" d="M151.129,27.153v-0.862h-0.019v-7.336h-1.59v-1.168h2.892v8.198h1.552v1.168H151.129z M152.145,15.221
		c-0.204,0.179-0.422,0.268-0.651,0.268s-0.447-0.089-0.651-0.268c-0.179-0.204-0.268-0.421-0.268-0.651
		c0-0.242,0.089-0.466,0.268-0.67c0.204-0.179,0.422-0.268,0.651-0.268s0.447,0.089,0.651,0.268
		c0.179,0.205,0.268,0.421,0.268,0.651C152.412,14.793,152.323,15.017,152.145,15.221z"/>
	<path fill="#D3D3D3" d="M161.529,27.153v-1.015v-5.957c0-0.459-0.115-0.814-0.345-1.063s-0.581-0.374-1.054-0.374
		c-0.485,0-1.034,0.147-1.647,0.441c-0.293,0.141-0.567,0.297-0.823,0.469s-0.491,0.361-0.709,0.565v5.765h1.476v1.168h-2.777
		v-1.015v-7.183h-1.647v-1.168h2.949v1.054c0.422-0.345,0.9-0.639,1.437-0.881c0.601-0.281,1.227-0.421,1.878-0.421
		c0.753,0,1.372,0.23,1.857,0.689c0.473,0.46,0.709,1.073,0.709,1.839v5.918h1.437v1.168H161.529z"/>
	<path fill="#D3D3D3" d="M165.647,27.153v-0.862h-0.019v-7.336h-1.59v-1.168h2.892v8.198h1.552v1.168H165.647z M166.663,15.221
		c-0.204,0.179-0.422,0.268-0.651,0.268s-0.447-0.089-0.651-0.268c-0.179-0.204-0.268-0.421-0.268-0.651
		c0-0.242,0.089-0.466,0.268-0.67c0.204-0.179,0.422-0.268,0.651-0.268s0.447,0.089,0.651,0.268
		c0.179,0.205,0.268,0.421,0.268,0.651C166.931,14.793,166.842,15.017,166.663,15.221z"/>
</g>
</svg>
