<?xml version="1.0" encoding="utf-8"?>
<!-- Generator: Adobe Illustrator 15.0.2, SVG Export Plug-In . SVG Version: 6.00 Build 0)  -->
<!DOCTYPE svg PUBLIC "-//W3C//DTD SVG 1.1//EN" "http://www.w3.org/Graphics/SVG/1.1/DTD/svg11.dtd">
<svg version="1.1" id="Livello_1" xmlns="http://www.w3.org/2000/svg" xmlns:xlink="http://www.w3.org/1999/xlink" x="0px" y="0px"
	 width="253px" height="87px" viewBox="0 0 253 87" enable-background="new 0 0 253 87" xml:space="preserve">
<g opacity="0.8">
	<g opacity="0.1">
		<path d="M111.58,63.661c-0.958,1.046-2.194,1.568-3.711,1.568c-0.751,0-1.48-0.17-2.187-0.509
			c-0.722-0.338-1.333-0.979-1.833-1.921v5.809h1.9v0.994H102.7v-0.994V55.466h-1.767v-0.994h2.916v2.121
			c0.589-0.928,1.229-1.554,1.922-1.878c0.707-0.354,1.428-0.53,2.165-0.53c1.472,0,2.68,0.516,3.623,1.546
			c0.972,1.046,1.458,2.35,1.458,3.91C113.015,61.275,112.537,62.615,111.58,63.661z M110.806,56.46
			c-0.766-0.854-1.76-1.281-2.982-1.281c-1.134,0-2.091,0.412-2.872,1.237c-0.766,0.81-1.148,1.892-1.148,3.247
			c0,1.325,0.39,2.415,1.171,3.269c0.765,0.84,1.737,1.26,2.916,1.26c1.208,0,2.187-0.42,2.938-1.26
			c0.751-0.839,1.126-1.914,1.126-3.225C111.955,58.367,111.572,57.285,110.806,56.46z"/>
		<path d="M115.534,59.95c0.073,1.236,0.493,2.253,1.259,3.048c0.825,0.869,1.885,1.304,3.181,1.304c0.221,0,0.482-0.037,0.784-0.11
			c0.301-0.074,0.585-0.151,0.85-0.232s0.589-0.195,0.972-0.343l0.265,0.84c-0.427,0.162-0.795,0.291-1.104,0.387
			c-0.31,0.096-0.641,0.184-0.994,0.265s-0.67,0.122-0.95,0.122c-1.561,0-2.85-0.522-3.866-1.568
			c-1.016-1.031-1.524-2.349-1.524-3.954c0-1.591,0.5-2.908,1.502-3.954c1.001-1.045,2.275-1.568,3.821-1.568
			c1.502,0,2.731,0.508,3.689,1.524c0.942,1.001,1.458,2.415,1.546,4.241H115.534z M122.447,56.217
			c-0.736-0.707-1.671-1.061-2.805-1.061c-1.193,0-2.18,0.435-2.96,1.304c-0.574,0.618-0.942,1.45-1.104,2.496h8.173
			C123.604,57.852,123.169,56.938,122.447,56.217z"/>
		<path d="M135.28,64.92v-2.076c-0.56,0.824-1.178,1.399-1.855,1.723c-0.706,0.339-1.436,0.508-2.187,0.508
			c-1.473,0-2.702-0.508-3.688-1.523c-0.987-1.031-1.48-2.312-1.48-3.844c0-1.591,0.478-2.908,1.436-3.954
			c0.972-1.045,2.193-1.568,3.666-1.568c0.736,0,1.473,0.177,2.209,0.53c0.707,0.368,1.34,1.009,1.899,1.922v-5.722v-0.993h1.149
			v14.004h1.899v0.994H135.28z M134.11,56.438c-0.796-0.868-1.768-1.303-2.916-1.303c-1.163,0-2.121,0.435-2.872,1.303
			c-0.78,0.898-1.17,1.988-1.17,3.27c0,1.223,0.39,2.268,1.17,3.137c0.796,0.854,1.768,1.281,2.916,1.281
			c1.193,0,2.165-0.42,2.916-1.26c0.766-0.854,1.148-1.929,1.148-3.225C135.303,58.374,134.905,57.307,134.11,56.438z"/>
		<path d="M139.234,59.95c0.074,1.236,0.493,2.253,1.26,3.048c0.824,0.869,1.885,1.304,3.181,1.304c0.221,0,0.482-0.037,0.784-0.11
			c0.302-0.074,0.585-0.151,0.851-0.232c0.265-0.081,0.589-0.195,0.972-0.343l0.265,0.84c-0.427,0.162-0.795,0.291-1.104,0.387
			c-0.309,0.096-0.641,0.184-0.994,0.265c-0.353,0.081-0.67,0.122-0.949,0.122c-1.562,0-2.85-0.522-3.866-1.568
			c-1.016-1.031-1.523-2.349-1.523-3.954c0-1.591,0.5-2.908,1.502-3.954c1.001-1.045,2.275-1.568,3.821-1.568
			c1.502,0,2.731,0.508,3.688,1.524c0.942,1.001,1.458,2.415,1.547,4.241H139.234z M146.148,56.217
			c-0.736-0.707-1.671-1.061-2.805-1.061c-1.193,0-2.18,0.435-2.96,1.304c-0.575,0.618-0.943,1.45-1.104,2.496h8.173
			C147.305,57.852,146.87,56.938,146.148,56.217z"/>
		<path d="M155.58,55.289c-1.502,0-2.613,0.316-3.335,0.95c-0.722,0.633-1.082,1.634-1.082,3.004v4.683h2.143v0.994h-3.292v-0.994
			v-8.46h-1.987v-0.994h3.137v1.855c0.014-0.029,0.077-0.133,0.188-0.31c0.11-0.176,0.276-0.39,0.497-0.64
			c0.221-0.251,0.456-0.442,0.707-0.575c0.19-0.103,0.412-0.198,0.662-0.287c0.25-0.088,0.512-0.157,0.784-0.21
			c0.272-0.051,0.545-0.092,0.817-0.121s0.526-0.036,0.762-0.022l0.42,0.022v1.104H155.58z"/>
		<path d="M163.488,64.412c-0.78,0.544-1.693,0.817-2.739,0.817c-1.546,0-2.791-0.516-3.732-1.547
			c-0.958-1.045-1.437-2.37-1.437-3.976c0-1.546,0.479-2.856,1.437-3.932c0.941-1.061,2.143-1.591,3.601-1.591
			c0.735,0,1.384,0.147,1.943,0.441c0.574,0.295,1.038,0.715,1.392,1.26v-0.751h0.95v3.313h-0.95
			c-0.044-1.119-0.397-1.93-1.061-2.431c-0.692-0.529-1.45-0.795-2.274-0.795c-1.149,0-2.077,0.413-2.783,1.237
			c-0.722,0.825-1.083,1.907-1.083,3.247s0.368,2.423,1.104,3.247c0.736,0.825,1.708,1.237,2.916,1.237
			c0.884,0,1.62-0.229,2.209-0.686c0.604-0.471,1.061-1.074,1.369-1.811l0.928,0.397C164.88,63.094,164.283,63.867,163.488,64.412z"
			/>
		<path d="M167.884,64.92v-0.994h-0.022v-8.46h-1.833v-0.994h2.981v9.454h1.79v0.994H167.884z M168.745,51.202
			c-0.177,0.177-0.383,0.266-0.618,0.266c-0.236,0-0.442-0.089-0.619-0.266c-0.177-0.176-0.265-0.382-0.265-0.618
			c0-0.25,0.088-0.464,0.265-0.641s0.383-0.265,0.619-0.265c0.235,0,0.441,0.088,0.618,0.265s0.265,0.384,0.265,0.619
			C169.01,50.812,168.922,51.026,168.745,51.202z"/>
		<path d="M179.437,64.92v-0.994v-6.869c0-0.589-0.154-1.039-0.464-1.348c-0.309-0.324-0.751-0.486-1.325-0.486
			c-0.618,0-1.281,0.177-1.988,0.53c-0.722,0.368-1.34,0.795-1.855,1.281v6.892h1.701v0.994h-2.85v-0.994v-8.46h-1.899v-0.994h3.048
			v1.414c0.589-0.516,1.223-0.928,1.9-1.237c0.677-0.31,1.376-0.464,2.098-0.464c0.825,0,1.495,0.243,2.011,0.729
			c0.515,0.516,0.772,1.186,0.772,2.01v7.002h1.657v0.994H179.437z"/>
		<path d="M183.744,64.92v-0.994h-0.022v-8.46h-1.833v-0.994h2.981v9.454h1.79v0.994H183.744z M184.605,51.202
			c-0.177,0.177-0.383,0.266-0.618,0.266c-0.236,0-0.442-0.089-0.619-0.266c-0.177-0.176-0.265-0.382-0.265-0.618
			c0-0.25,0.088-0.464,0.265-0.641s0.383-0.265,0.619-0.265c0.235,0,0.441,0.088,0.618,0.265s0.265,0.384,0.265,0.619
			C184.87,50.812,184.782,51.026,184.605,51.202z"/>
	</g>
	<g>
		<g>
			<path fill="#FFFFFF" d="M111.58,64.661c-0.958,1.046-2.194,1.568-3.711,1.568c-0.751,0-1.48-0.17-2.187-0.509
				c-0.722-0.338-1.333-0.979-1.833-1.921v5.809h1.9v0.994H102.7v-0.994V56.466h-1.767v-0.994h2.916v2.121
				c0.589-0.928,1.229-1.554,1.922-1.878c0.707-0.354,1.428-0.53,2.165-0.53c1.472,0,2.68,0.516,3.623,1.546
				c0.972,1.046,1.458,2.35,1.458,3.91C113.015,62.275,112.537,63.615,111.58,64.661z M110.806,57.46
				c-0.766-0.854-1.76-1.281-2.982-1.281c-1.134,0-2.091,0.412-2.872,1.237c-0.766,0.81-1.148,1.892-1.148,3.247
				c0,1.325,0.39,2.415,1.171,3.269c0.765,0.84,1.737,1.26,2.916,1.26c1.208,0,2.187-0.42,2.938-1.26
				c0.751-0.839,1.126-1.914,1.126-3.225C111.955,59.367,111.572,58.285,110.806,57.46z"/>
			<path fill="#FFFFFF" d="M115.534,60.95c0.073,1.236,0.493,2.253,1.259,3.048c0.825,0.869,1.885,1.304,3.181,1.304
				c0.221,0,0.482-0.037,0.784-0.11c0.301-0.074,0.585-0.151,0.85-0.232s0.589-0.195,0.972-0.343l0.265,0.84
				c-0.427,0.162-0.795,0.291-1.104,0.387c-0.31,0.096-0.641,0.184-0.994,0.265s-0.67,0.122-0.95,0.122
				c-1.561,0-2.85-0.522-3.866-1.568c-1.016-1.031-1.524-2.349-1.524-3.954c0-1.591,0.5-2.908,1.502-3.954
				c1.001-1.045,2.275-1.568,3.821-1.568c1.502,0,2.731,0.508,3.689,1.524c0.942,1.001,1.458,2.415,1.546,4.241H115.534z
				 M122.447,57.217c-0.736-0.707-1.671-1.061-2.805-1.061c-1.193,0-2.18,0.435-2.96,1.304c-0.574,0.618-0.942,1.45-1.104,2.496
				h8.173C123.604,58.852,123.169,57.938,122.447,57.217z"/>
			<path fill="#FFFFFF" d="M135.28,65.92v-2.076c-0.56,0.824-1.178,1.399-1.855,1.723c-0.706,0.339-1.436,0.508-2.187,0.508
				c-1.473,0-2.702-0.508-3.688-1.523c-0.987-1.031-1.48-2.312-1.48-3.844c0-1.591,0.478-2.908,1.436-3.954
				c0.972-1.045,2.193-1.568,3.666-1.568c0.736,0,1.473,0.177,2.209,0.53c0.707,0.368,1.34,1.009,1.899,1.922v-5.722v-0.993h1.149
				v14.004h1.899v0.994H135.28z M134.11,57.438c-0.796-0.868-1.768-1.303-2.916-1.303c-1.163,0-2.121,0.435-2.872,1.303
				c-0.78,0.898-1.17,1.988-1.17,3.27c0,1.223,0.39,2.268,1.17,3.137c0.796,0.854,1.768,1.281,2.916,1.281
				c1.193,0,2.165-0.42,2.916-1.26c0.766-0.854,1.148-1.929,1.148-3.225C135.303,59.374,134.905,58.307,134.11,57.438z"/>
			<path fill="#FFFFFF" d="M139.234,60.95c0.074,1.236,0.493,2.253,1.26,3.048c0.824,0.869,1.885,1.304,3.181,1.304
				c0.221,0,0.482-0.037,0.784-0.11c0.302-0.074,0.585-0.151,0.851-0.232c0.265-0.081,0.589-0.195,0.972-0.343l0.265,0.84
				c-0.427,0.162-0.795,0.291-1.104,0.387c-0.309,0.096-0.641,0.184-0.994,0.265c-0.353,0.081-0.67,0.122-0.949,0.122
				c-1.562,0-2.85-0.522-3.866-1.568c-1.016-1.031-1.523-2.349-1.523-3.954c0-1.591,0.5-2.908,1.502-3.954
				c1.001-1.045,2.275-1.568,3.821-1.568c1.502,0,2.731,0.508,3.688,1.524c0.942,1.001,1.458,2.415,1.547,4.241H139.234z
				 M146.148,57.217c-0.736-0.707-1.671-1.061-2.805-1.061c-1.193,0-2.18,0.435-2.96,1.304c-0.575,0.618-0.943,1.45-1.104,2.496
				h8.173C147.305,58.852,146.87,57.938,146.148,57.217z"/>
			<path fill="#FFFFFF" d="M155.58,56.289c-1.502,0-2.613,0.316-3.335,0.95c-0.722,0.633-1.082,1.634-1.082,3.004v4.683h2.143v0.994
				h-3.292v-0.994v-8.46h-1.987v-0.994h3.137v1.855c0.014-0.029,0.077-0.133,0.188-0.31c0.11-0.176,0.276-0.39,0.497-0.64
				c0.221-0.251,0.456-0.442,0.707-0.575c0.19-0.103,0.412-0.198,0.662-0.287c0.25-0.088,0.512-0.157,0.784-0.21
				c0.272-0.051,0.545-0.092,0.817-0.121s0.526-0.036,0.762-0.022l0.42,0.022v1.104H155.58z"/>
			<path fill="#FFFFFF" d="M163.488,65.412c-0.78,0.544-1.693,0.817-2.739,0.817c-1.546,0-2.791-0.516-3.732-1.547
				c-0.958-1.045-1.437-2.37-1.437-3.976c0-1.546,0.479-2.856,1.437-3.932c0.941-1.061,2.143-1.591,3.601-1.591
				c0.735,0,1.384,0.147,1.943,0.441c0.574,0.295,1.038,0.715,1.392,1.26v-0.751h0.95v3.313h-0.95
				c-0.044-1.119-0.397-1.93-1.061-2.431c-0.692-0.529-1.45-0.795-2.274-0.795c-1.149,0-2.077,0.413-2.783,1.237
				c-0.722,0.825-1.083,1.907-1.083,3.247s0.368,2.423,1.104,3.247c0.736,0.825,1.708,1.237,2.916,1.237
				c0.884,0,1.62-0.229,2.209-0.686c0.604-0.471,1.061-1.074,1.369-1.811l0.928,0.397C164.88,64.094,164.283,64.867,163.488,65.412z
				"/>
			<path fill="#FFFFFF" d="M167.884,65.92v-0.994h-0.022v-8.46h-1.833v-0.994h2.981v9.454h1.79v0.994H167.884z M168.745,52.202
				c-0.177,0.177-0.383,0.266-0.618,0.266c-0.236,0-0.442-0.089-0.619-0.266c-0.177-0.176-0.265-0.382-0.265-0.618
				c0-0.25,0.088-0.464,0.265-0.641s0.383-0.265,0.619-0.265c0.235,0,0.441,0.088,0.618,0.265s0.265,0.384,0.265,0.619
				C169.01,51.812,168.922,52.026,168.745,52.202z"/>
			<path fill="#FFFFFF" d="M179.437,65.92v-0.994v-6.869c0-0.589-0.154-1.039-0.464-1.348c-0.309-0.324-0.751-0.486-1.325-0.486
				c-0.618,0-1.281,0.177-1.988,0.53c-0.722,0.368-1.34,0.795-1.855,1.281v6.892h1.701v0.994h-2.85v-0.994v-8.46h-1.899v-0.994
				h3.048v1.414c0.589-0.516,1.223-0.928,1.9-1.237c0.677-0.31,1.376-0.464,2.098-0.464c0.825,0,1.495,0.243,2.011,0.729
				c0.515,0.516,0.772,1.186,0.772,2.01v7.002h1.657v0.994H179.437z"/>
			<path fill="#FFFFFF" d="M183.744,65.92v-0.994h-0.022v-8.46h-1.833v-0.994h2.981v9.454h1.79v0.994H183.744z M184.605,52.202
				c-0.177,0.177-0.383,0.266-0.618,0.266c-0.236,0-0.442-0.089-0.619-0.266c-0.177-0.176-0.265-0.382-0.265-0.618
				c0-0.25,0.088-0.464,0.265-0.641s0.383-0.265,0.619-0.265c0.235,0,0.441,0.088,0.618,0.265s0.265,0.384,0.265,0.619
				C184.87,51.812,184.782,52.026,184.605,52.202z"/>
		</g>
	</g>
</g>
<g opacity="0.8">
	<g opacity="0.2">
		<path d="M120.474,45.357c-1.933,1.562-4.536,2.342-7.806,2.342c-1.784,0-3.42-0.335-4.907-1.004
			c-0.892-0.409-1.672-0.929-2.342-1.561v1.729h-4.349V35.934h4.349c0.037,1.562,0.232,2.788,0.585,3.68
			c0.353,0.892,0.845,1.636,1.478,2.23c1.338,1.227,3.159,1.84,5.464,1.84c1.709,0,3.215-0.446,4.517-1.338
			c1.152-0.892,1.729-1.951,1.729-3.178c0-0.706-0.103-1.272-0.307-1.7c-0.205-0.427-0.512-0.79-0.92-1.087
			c-0.93-0.706-2.826-1.301-5.688-1.784c-3.271-0.558-5.688-1.413-7.249-2.565c-1.673-1.227-2.509-3.141-2.509-5.743
			c0-2.565,0.911-4.59,2.732-6.078c1.747-1.486,3.903-2.23,6.468-2.23c1.227,0,2.378,0.177,3.457,0.53
			c1.078,0.354,2.063,0.92,2.955,1.701v-0.725h4.238v9.312h-4.182c-0.075-1.301-0.26-2.333-0.557-3.095
			c-0.298-0.762-0.744-1.403-1.338-1.924c-1.19-1.078-2.696-1.617-4.517-1.617c-1.524,0-2.732,0.409-3.624,1.227
			c-0.818,0.781-1.227,1.71-1.227,2.788c0,0.632,0.093,1.134,0.279,1.505c0.186,0.372,0.446,0.688,0.781,0.948
			c0.817,0.558,2.583,1.079,5.297,1.561c1.97,0.372,3.643,0.8,5.019,1.283c1.375,0.483,2.434,1.097,3.178,1.84
			c1.375,1.376,2.063,3.234,2.063,5.576C123.541,41.603,122.518,43.76,120.474,45.357z"/>
		<path d="M131.402,34.317c0.335,2.528,1.301,4.591,2.899,6.189c1.933,2.007,4.386,3.011,7.36,3.011
			c0.482,0,1.088-0.084,1.812-0.251s1.439-0.363,2.146-0.585c0.706-0.223,1.356-0.446,1.951-0.669
			c0.595-0.223,1.022-0.39,1.283-0.501l1.171,3.847c-1.265,0.483-2.361,0.864-3.29,1.143c-0.93,0.279-1.896,0.539-2.899,0.781
			c-1.004,0.241-1.878,0.362-2.621,0.362c-4.2,0-7.657-1.413-10.371-4.237c-2.751-2.751-4.125-6.282-4.125-10.595
			c0-4.237,1.338-7.787,4.014-10.649c2.713-2.788,6.152-4.182,10.315-4.182c4.089,0,7.416,1.376,9.98,4.126
			c1.301,1.414,2.286,3.095,2.955,5.046c0.67,1.952,1.078,4.34,1.228,7.165H131.402z M147.238,24.615
			c-1.673-1.598-3.811-2.397-6.412-2.397c-2.752,0-5.019,1.003-6.803,3.011c-1.152,1.264-1.951,2.863-2.397,4.795h18.512
			C149.616,27.869,148.65,26.065,147.238,24.615z"/>
		<path d="M173.668,22.887c-1.859,0-3.43,0.223-4.712,0.669c-1.282,0.446-2.314,1.023-3.095,1.729
			c-0.78,0.707-1.385,1.525-1.812,2.454c-0.428,0.93-0.641,2.23-0.641,3.903v10.929h5.408v4.294h-10.092v-3.402V22.999h-5.019
			v-4.293h9.702v2.788c0.297-0.371,0.632-0.631,1.004-0.78c0.371-0.148,0.761-0.335,1.171-0.558c0.558-0.26,1.171-0.483,1.84-0.669
			c0.669-0.186,1.366-0.334,2.091-0.446c0.725-0.112,1.449-0.186,2.175-0.223c0.725-0.037,1.402-0.056,2.035-0.056l1.896,0.056v4.07
			H173.668z"/>
		<path d="M214.203,46.863v-2.51h-0.056V22.999h-4.628v-4.293h9.312v23.864h4.517v4.294H214.203z M217.883,11.958
			c-0.558,0.633-1.282,0.948-2.175,0.948c-0.892,0-1.616-0.315-2.174-0.948c-0.633-0.558-0.948-1.282-0.948-2.174
			c0-0.855,0.315-1.598,0.948-2.23c0.558-0.631,1.282-0.948,2.174-0.948c0.893,0,1.617,0.316,2.175,0.948
			c0.632,0.558,0.948,1.283,0.948,2.175C218.831,10.583,218.515,11.327,217.883,11.958z"/>
		<path d="M246.934,43.35c-2.677,2.862-6.021,4.294-10.036,4.294s-7.36-1.432-10.037-4.294c-2.676-2.824-4.015-6.337-4.015-10.538
			c0-4.163,1.339-7.675,4.015-10.538c2.677-2.862,6.022-4.293,10.037-4.293s7.359,1.432,10.036,4.293
			c2.677,2.863,4.015,6.375,4.015,10.538C250.948,37.013,249.61,40.525,246.934,43.35z M243.588,25.284
			c-1.784-1.932-4.015-2.899-6.69-2.899c-2.677,0-4.907,0.967-6.691,2.899c-1.747,1.971-2.62,4.48-2.62,7.527
			c0,3.049,0.873,5.558,2.62,7.528c1.784,1.933,4.015,2.899,6.691,2.899c2.676,0,4.906-0.966,6.69-2.899
			c1.747-1.97,2.621-4.479,2.621-7.528C246.209,29.764,245.335,27.255,243.588,25.284z"/>
		<path d="M197.421,18.705v3.903c-1.264-1.486-2.528-2.565-3.792-3.234c-1.821-0.929-3.755-1.394-5.799-1.394
			c-3.902,0-7.212,1.469-9.925,4.405c-2.714,2.937-4.07,6.487-4.07,10.65c0,4.052,1.339,7.435,4.015,10.148
			c2.602,2.714,5.91,4.07,9.925,4.07c2.155,0,4.238-0.502,6.245-1.505c1.264-0.67,2.397-1.562,3.401-2.677v3.792
			c0,2.601-0.836,4.59-2.509,5.966c-1.558,1.258-3.529,1.953-5.912,2.09v4.393c3.632-0.2,6.647-1.332,9.034-3.416
			c2.713-2.342,4.07-5.446,4.07-9.312V22.999h4.851v-4.293H197.421z M194.688,40.116c-1.821,1.933-4.07,2.899-6.746,2.899
			c-2.788,0-5.038-0.948-6.747-2.844c-1.748-1.933-2.621-4.386-2.621-7.36c0-2.973,0.911-5.482,2.732-7.527
			c1.784-2.007,3.995-3.011,6.636-3.011c2.564,0,4.795,1.023,6.69,3.067c1.858,2.082,2.788,4.572,2.788,7.471
			C197.421,35.675,196.51,38.109,194.688,40.116z"/>
	</g>
	<g>
		<g>
			<path fill="#FFFFFF" d="M120.474,46.357c-1.933,1.562-4.536,2.342-7.806,2.342c-1.784,0-3.42-0.335-4.907-1.004
				c-0.892-0.409-1.672-0.929-2.342-1.561v1.729h-4.349V36.934h4.349c0.037,1.562,0.232,2.788,0.585,3.68
				c0.353,0.892,0.845,1.636,1.478,2.23c1.338,1.227,3.159,1.84,5.464,1.84c1.709,0,3.215-0.446,4.517-1.338
				c1.152-0.892,1.729-1.951,1.729-3.178c0-0.706-0.103-1.272-0.307-1.7c-0.205-0.427-0.512-0.79-0.92-1.087
				c-0.93-0.706-2.826-1.301-5.688-1.784c-3.271-0.558-5.688-1.413-7.249-2.565c-1.673-1.227-2.509-3.141-2.509-5.743
				c0-2.565,0.911-4.59,2.732-6.078c1.747-1.486,3.903-2.23,6.468-2.23c1.227,0,2.378,0.177,3.457,0.53
				c1.078,0.354,2.063,0.92,2.955,1.701v-0.725h4.238v9.312h-4.182c-0.075-1.301-0.26-2.333-0.557-3.095
				c-0.298-0.762-0.744-1.403-1.338-1.924c-1.19-1.078-2.696-1.617-4.517-1.617c-1.524,0-2.732,0.409-3.624,1.227
				c-0.818,0.781-1.227,1.71-1.227,2.788c0,0.632,0.093,1.134,0.279,1.505c0.186,0.372,0.446,0.688,0.781,0.948
				c0.817,0.558,2.583,1.079,5.297,1.561c1.97,0.372,3.643,0.8,5.019,1.283c1.375,0.483,2.434,1.097,3.178,1.84
				c1.375,1.376,2.063,3.234,2.063,5.576C123.541,42.603,122.518,44.76,120.474,46.357z"/>
			<path fill="#FFFFFF" d="M131.402,35.317c0.335,2.528,1.301,4.591,2.899,6.189c1.933,2.007,4.386,3.011,7.36,3.011
				c0.482,0,1.088-0.084,1.812-0.251s1.439-0.363,2.146-0.585c0.706-0.223,1.356-0.446,1.951-0.669
				c0.595-0.223,1.022-0.39,1.283-0.501l1.171,3.847c-1.265,0.483-2.361,0.864-3.29,1.143c-0.93,0.279-1.896,0.539-2.899,0.781
				c-1.004,0.241-1.878,0.362-2.621,0.362c-4.2,0-7.657-1.413-10.371-4.237c-2.751-2.751-4.125-6.282-4.125-10.595
				c0-4.237,1.338-7.787,4.014-10.649c2.713-2.788,6.152-4.182,10.315-4.182c4.089,0,7.416,1.376,9.98,4.126
				c1.301,1.414,2.286,3.095,2.955,5.046c0.67,1.952,1.078,4.34,1.228,7.165H131.402z M147.238,25.615
				c-1.673-1.598-3.811-2.397-6.412-2.397c-2.752,0-5.019,1.003-6.803,3.011c-1.152,1.264-1.951,2.863-2.397,4.795h18.512
				C149.616,28.869,148.65,27.065,147.238,25.615z"/>
			<path fill="#FFFFFF" d="M173.668,23.887c-1.859,0-3.43,0.223-4.712,0.669c-1.282,0.446-2.314,1.023-3.095,1.729
				c-0.78,0.707-1.385,1.525-1.812,2.454c-0.428,0.93-0.641,2.23-0.641,3.903v10.929h5.408v4.294h-10.092v-3.402V23.999h-5.019
				v-4.293h9.702v2.788c0.297-0.371,0.632-0.631,1.004-0.78c0.371-0.148,0.761-0.335,1.171-0.558c0.558-0.26,1.171-0.483,1.84-0.669
				c0.669-0.186,1.366-0.334,2.091-0.446c0.725-0.112,1.449-0.186,2.175-0.223c0.725-0.037,1.402-0.056,2.035-0.056l1.896,0.056
				v4.07H173.668z"/>
			<path fill="#FFFFFF" d="M214.203,47.863v-2.51h-0.056V23.999h-4.628v-4.293h9.312v23.864h4.517v4.294H214.203z M217.883,12.958
				c-0.558,0.633-1.282,0.948-2.175,0.948c-0.892,0-1.616-0.315-2.174-0.948c-0.633-0.558-0.948-1.282-0.948-2.174
				c0-0.855,0.315-1.598,0.948-2.23c0.558-0.631,1.282-0.948,2.174-0.948c0.893,0,1.617,0.316,2.175,0.948
				c0.632,0.558,0.948,1.283,0.948,2.175C218.831,11.583,218.515,12.327,217.883,12.958z"/>
			<path fill="#FFFFFF" d="M246.934,44.35c-2.677,2.862-6.021,4.294-10.036,4.294s-7.36-1.432-10.037-4.294
				c-2.676-2.824-4.015-6.337-4.015-10.538c0-4.163,1.339-7.675,4.015-10.538c2.677-2.862,6.022-4.293,10.037-4.293
				s7.359,1.432,10.036,4.293c2.677,2.863,4.015,6.375,4.015,10.538C250.948,38.013,249.61,41.525,246.934,44.35z M243.588,26.284
				c-1.784-1.932-4.015-2.899-6.69-2.899c-2.677,0-4.907,0.967-6.691,2.899c-1.747,1.971-2.62,4.48-2.62,7.527
				c0,3.049,0.873,5.558,2.62,7.528c1.784,1.933,4.015,2.899,6.691,2.899c2.676,0,4.906-0.966,6.69-2.899
				c1.747-1.97,2.621-4.479,2.621-7.528C246.209,30.764,245.335,28.255,243.588,26.284z"/>
			<path fill="#FFFFFF" d="M197.421,19.705v3.903c-1.264-1.486-2.528-2.565-3.792-3.234c-1.821-0.929-3.755-1.394-5.799-1.394
				c-3.902,0-7.212,1.469-9.925,4.405c-2.714,2.937-4.07,6.487-4.07,10.65c0,4.052,1.339,7.435,4.015,10.148
				c2.602,2.714,5.91,4.07,9.925,4.07c2.155,0,4.238-0.502,6.245-1.505c1.264-0.67,2.397-1.562,3.401-2.677v3.792
				c0,2.601-0.836,4.59-2.509,5.966c-1.558,1.258-3.529,1.953-5.912,2.09v4.393c3.632-0.2,6.647-1.332,9.034-3.416
				c2.713-2.342,4.07-5.446,4.07-9.312V23.999h4.851v-4.293H197.421z M194.688,41.116c-1.821,1.933-4.07,2.899-6.746,2.899
				c-2.788,0-5.038-0.948-6.747-2.844c-1.748-1.933-2.621-4.386-2.621-7.36c0-2.973,0.911-5.482,2.732-7.527
				c1.784-2.007,3.995-3.011,6.636-3.011c2.564,0,4.795,1.023,6.69,3.067c1.858,2.082,2.788,4.572,2.788,7.471
				C197.421,36.675,196.51,39.109,194.688,41.116z"/>
		</g>
	</g>
</g>
<g>
	<path fill="#581D13" d="M54.325,63.87c-3.454,1.942-7.436,3.057-11.681,3.057c-3.465,0-6.754-0.745-9.726-2.073
		c0.707,4.78,2.358,9.38,4.887,13.522l0.262,0.428l0.453-0.217C45.219,75.384,50.703,70.184,54.325,63.87z"/>
	<path fill="#F1584A" d="M44.602,85.014c-2.235-2.114-6.321-6.928-6.321-6.928s-9.042,2.665-13.76,2.874
		c5.487,2.629,11.633,4.104,18.124,4.104C43.301,85.063,43.952,85.044,44.602,85.014z"/>
	<path fill="#5D926B" d="M22.665,30.018C26.926,23.505,34.28,19.2,42.645,19.2c1.856,0,3.66,0.219,5.395,0.619
		C41.386,13.379,32.48,9.71,22.917,9.71c-2.194,0-4.398,0.215-6.571,0.614c-0.497,0.399-0.983,0.811-1.46,1.231
		C15.68,18.397,18.452,24.78,22.665,30.018z"/>
	<path fill="#E47348" d="M81.369,26.778c-0.197-0.467-0.41-0.926-0.622-1.385c-3.86-1.359-7.899-2.057-12.022-2.057
		c-3.637,0-7.179,0.539-10.587,1.584c4.4,3.762,7.414,9.095,8.175,15.132C72.42,37.148,77.685,32.554,81.369,26.778z"/>
	<path fill="#F1836B" d="M81.097,26.181c-3.576,5.732-8.738,10.365-14.867,13.307c0.177,1.167,0.278,2.359,0.278,3.576
		c0,5.461-1.839,10.491-4.927,14.513c4.163,5.191,6.781,11.472,7.516,18.103c9.483-7.7,15.547-19.448,15.547-32.615
		C84.644,37.055,83.369,31.349,81.097,26.181z"/>
	<path fill="#E42D1F" d="M61.928,57.114c-2.216,3.035-5.13,5.525-8.506,7.238c-3.59,5.927-8.854,10.726-15.142,13.733
		c1.553,2.545,3.419,4.876,5.54,6.947c9.806-0.271,18.771-3.893,25.786-9.774C68.791,68.429,66.045,62.196,61.928,57.114z"/>
	<path fill="#5D392E" d="M38.28,78.086c-2.377-3.894-4.024-8.281-4.761-12.97c0.002-0.006,0.003-0.01,0.005-0.014
		c-7.586-3.144-13.208-10.069-14.475-18.438c-6.094,2.823-11.316,7.301-15.033,12.907c4.17,9.745,11.925,17.575,21.601,21.874
		C30.123,81.107,34.396,79.944,38.28,78.086z"/>
	<path fill="#62A69F" d="M18.779,43.063c0-5.013,1.549-9.662,4.188-13.502c-4.126-5.168-6.847-11.508-7.576-18.444
		C6.37,18.821,0.644,30.27,0.644,43.063c0,6.096,1.309,11.883,3.645,17.109c3.625-5.596,8.771-10.114,14.858-12.96
		C18.91,45.864,18.779,44.479,18.779,43.063z"/>
	<path fill="#F1E0AC" d="M42.645,1.062c-10.37,0-19.855,3.765-27.182,9.993c2.405-0.512,4.896-0.79,7.454-0.79
		c9.265,0,17.704,3.536,24.043,9.331c4.441,0.811,8.454,2.847,11.672,5.752c3.2-0.943,6.586-1.456,10.093-1.456
		c4.338,0,8.492,0.78,12.337,2.198C74.541,11.353,59.799,1.062,42.645,1.062z"/>
</g>
</svg>
