<?xml version="1.0" encoding="utf-8"?>
<!-- Generator: Adobe Illustrator 15.0.2, SVG Export Plug-In . SVG Version: 6.00 Build 0)  -->
<!DOCTYPE svg PUBLIC "-//W3C//DTD SVG 1.1//EN" "http://www.w3.org/Graphics/SVG/1.1/DTD/svg11.dtd">
<svg version="1.1" id="Livello_1" xmlns="http://www.w3.org/2000/svg" xmlns:xlink="http://www.w3.org/1999/xlink" x="0px" y="0px"
	 width="45px" height="240px" viewBox="0 0 45 240" enable-background="new 0 0 45 240" xml:space="preserve">
<linearGradient id="SVGID_1_" gradientUnits="userSpaceOnUse" x1="26" y1="237.5" x2="26" y2="9.9555">
	<stop  offset="0" style="stop-color:#4D0000"/>
	<stop  offset="1" style="stop-color:#C72B00"/>
</linearGradient>
<rect x="7" y="7" fill="url(#SVGID_1_)" width="38" height="233"/>
<linearGradient id="SVGID_2_" gradientUnits="userSpaceOnUse" x1="0" y1="3.5" x2="45" y2="3.5">
	<stop  offset="0" style="stop-color:#8C0000"/>
	<stop  offset="1" style="stop-color:#A82B00"/>
</linearGradient>
<polygon fill="url(#SVGID_2_)" points="45,7 38,0 0,0 7,7 "/>
<linearGradient id="SVGID_3_" gradientUnits="userSpaceOnUse" x1="3.5" y1="238" x2="3.5" y2="7.824">
	<stop  offset="0" style="stop-color:#9C0000"/>
	<stop  offset="1" style="stop-color:#E64A00"/>
</linearGradient>
<polygon fill="url(#SVGID_3_)" points="0,0 0,240 7,240 7,7 "/>
<g opacity="0.7">
	<defs>
		<rect id="SVGID_4_" x="7" y="7" opacity="0.7" width="38" height="233"/>
	</defs>
	<clipPath id="SVGID_5_">
		<use xlink:href="#SVGID_4_"  overflow="visible"/>
	</clipPath>
	<g clip-path="url(#SVGID_5_)">
		<linearGradient id="SVGID_6_" gradientUnits="userSpaceOnUse" x1="49.8618" y1="422.1016" x2="1.9775" y2="179.7241">
			<stop  offset="0" style="stop-color:#FCB514"/>
			<stop  offset="0.0532" style="stop-color:#FCC11F"/>
			<stop  offset="0.159" style="stop-color:#FBD22F"/>
			<stop  offset="0.2907" style="stop-color:#FBDD3B"/>
			<stop  offset="0.4756" style="stop-color:#FBE441"/>
			<stop  offset="0.9888" style="stop-color:#FBE643"/>
		</linearGradient>
		<path fill="url(#SVGID_6_)" d="M60.37,373.667l-43.19-31.951L-5.368,300.67l3.871-42.976c0,0,3.502-24.852,3.502-27.217
			c0-2.366-2.335-26.034-2.335-26.034l-8.655-26.688l15.66-2.897l21.012,16.565l14.365,33.021l0.809,17.865l-5.836,16.569
			l-5.836,9.465l-7.536,8.006l-4.136,15.663l-3.425,8.282L15,307.398v9.468l3.946,11.229l6.444,13.62L60.37,373.667z"/>

			<linearGradient id="SVGID_7_" gradientUnits="userSpaceOnUse" x1="-863.3501" y1="982.4219" x2="-584.8906" y2="994.9258" gradientTransform="matrix(0.0227 -0.9997 0.9997 0.0227 -960.918 -485.9526)">
			<stop  offset="0" style="stop-color:#FCCF1F"/>
			<stop  offset="0.9888" style="stop-color:#F37721"/>
		</linearGradient>
		<path fill="url(#SVGID_7_)" d="M-12.064,240.73c-0.377-0.615-0.789-1.23-1.238-1.835c-5.263-7.117-12.176-15.407-10.633-24.261
			c-0.547,3.977,2.232,10.66,6.023,13.2c6.37,4.262,8.748-1.421,9.561-5.976c1.086-6.105-1.474-10.396-5.75-15.349
			c-8.206-9.491-11.455-17.903-11.31-29.727c0.005-0.55,0.014-1.1,0.023-1.652c-0.262,3.128,3.494,11.335,8.028,11.296
			c7.16-0.061-0.838-18.743-1.692-21.839c-2.673-9.663-5.383-33.111,6.299-40.412c-3.724,4.301-6.754,19.063-2.394,21.006
			c3.37,1.498,6.344-6.174,6.913-10.265c0.333-2.391-1.148-6.453-1.582-8.536c-0.576-2.765-1.234-5.465-1.998-8.07
			c-2.487-8.477-7.065-15.886-7.69-25.877c-0.665-10.655,4.65-20.238,9.406-29.577c-1.852,3.636-6.25,11.96-3.979,15.504
			c2.275,3.546,5.253-4.205,6.55-7.132c5.134-11.543,6.391-28.29,4.047-38.513c-1.287-5.613-3.665-10.273-7.033-13.232
			c-2.402-2.113-7.679-5.853-11.04-4.771c14.928-4.798,23.392,5.35,24.534,24.869c0.984,16.761-3.007,31.696-6.532,48.896
			c-2.208,10.785,0.614,35.721,10.777,31.09c3.125-1.427,5.588-5.197,5.754-9.789c0.125-3.413-1.316-10.541-5.026-12.488
			c10.995,2.975,10.417,15.528,8.467,23.15c-0.598,2.34-2.072,7.477-0.542,9.736c2.544,3.749,4.167-4.304,3.932-6.087
			c-0.152-1.159-0.558-2.207-1.271-3.176c3.024,1.959,3.617,6.626,3.875,9.588c0.29,3.304,0.172,6.862,1.379,9.971
			c1.367,3.521,5.373,5.326,7.673,1.335c2.475-4.285,2.302-8.847,1.925-13.527c-0.443-5.527-1.383-10.906-4.225-15.938
			c-3.003-5.312-8.211-9.566-11.674-14.692c-5.665-8.396-10.739-18.862-6.22-28.029C10.44,82.449,25.406,90.263,30.812,100.9
			c2.871,5.649,3.577,11.268,4.533,17.279c0.52,3.28,0.763,10.585,5.908,11.297c3.51,0.484,4.129-2.798,4.314-5.064
			c0.398-4.943-1.262-8.007-4.527-11.81c3.766,2.61,7.021,5.783,9.741,9.209c3.62,4.569,5.504,10.952,6.427,16.314
			c0.643,3.723,0.997,7.491,0.903,11.257c-0.239,9.616-2.616,19.093-5.145,28.428c-2.063,7.63-5.356,15.042-6.899,22.735
			c-2.63,13.115,8.536,18.235,11.769,2.908c0.288-1.363,0.441-2.723,0.531-4.065c0.051-0.762,0.427-3.644,0.119-4.103
			c9.425,13.925,3.605,32.043-3.383,45.755c-3.646,7.156-8.024,14.168-13.719,20.276c-3.647,3.903-6.42,15.112,3.734,13.576
			c8.742-1.32,6.292-9.303,7.462-14.396c4.05,4.061,2.242,11.597-0.648,15.904c-6.855,10.21-23.094,11.353-30.503,21.321
			c-6.381,8.581-6.542,20.703-3.727,30.373c-1.88-5.39-4.646-11.453-4.412-17.167c0.301-7.354,1.424-15.061,2.492-22.369
			c1.859-12.715,10.057-22.536,14.932-34.227c4.224-10.133,5.297-23.614-4.928-31.48c2.847,2.72,3.735,5.875,3.452,9.559
			c-0.14,1.846-0.457,6.34-3.135,6.94c-2.567,0.575-4.492-2.709-5.274-4.205c-2.517-4.813-3.05-10.846-3.831-16.119
			c-1.753-11.779-1.22-35.336-20.422-35.641c9.457,2.897,13.578,13.16,15.132,20.738c3.032,14.733,1.543,31.999-2.949,46.362
			c-1.965,6.277-3.501,12.533-5.421,18.73c-3.762,12.138-3.905,24.082-0.739,36.468c1.781,6.96,5.575,13.114,8.498,19.71
			c5.281,11.92,12.496,24.514,25.353,31.703c-4.58-0.728-9.923-5.707-13.227-8.514c-5.968-5.075-11-10.006-15.478-16.167
			c-3.415-4.688-7.064-9.231-8.753-14.586c-1.808-5.726-4.031-11.382-5.525-17.162c-1.564-6.049-1.166-12.652-2.065-18.812
			C-10.558,268.451-4.398,253.28-12.064,240.73z"/>

			<linearGradient id="SVGID_8_" gradientUnits="userSpaceOnUse" x1="-684.6729" y1="962.5879" x2="-672.1519" y2="965.3265" gradientTransform="matrix(0.0227 -0.9997 0.9997 0.0227 -960.918 -485.9526)">
			<stop  offset="0" style="stop-color:#FCCF1F"/>
			<stop  offset="0.9888" style="stop-color:#DB6327"/>
		</linearGradient>
		<path fill="url(#SVGID_8_)" d="M28.334,158.597c-5.438-4.955-9.688-10.016-12.709-16.649c-2.392-5.251-2.958-11.01-2.809-16.601
			c0.082-3.068,0.355-6.41-0.463-9.282c-0.432,7.092-8.88,8.338-13.761,3.239c-2.393-2.502-4.023-6.146-4.927-9.28
			c-0.929-3.209-1.568-6.532-2.399-9.777c-0.553-2.159-0.125-4.671-0.81-6.678c-1.321,3.637-0.91,7.826-1.011,11.691
			c-0.16,6.002,1.059,11.184,2.962,16.935c1.42,4.292,1.771,8.443,1.173,12.868c-0.416,3.063-2.024,5.097-4.468,7.27
			c1.699-1.916,2.325-5.069,2.651-7.414c0.333-2.391-1.148-6.453-1.582-8.536c-0.576-2.765-1.234-5.465-1.998-8.07
			c-2.487-8.477-7.065-15.886-7.69-25.877c-0.665-10.655,4.65-20.238,9.406-29.577c-1.852,3.636-6.25,11.96-3.979,15.504
			c2.275,3.546,5.253-4.205,6.55-7.132c5.134-11.543,6.391-28.29,4.047-38.513c-1.287-5.613-3.665-10.273-7.033-13.232
			c-2.402-2.113-7.679-5.853-11.04-4.771c14.928-4.798,23.392,5.35,24.534,24.869c0.984,16.761-3.007,31.696-6.532,48.896
			c-2.208,10.785,0.614,35.721,10.777,31.09c3.125-1.427,5.588-5.197,5.754-9.789c0.125-3.413-1.316-10.541-5.026-12.488
			c10.995,2.975,10.417,15.528,8.467,23.15c-0.598,2.34-2.072,7.477-0.542,9.736c2.544,3.749,4.167-4.304,3.932-6.087
			c-0.152-1.159-0.558-2.207-1.271-3.176c3.024,1.959,3.617,6.626,3.875,9.588c0.29,3.304,0.172,6.862,1.379,9.971
			c1.367,3.521,5.373,5.326,7.673,1.335c2.475-4.285,2.302-8.847,1.925-13.527c-0.443-5.527-1.383-10.906-4.225-15.938
			c-3.003-5.312-8.211-9.566-11.674-14.692c-5.665-8.396-10.739-18.862-6.22-28.029C10.44,82.449,25.406,90.263,30.812,100.9
			c2.871,5.649,3.577,11.268,4.533,17.279c0.52,3.28,0.763,10.585,5.908,11.297c3.51,0.484,4.129-2.798,4.314-5.064
			c0.398-4.943-1.262-8.007-4.527-11.81c3.766,2.61,7.021,5.783,9.741,9.209c3.62,4.569,5.504,10.952,6.427,16.314
			c0.643,3.723,0.997,7.491,0.903,11.257c-0.087,3.547-0.471,7.087-1.041,10.603c-0.416,2.571-0.3,6.871-2.011,9.103
			c-0.028,0.03-0.86-4.179-0.86-4.645c-0.005-1.676-0.113-3.505,0.025-5.17c0.399-4.807-0.343-10.112-2.602-14.593
			c-1.159-2.302-2.745-4.445-4.681-6.326c-1.317-1.28-5.681-3.237-6.338-4.581c1.979,4.045,2.406,8.836,2.036,13.405
			c-0.401,4.966-3.082,10.266-2.758,15.149c1.078-2.207-3.333-10.166-5.826-6.648c-1.852,2.605,2.688,8.64,4.656,10.406
			c-2.594-1.271-5.195-3.009-7.312-4.802C30.337,160.386,29.315,159.493,28.334,158.597z"/>

			<linearGradient id="SVGID_9_" gradientUnits="userSpaceOnUse" x1="-752.666" y1="985.6992" x2="-461.5825" y2="1037.7069" gradientTransform="matrix(0.0227 -0.9997 0.9997 0.0227 -960.918 -485.9526)">
			<stop  offset="0" style="stop-color:#FCCF1F"/>
			<stop  offset="0.9888" style="stop-color:#F37721"/>
		</linearGradient>
		<path fill="url(#SVGID_9_)" d="M-6.43,238.48c-0.442-0.808-0.951-1.6-1.534-2.369c3.045-0.388,3.883,3.481,4.727,5.15
			c-0.043-2.021,1.12-3.891,1.484-5.867c0.445-2.42,0.478-5.051,0.715-7.483c0.542-5.561,0.323-10.76-0.556-16.216
			c-0.853-5.293-2.812-10.159-4.47-15.298c-1.922-5.961-3.058-12.505-4.09-18.642c-1.329-7.923-0.391-15.67,2.703-23.184
			c1.799-4.368,3.807-10.099,6.878-13.911c-0.937,4.666-2.858,9.048-2.936,14.001c-0.088,5.622,3.65,11.176,6.956,15.828
			c2.207,3.103,5.526,5.373,7.657,8.495c1.212,1.778,2.294,3.671,3.167,5.63c0.281,0.639,1.325,4.382,2.257,4.572
			c0.058,0.052,0.112,0.107,0.162,0.167c3.426-5.277,1.259-18.957-5.432-22.014c4.572,2.521,7.239,7.707,9.241,11.888
			c3.202,6.695,1.977,14.309,4.78,21.063c2.487,5.992,6.634-0.022,7-3.65c0.603-5.954-2.86-11.187-3.717-16.905
			c-0.441-2.955-0.084-6.094-0.004-9.096c-0.477,4.41,2.948,8.813,4.826,12.751c2.567,5.381,4.445,10.685,4.612,16.531
			c0.222,7.791-4.704,18.441,2.888,24.522c4.975,3.987,12.391,0.454,12.203-5.265c2.261,2.718,0.254,7.927-0.983,10.757
			c-1.576,3.604-3.109,7.05-4.567,10.592c-4.399,10.681-12.189,20.151-17.396,30.516c-0.917,1.823-2.136,3.591-2.941,5.471
			c-0.703,1.643-1.57,2.527-2.425,3.936c-1.415,2.33-2.93,6.143-3.299,8.678c-0.476,3.272-1.558,6.453-2.087,9.718
			c-0.537,3.292-1.94,6.243-2.65,9.532c-1.401,6.496-0.899,13.324,0.962,19.717c-1.88-5.39-4.646-11.453-4.412-17.167
			c0.301-7.354,1.424-15.061,2.492-22.369c1.859-12.715,10.057-22.536,14.932-34.227c4.224-10.133,5.297-23.614-4.928-31.48
			c2.847,2.72,3.735,5.875,3.452,9.559c-0.14,1.846-0.457,6.34-3.135,6.94c-2.567,0.575-4.492-2.709-5.274-4.205
			c-2.517-4.813-3.05-10.846-3.831-16.119c-1.753-11.779-1.22-35.336-20.422-35.641c9.457,2.897,13.578,13.16,15.132,20.738
			c3.032,14.733,1.543,31.999-2.949,46.362c-1.965,6.277-3.501,12.533-5.421,18.73c-3.762,12.138-3.905,24.082-0.739,36.468
			c1.781,6.96,5.575,13.114,8.498,19.71c5.281,11.92,12.496,24.514,25.353,31.703c-4.58-0.728-9.923-5.707-13.227-8.514
			c-5.968-5.075-11-10.006-15.478-16.167c-3.415-4.688-7.064-9.231-8.753-14.586c-1.808-5.726-4.031-11.382-5.525-17.162
			c-1.564-6.049-1.166-12.652-2.065-18.812c-1.382-9.455,2.935-17.851,4.291-27.091C-3.486,249.171-3.685,243.489-6.43,238.48z"/>

			<linearGradient id="SVGID_10_" gradientUnits="userSpaceOnUse" x1="1466.7422" y1="1149.7725" x2="1459.5465" y2="1043.4385" gradientTransform="matrix(0.9996 0.0289 -0.0289 0.9996 -1390.9648 -1030.8496)">
			<stop  offset="0" style="stop-color:#FCCF1F"/>
			<stop  offset="0.9888" style="stop-color:#F37721"/>
		</linearGradient>
		<path fill="url(#SVGID_10_)" d="M44.108,90.035c-0.677,2.177-6.939,14.332-4.157,17.296c-3.669-3.909-7.312-12.491-7.944-19.056
			c-0.679-7.067,1.136-14.811,3.264-20.176c2.077-5.229,5.354-9.178,7.115-14.752c1.698-5.375-0.729-9.681-4.234-11.748
			c1.485-1.353,3.835,0.812,5.043,2.938c5.194,9.132-2.871,20.761-4.659,27.421c-0.793,2.952-1.267,13.579,2.959,11.707
			c1.873-0.835,1.614-4.447,0.366-6.753c0.97-0.926,1.968,0.462,2.6,1.958C46.021,82.55,45.055,87.003,44.108,90.035z"/>

			<linearGradient id="SVGID_11_" gradientUnits="userSpaceOnUse" x1="1472.4785" y1="1143.0029" x2="1453.5934" y2="1057.2328" gradientTransform="matrix(0.9996 0.0289 -0.0289 0.9996 -1390.9648 -1030.8496)">
			<stop  offset="0" style="stop-color:#FCB514"/>
			<stop  offset="0.9888" style="stop-color:#FBE643"/>
		</linearGradient>
		<path fill="url(#SVGID_11_)" d="M38.283,94.826c0.148,0.389,0.279,0.767,0.382,1.121c0.723,2.494,0.159,10.184,1.287,11.384
			c-5.373-5.722-5.855-14.307-4.815-22.674C34.746,87.791,37.107,91.767,38.283,94.826z"/>

			<linearGradient id="SVGID_12_" gradientUnits="userSpaceOnUse" x1="-460.1455" y1="1045.041" x2="-430.88" y2="998.7737" gradientTransform="matrix(-0.9417 -0.0065 -0.0077 1.088 -436.6533 -861.916)">
			<stop  offset="0" style="stop-color:#FCCF1F"/>
			<stop  offset="0.9888" style="stop-color:#F37721"/>
		</linearGradient>
		<path fill="url(#SVGID_12_)" d="M-21.753,263.565c0.936,0.941,1.625,1.742,1.885,2.177c1.367,2.271,6.627,12.069,5.185,14.935
			c2.618-5.21,3.732-14.753,2.321-21.128c-1.522-6.868-5.875-13.293-9.805-17.371c-2.639-2.737-5.691-3.788-7.579-7.399
			c-1.21-2.313-3.486-7.999-2.808-10.727c-1.941,7.801,1.076,17.22,5.267,23.733c0.869,1.352,2.862,2.938,3.403,4.481
			c2.243,6.393-6.572,2.875-8.498,5.891C-30.801,255.68-24.899,260.404-21.753,263.565z"/>

			<linearGradient id="SVGID_13_" gradientUnits="userSpaceOnUse" x1="-463.6797" y1="1081.208" x2="-459.4415" y2="1055.7766" gradientTransform="matrix(-0.9417 -0.0065 -0.0077 1.088 -436.6533 -861.916)">
			<stop  offset="0" style="stop-color:#FCB514"/>
			<stop  offset="0.9888" style="stop-color:#FBE643"/>
		</linearGradient>
		<path fill="url(#SVGID_13_)" d="M-16.884,268.329c-0.032,0.429-0.052,0.832-0.047,1.207c0.033,2.631,3.052,9.545,2.247,11.143
			c3.834-7.624,1.628-15.816-2.108-23.159C-15.391,260.271-16.615,264.979-16.884,268.329z"/>

			<linearGradient id="SVGID_14_" gradientUnits="userSpaceOnUse" x1="797.1562" y1="1482.9785" x2="802.8574" y2="1434.3009" gradientTransform="matrix(0.9089 -0.4171 0.4171 0.9089 -1367.916 -844.5259)">
			<stop  offset="0" style="stop-color:#FCCF1F"/>
			<stop  offset="0.9888" style="stop-color:#F37721"/>
		</linearGradient>
		<path fill="url(#SVGID_14_)" d="M-32.775,144.58c5.271,8.025,12.342,17.059,4.963,27.374c0.695-6.219-2.83-10.518-6.103-14.417
			c-2.926-3.48-5.53-7.735-6.772-12.688c-1.539-6.146,0.345-22.67,7.734-22.112C-38.528,128.855-37.044,138.071-32.775,144.58z"/>

			<linearGradient id="SVGID_15_" gradientUnits="userSpaceOnUse" x1="798.7686" y1="1456.5293" x2="798.1223" y2="1466.2241" gradientTransform="matrix(0.9089 -0.4171 0.4171 0.9089 -1367.916 -844.5259)">
			<stop  offset="0" style="stop-color:#FCB514"/>
			<stop  offset="0.9888" style="stop-color:#FBE643"/>
		</linearGradient>
		<path fill="url(#SVGID_15_)" d="M-33.129,155.778c2.87,0.999,6.149,1.598,7.705,5.445c1.556,3.842-0.421,7.982-2.388,10.73
			C-27.233,166.78-28.359,157.438-33.129,155.778z"/>

			<linearGradient id="SVGID_16_" gradientUnits="userSpaceOnUse" x1="958.5029" y1="1505.6045" x2="974.5964" y2="1484.1466" gradientTransform="matrix(0.9343 -0.3565 0.3565 0.9343 -1373.877 -874.2627)">
			<stop  offset="0" style="stop-color:#FCCF1F"/>
			<stop  offset="0.9888" style="stop-color:#F37721"/>
		</linearGradient>
		<path fill="url(#SVGID_16_)" d="M57.137,189.092c-1.71,0.769,0.78-13.694,1.483-15.171c2.746-5.786,6.717-10.61,9.69-16.234
			C68.535,169.402,69.017,183.753,57.137,189.092z"/>

			<linearGradient id="SVGID_17_" gradientUnits="userSpaceOnUse" x1="1638.5781" y1="3280.0898" x2="1654.6649" y2="3258.6406" gradientTransform="matrix(0.4183 -0.1583 0.1616 0.4197 -1157.793 -927.2212)">
			<stop  offset="0" style="stop-color:#FCB514"/>
			<stop  offset="0.9888" style="stop-color:#FBE643"/>
		</linearGradient>
		<path fill="url(#SVGID_17_)" d="M57.11,189.312c-0.767,0.341,0.33-6.141,0.643-6.799c1.223-2.59,2.997-4.746,4.324-7.259
			C62.194,180.506,62.43,186.949,57.11,189.312z"/>

			<linearGradient id="SVGID_18_" gradientUnits="userSpaceOnUse" x1="451.8916" y1="926.3779" x2="459.893" y2="915.7094" gradientTransform="matrix(1.1036 -1.487 1.0483 1.1544 -1456.1465 -335.8574)">
			<stop  offset="0" style="stop-color:#FCCF1F"/>
			<stop  offset="0.9888" style="stop-color:#F37721"/>
		</linearGradient>
		<path fill="url(#SVGID_18_)" d="M11.365,61.193c-1.024,1.659-2.464-11.101-2.298-12.678c0.644-6.184,2.344-12.383,3.179-18.577
			C14.975,38.883,18.459,49.715,11.365,61.193z"/>

			<linearGradient id="SVGID_19_" gradientUnits="userSpaceOnUse" x1="509.9883" y1="1992.4492" x2="517.9872" y2="1981.7839" gradientTransform="matrix(0.4951 -0.6636 0.4729 0.5172 -1182.2861 -630.5059)">
			<stop  offset="0" style="stop-color:#FCB514"/>
			<stop  offset="0.9888" style="stop-color:#FBE643"/>
		</linearGradient>
		<path fill="url(#SVGID_19_)" d="M11.395,61.383c-0.459,0.74-1.119-4.964-1.046-5.67c0.283-2.762,1.043-5.532,1.414-8.3
			C12.997,51.414,14.577,56.264,11.395,61.383z"/>
		<g>

				<linearGradient id="SVGID_20_" gradientUnits="userSpaceOnUse" x1="2164.4062" y1="1071.1562" x2="2193.4021" y2="1025.3153" gradientTransform="matrix(0.7272 0.2494 -0.3244 0.946 -1202.9924 -1233.25)">
				<stop  offset="0" style="stop-color:#FCCF1F"/>
				<stop  offset="0.9888" style="stop-color:#F37721"/>
			</linearGradient>
			<path fill="url(#SVGID_20_)" d="M35.578,309.284c-1.22,0.419-2.152,0.811-2.543,1.058c-2.04,1.303-10.201,7.117-9.567,9.796
				c-1.154-4.865,0.462-12.573,3.737-17.015c3.522-4.786,9.793-8.305,14.958-10.156c3.469-1.24,6.868-1.049,9.825-3.213
				c1.894-1.381,5.847-5.013,5.944-7.33c-0.279,6.639-6.058,12.892-12.187,16.536c-1.271,0.751-3.752,1.319-4.75,2.333
				c-4.119,4.184,5.845,4.363,6.932,7.312C47.033,306.182,39.681,307.884,35.578,309.284z"/>

				<linearGradient id="SVGID_21_" gradientUnits="userSpaceOnUse" x1="2158.4697" y1="1102.1035" x2="2162.3152" y2="1079.028" gradientTransform="matrix(0.7272 0.2494 -0.3244 0.946 -1202.9924 -1233.25)">
				<stop  offset="0" style="stop-color:#FCB514"/>
				<stop  offset="0.9888" style="stop-color:#FBE643"/>
			</linearGradient>
			<path fill="url(#SVGID_21_)" d="M29.261,311.356c-0.088,0.339-0.186,0.658-0.299,0.947c-0.789,2.013-5.849,6.339-5.492,7.835
				c-1.696-7.12,2.906-12.704,8.814-17.131C30.07,304.669,29.956,308.695,29.261,311.356z"/>
		</g>

			<linearGradient id="SVGID_22_" gradientUnits="userSpaceOnUse" x1="-54.8721" y1="650.2041" x2="-49.1447" y2="642.5676" gradientTransform="matrix(0.7016 -1.8533 2.154 0.5182 -1357.3828 -121.0938)">
			<stop  offset="0" style="stop-color:#FCCF1F"/>
			<stop  offset="0.9888" style="stop-color:#F37721"/>
		</linearGradient>
		<path fill="url(#SVGID_22_)" d="M3.036,317.529c-0.192,1.268-7.62-5.987-8.21-6.979c-2.316-3.878-3.63-8.048-5.771-11.984
			C-4.096,303.192,4.374,308.744,3.036,317.529z"/>

			<linearGradient id="SVGID_23_" gradientUnits="userSpaceOnUse" x1="-620.1792" y1="1382.5742" x2="-614.4529" y2="1374.9391" gradientTransform="matrix(0.3168 -0.8283 0.9696 0.2306 -1140.1816 -514.8823)">
			<stop  offset="0" style="stop-color:#FCB514"/>
			<stop  offset="0.9888" style="stop-color:#FBE643"/>
		</linearGradient>
		<path fill="url(#SVGID_23_)" d="M3.155,317.634c-0.091,0.567-3.424-2.674-3.69-3.116c-1.039-1.731-1.627-3.597-2.585-5.354
			C-0.041,311.228,3.768,313.709,3.155,317.634z"/>
	</g>
</g>
<g>
	<defs>
		<polygon id="SVGID_24_" points="0,0 0,240 7,240 7,7 		"/>
	</defs>
	<clipPath id="SVGID_25_">
		<use xlink:href="#SVGID_24_"  overflow="visible"/>
	</clipPath>
	<g clip-path="url(#SVGID_25_)">
		<linearGradient id="SVGID_26_" gradientUnits="userSpaceOnUse" x1="49.8618" y1="422.1016" x2="1.9775" y2="179.7241">
			<stop  offset="0" style="stop-color:#FCB514"/>
			<stop  offset="0.0532" style="stop-color:#FCC11F"/>
			<stop  offset="0.159" style="stop-color:#FBD22F"/>
			<stop  offset="0.2907" style="stop-color:#FBDD3B"/>
			<stop  offset="0.4756" style="stop-color:#FBE441"/>
			<stop  offset="0.9888" style="stop-color:#FBE643"/>
		</linearGradient>
		<path fill="url(#SVGID_26_)" d="M60.37,373.667l-43.19-31.951L-5.368,300.67l3.871-42.976c0,0,3.502-24.852,3.502-27.217
			c0-2.366-2.335-26.034-2.335-26.034l-8.655-26.688l15.66-2.897l21.012,16.565l14.365,33.021l0.809,17.865l-5.836,16.569
			l-5.836,9.465l-7.536,8.006l-4.136,15.663l-3.425,8.282L15,307.398v9.468l3.946,11.229l6.444,13.62L60.37,373.667z"/>

			<linearGradient id="SVGID_27_" gradientUnits="userSpaceOnUse" x1="-863.3501" y1="982.4219" x2="-584.8906" y2="994.9258" gradientTransform="matrix(0.0227 -0.9997 0.9997 0.0227 -960.918 -485.9526)">
			<stop  offset="0" style="stop-color:#FCCF1F"/>
			<stop  offset="0.9888" style="stop-color:#F37721"/>
		</linearGradient>
		<path fill="url(#SVGID_27_)" d="M-12.064,240.73c-0.377-0.615-0.789-1.23-1.238-1.835c-5.263-7.117-12.176-15.407-10.633-24.261
			c-0.547,3.977,2.232,10.66,6.023,13.2c6.37,4.262,8.748-1.421,9.561-5.976c1.086-6.105-1.474-10.396-5.75-15.349
			c-8.206-9.491-11.455-17.903-11.31-29.727c0.005-0.55,0.014-1.1,0.023-1.652c-0.262,3.128,3.494,11.335,8.028,11.296
			c7.16-0.061-0.838-18.743-1.692-21.839c-2.673-9.663-5.383-33.111,6.299-40.412c-3.724,4.301-6.754,19.063-2.394,21.006
			c3.37,1.498,6.344-6.174,6.913-10.265c0.333-2.391-1.148-6.453-1.582-8.536c-0.576-2.765-1.234-5.465-1.998-8.07
			c-2.487-8.477-7.065-15.886-7.69-25.877c-0.665-10.655,4.65-20.238,9.406-29.577c-1.852,3.636-6.25,11.96-3.979,15.504
			c2.275,3.546,5.253-4.205,6.55-7.132c5.134-11.543,6.391-28.29,4.047-38.513c-1.287-5.613-3.665-10.273-7.033-13.232
			c-2.402-2.113-7.679-5.853-11.04-4.771c14.928-4.798,23.392,5.35,24.534,24.869c0.984,16.761-3.007,31.696-6.532,48.896
			c-2.208,10.785,0.614,35.721,10.777,31.09c3.125-1.427,5.588-5.197,5.754-9.789c0.125-3.413-1.316-10.541-5.026-12.488
			c10.995,2.975,10.417,15.528,8.467,23.15c-0.598,2.34-2.072,7.477-0.542,9.736c2.544,3.749,4.167-4.304,3.932-6.087
			c-0.152-1.159-0.558-2.207-1.271-3.176c3.024,1.959,3.617,6.626,3.875,9.588c0.29,3.304,0.172,6.862,1.379,9.971
			c1.367,3.521,5.373,5.326,7.673,1.335c2.475-4.285,2.302-8.847,1.925-13.527c-0.443-5.527-1.383-10.906-4.225-15.938
			c-3.003-5.312-8.211-9.566-11.674-14.692c-5.665-8.396-10.739-18.862-6.22-28.029C10.44,82.449,25.406,90.263,30.812,100.9
			c2.871,5.649,3.577,11.268,4.533,17.279c0.52,3.28,0.763,10.585,5.908,11.297c3.51,0.484,4.129-2.798,4.314-5.064
			c0.398-4.943-1.262-8.007-4.527-11.81c3.766,2.61,7.021,5.783,9.741,9.209c3.62,4.569,5.504,10.952,6.427,16.314
			c0.643,3.723,0.997,7.491,0.903,11.257c-0.239,9.616-2.616,19.093-5.145,28.428c-2.063,7.63-5.356,15.042-6.899,22.735
			c-2.63,13.115,8.536,18.235,11.769,2.908c0.288-1.363,0.441-2.723,0.531-4.065c0.051-0.762,0.427-3.644,0.119-4.103
			c9.425,13.925,3.605,32.043-3.383,45.755c-3.646,7.156-8.024,14.168-13.719,20.276c-3.647,3.903-6.42,15.112,3.734,13.576
			c8.742-1.32,6.292-9.303,7.462-14.396c4.05,4.061,2.242,11.597-0.648,15.904c-6.855,10.21-23.094,11.353-30.503,21.321
			c-6.381,8.581-6.542,20.703-3.727,30.373c-1.88-5.39-4.646-11.453-4.412-17.167c0.301-7.354,1.424-15.061,2.492-22.369
			c1.859-12.715,10.057-22.536,14.932-34.227c4.224-10.133,5.297-23.614-4.928-31.48c2.847,2.72,3.735,5.875,3.452,9.559
			c-0.14,1.846-0.457,6.34-3.135,6.94c-2.567,0.575-4.492-2.709-5.274-4.205c-2.517-4.813-3.05-10.846-3.831-16.119
			c-1.753-11.779-1.22-35.336-20.422-35.641c9.457,2.897,13.578,13.16,15.132,20.738c3.032,14.733,1.543,31.999-2.949,46.362
			c-1.965,6.277-3.501,12.533-5.421,18.73c-3.762,12.138-3.905,24.082-0.739,36.468c1.781,6.96,5.575,13.114,8.498,19.71
			c5.281,11.92,12.496,24.514,25.353,31.703c-4.58-0.728-9.923-5.707-13.227-8.514c-5.968-5.075-11-10.006-15.478-16.167
			c-3.415-4.688-7.064-9.231-8.753-14.586c-1.808-5.726-4.031-11.382-5.525-17.162c-1.564-6.049-1.166-12.652-2.065-18.812
			C-10.558,268.451-4.398,253.28-12.064,240.73z"/>

			<linearGradient id="SVGID_28_" gradientUnits="userSpaceOnUse" x1="-684.6729" y1="962.5879" x2="-672.1519" y2="965.3265" gradientTransform="matrix(0.0227 -0.9997 0.9997 0.0227 -960.918 -485.9526)">
			<stop  offset="0" style="stop-color:#FCCF1F"/>
			<stop  offset="0.9888" style="stop-color:#DB6327"/>
		</linearGradient>
		<path fill="url(#SVGID_28_)" d="M28.334,158.597c-5.438-4.955-9.688-10.016-12.709-16.649c-2.392-5.251-2.958-11.01-2.809-16.601
			c0.082-3.068,0.355-6.41-0.463-9.282c-0.432,7.092-8.88,8.338-13.761,3.239c-2.393-2.502-4.023-6.146-4.927-9.28
			c-0.929-3.209-1.568-6.532-2.399-9.777c-0.553-2.159-0.125-4.671-0.81-6.678c-1.321,3.637-0.91,7.826-1.011,11.691
			c-0.16,6.002,1.059,11.184,2.962,16.935c1.42,4.292,1.771,8.443,1.173,12.868c-0.416,3.063-2.024,5.097-4.468,7.27
			c1.699-1.916,2.325-5.069,2.651-7.414c0.333-2.391-1.148-6.453-1.582-8.536c-0.576-2.765-1.234-5.465-1.998-8.07
			c-2.487-8.477-7.065-15.886-7.69-25.877c-0.665-10.655,4.65-20.238,9.406-29.577c-1.852,3.636-6.25,11.96-3.979,15.504
			c2.275,3.546,5.253-4.205,6.55-7.132c5.134-11.543,6.391-28.29,4.047-38.513c-1.287-5.613-3.665-10.273-7.033-13.232
			c-2.402-2.113-7.679-5.853-11.04-4.771c14.928-4.798,23.392,5.35,24.534,24.869c0.984,16.761-3.007,31.696-6.532,48.896
			c-2.208,10.785,0.614,35.721,10.777,31.09c3.125-1.427,5.588-5.197,5.754-9.789c0.125-3.413-1.316-10.541-5.026-12.488
			c10.995,2.975,10.417,15.528,8.467,23.15c-0.598,2.34-2.072,7.477-0.542,9.736c2.544,3.749,4.167-4.304,3.932-6.087
			c-0.152-1.159-0.558-2.207-1.271-3.176c3.024,1.959,3.617,6.626,3.875,9.588c0.29,3.304,0.172,6.862,1.379,9.971
			c1.367,3.521,5.373,5.326,7.673,1.335c2.475-4.285,2.302-8.847,1.925-13.527c-0.443-5.527-1.383-10.906-4.225-15.938
			c-3.003-5.312-8.211-9.566-11.674-14.692c-5.665-8.396-10.739-18.862-6.22-28.029C10.44,82.449,25.406,90.263,30.812,100.9
			c2.871,5.649,3.577,11.268,4.533,17.279c0.52,3.28,0.763,10.585,5.908,11.297c3.51,0.484,4.129-2.798,4.314-5.064
			c0.398-4.943-1.262-8.007-4.527-11.81c3.766,2.61,7.021,5.783,9.741,9.209c3.62,4.569,5.504,10.952,6.427,16.314
			c0.643,3.723,0.997,7.491,0.903,11.257c-0.087,3.547-0.471,7.087-1.041,10.603c-0.416,2.571-0.3,6.871-2.011,9.103
			c-0.028,0.03-0.86-4.179-0.86-4.645c-0.005-1.676-0.113-3.505,0.025-5.17c0.399-4.807-0.343-10.112-2.602-14.593
			c-1.159-2.302-2.745-4.445-4.681-6.326c-1.317-1.28-5.681-3.237-6.338-4.581c1.979,4.045,2.406,8.836,2.036,13.405
			c-0.401,4.966-3.082,10.266-2.758,15.149c1.078-2.207-3.333-10.166-5.826-6.648c-1.852,2.605,2.688,8.64,4.656,10.406
			c-2.594-1.271-5.195-3.009-7.312-4.802C30.337,160.386,29.315,159.493,28.334,158.597z"/>

			<linearGradient id="SVGID_29_" gradientUnits="userSpaceOnUse" x1="-752.666" y1="985.6992" x2="-461.5825" y2="1037.7069" gradientTransform="matrix(0.0227 -0.9997 0.9997 0.0227 -960.918 -485.9526)">
			<stop  offset="0" style="stop-color:#FCCF1F"/>
			<stop  offset="0.9888" style="stop-color:#F37721"/>
		</linearGradient>
		<path fill="url(#SVGID_29_)" d="M-6.43,238.48c-0.442-0.808-0.951-1.6-1.534-2.369c3.045-0.388,3.883,3.481,4.727,5.15
			c-0.043-2.021,1.12-3.891,1.484-5.867c0.445-2.42,0.478-5.051,0.715-7.483c0.542-5.561,0.323-10.76-0.556-16.216
			c-0.853-5.293-2.812-10.159-4.47-15.298c-1.922-5.961-3.058-12.505-4.09-18.642c-1.329-7.923-0.391-15.67,2.703-23.184
			c1.799-4.368,3.807-10.099,6.878-13.911c-0.937,4.666-2.858,9.048-2.936,14.001c-0.088,5.622,3.65,11.176,6.956,15.828
			c2.207,3.103,5.526,5.373,7.657,8.495c1.212,1.778,2.294,3.671,3.167,5.63c0.281,0.639,1.325,4.382,2.257,4.572
			c0.058,0.052,0.112,0.107,0.162,0.167c3.426-5.277,1.259-18.957-5.432-22.014c4.572,2.521,7.239,7.707,9.241,11.888
			c3.202,6.695,1.977,14.309,4.78,21.063c2.487,5.992,6.634-0.022,7-3.65c0.603-5.954-2.86-11.187-3.717-16.905
			c-0.441-2.955-0.084-6.094-0.004-9.096c-0.477,4.41,2.948,8.813,4.826,12.751c2.567,5.381,4.445,10.685,4.612,16.531
			c0.222,7.791-4.704,18.441,2.888,24.522c4.975,3.987,12.391,0.454,12.203-5.265c2.261,2.718,0.254,7.927-0.983,10.757
			c-1.576,3.604-3.109,7.05-4.567,10.592c-4.399,10.681-12.189,20.151-17.396,30.516c-0.917,1.823-2.136,3.591-2.941,5.471
			c-0.703,1.643-1.57,2.527-2.425,3.936c-1.415,2.33-2.93,6.143-3.299,8.678c-0.476,3.272-1.558,6.453-2.087,9.718
			c-0.537,3.292-1.94,6.243-2.65,9.532c-1.401,6.496-0.899,13.324,0.962,19.717c-1.88-5.39-4.646-11.453-4.412-17.167
			c0.301-7.354,1.424-15.061,2.492-22.369c1.859-12.715,10.057-22.536,14.932-34.227c4.224-10.133,5.297-23.614-4.928-31.48
			c2.847,2.72,3.735,5.875,3.452,9.559c-0.14,1.846-0.457,6.34-3.135,6.94c-2.567,0.575-4.492-2.709-5.274-4.205
			c-2.517-4.813-3.05-10.846-3.831-16.119c-1.753-11.779-1.22-35.336-20.422-35.641c9.457,2.897,13.578,13.16,15.132,20.738
			c3.032,14.733,1.543,31.999-2.949,46.362c-1.965,6.277-3.501,12.533-5.421,18.73c-3.762,12.138-3.905,24.082-0.739,36.468
			c1.781,6.96,5.575,13.114,8.498,19.71c5.281,11.92,12.496,24.514,25.353,31.703c-4.58-0.728-9.923-5.707-13.227-8.514
			c-5.968-5.075-11-10.006-15.478-16.167c-3.415-4.688-7.064-9.231-8.753-14.586c-1.808-5.726-4.031-11.382-5.525-17.162
			c-1.564-6.049-1.166-12.652-2.065-18.812c-1.382-9.455,2.935-17.851,4.291-27.091C-3.486,249.171-3.685,243.489-6.43,238.48z"/>

			<linearGradient id="SVGID_30_" gradientUnits="userSpaceOnUse" x1="1466.7422" y1="1149.7725" x2="1459.5465" y2="1043.4385" gradientTransform="matrix(0.9996 0.0289 -0.0289 0.9996 -1390.9648 -1030.8496)">
			<stop  offset="0" style="stop-color:#FCCF1F"/>
			<stop  offset="0.9888" style="stop-color:#F37721"/>
		</linearGradient>
		<path fill="url(#SVGID_30_)" d="M44.108,90.035c-0.677,2.177-6.939,14.332-4.157,17.296c-3.669-3.909-7.312-12.491-7.944-19.056
			c-0.679-7.067,1.136-14.811,3.264-20.176c2.077-5.229,5.354-9.178,7.115-14.752c1.698-5.375-0.729-9.681-4.234-11.748
			c1.485-1.353,3.835,0.812,5.043,2.938c5.194,9.132-2.871,20.761-4.659,27.421c-0.793,2.952-1.267,13.579,2.959,11.707
			c1.873-0.835,1.614-4.447,0.366-6.753c0.97-0.926,1.968,0.462,2.6,1.958C46.021,82.55,45.055,87.003,44.108,90.035z"/>

			<linearGradient id="SVGID_31_" gradientUnits="userSpaceOnUse" x1="1472.4785" y1="1143.0029" x2="1453.5934" y2="1057.2328" gradientTransform="matrix(0.9996 0.0289 -0.0289 0.9996 -1390.9648 -1030.8496)">
			<stop  offset="0" style="stop-color:#FCB514"/>
			<stop  offset="0.9888" style="stop-color:#FBE643"/>
		</linearGradient>
		<path fill="url(#SVGID_31_)" d="M38.283,94.826c0.148,0.389,0.279,0.767,0.382,1.121c0.723,2.494,0.159,10.184,1.287,11.384
			c-5.373-5.722-5.855-14.307-4.815-22.674C34.746,87.791,37.107,91.767,38.283,94.826z"/>

			<linearGradient id="SVGID_32_" gradientUnits="userSpaceOnUse" x1="-460.1455" y1="1045.041" x2="-430.88" y2="998.7737" gradientTransform="matrix(-0.9417 -0.0065 -0.0077 1.088 -436.6533 -861.916)">
			<stop  offset="0" style="stop-color:#FCCF1F"/>
			<stop  offset="0.9888" style="stop-color:#F37721"/>
		</linearGradient>
		<path fill="url(#SVGID_32_)" d="M-21.753,263.565c0.936,0.941,1.625,1.742,1.885,2.177c1.367,2.271,6.627,12.069,5.185,14.935
			c2.618-5.21,3.732-14.753,2.321-21.128c-1.522-6.868-5.875-13.293-9.805-17.371c-2.639-2.737-5.691-3.788-7.579-7.399
			c-1.21-2.313-3.486-7.999-2.808-10.727c-1.941,7.801,1.076,17.22,5.267,23.733c0.869,1.352,2.862,2.938,3.403,4.481
			c2.243,6.393-6.572,2.875-8.498,5.891C-30.801,255.68-24.899,260.404-21.753,263.565z"/>

			<linearGradient id="SVGID_33_" gradientUnits="userSpaceOnUse" x1="-463.6797" y1="1081.208" x2="-459.4415" y2="1055.7766" gradientTransform="matrix(-0.9417 -0.0065 -0.0077 1.088 -436.6533 -861.916)">
			<stop  offset="0" style="stop-color:#FCB514"/>
			<stop  offset="0.9888" style="stop-color:#FBE643"/>
		</linearGradient>
		<path fill="url(#SVGID_33_)" d="M-16.884,268.329c-0.032,0.429-0.052,0.832-0.047,1.207c0.033,2.631,3.052,9.545,2.247,11.143
			c3.834-7.624,1.628-15.816-2.108-23.159C-15.391,260.271-16.615,264.979-16.884,268.329z"/>

			<linearGradient id="SVGID_34_" gradientUnits="userSpaceOnUse" x1="797.1562" y1="1482.9785" x2="802.8574" y2="1434.3009" gradientTransform="matrix(0.9089 -0.4171 0.4171 0.9089 -1367.916 -844.5259)">
			<stop  offset="0" style="stop-color:#FCCF1F"/>
			<stop  offset="0.9888" style="stop-color:#F37721"/>
		</linearGradient>
		<path fill="url(#SVGID_34_)" d="M-32.775,144.58c5.271,8.025,12.342,17.059,4.963,27.374c0.695-6.219-2.83-10.518-6.103-14.417
			c-2.926-3.48-5.53-7.735-6.772-12.688c-1.539-6.146,0.345-22.67,7.734-22.112C-38.528,128.855-37.044,138.071-32.775,144.58z"/>

			<linearGradient id="SVGID_35_" gradientUnits="userSpaceOnUse" x1="798.7686" y1="1456.5293" x2="798.1223" y2="1466.2241" gradientTransform="matrix(0.9089 -0.4171 0.4171 0.9089 -1367.916 -844.5259)">
			<stop  offset="0" style="stop-color:#FCB514"/>
			<stop  offset="0.9888" style="stop-color:#FBE643"/>
		</linearGradient>
		<path fill="url(#SVGID_35_)" d="M-33.129,155.778c2.87,0.999,6.149,1.598,7.705,5.445c1.556,3.842-0.421,7.982-2.388,10.73
			C-27.233,166.78-28.359,157.438-33.129,155.778z"/>

			<linearGradient id="SVGID_36_" gradientUnits="userSpaceOnUse" x1="958.5029" y1="1505.6045" x2="974.5964" y2="1484.1466" gradientTransform="matrix(0.9343 -0.3565 0.3565 0.9343 -1373.877 -874.2627)">
			<stop  offset="0" style="stop-color:#FCCF1F"/>
			<stop  offset="0.9888" style="stop-color:#F37721"/>
		</linearGradient>
		<path fill="url(#SVGID_36_)" d="M57.137,189.092c-1.71,0.769,0.78-13.694,1.483-15.171c2.746-5.786,6.717-10.61,9.69-16.234
			C68.535,169.402,69.017,183.753,57.137,189.092z"/>

			<linearGradient id="SVGID_37_" gradientUnits="userSpaceOnUse" x1="1638.5781" y1="3280.0898" x2="1654.6649" y2="3258.6406" gradientTransform="matrix(0.4183 -0.1583 0.1616 0.4197 -1157.793 -927.2212)">
			<stop  offset="0" style="stop-color:#FCB514"/>
			<stop  offset="0.9888" style="stop-color:#FBE643"/>
		</linearGradient>
		<path fill="url(#SVGID_37_)" d="M57.11,189.312c-0.767,0.341,0.33-6.141,0.643-6.799c1.223-2.59,2.997-4.746,4.324-7.259
			C62.194,180.506,62.43,186.949,57.11,189.312z"/>

			<linearGradient id="SVGID_38_" gradientUnits="userSpaceOnUse" x1="451.8916" y1="926.3779" x2="459.893" y2="915.7094" gradientTransform="matrix(1.1036 -1.487 1.0483 1.1544 -1456.1465 -335.8574)">
			<stop  offset="0" style="stop-color:#FCCF1F"/>
			<stop  offset="0.9888" style="stop-color:#F37721"/>
		</linearGradient>
		<path fill="url(#SVGID_38_)" d="M11.365,61.193c-1.024,1.659-2.464-11.101-2.298-12.678c0.644-6.184,2.344-12.383,3.179-18.577
			C14.975,38.883,18.459,49.715,11.365,61.193z"/>

			<linearGradient id="SVGID_39_" gradientUnits="userSpaceOnUse" x1="509.9883" y1="1992.4492" x2="517.9872" y2="1981.7839" gradientTransform="matrix(0.4951 -0.6636 0.4729 0.5172 -1182.2861 -630.5059)">
			<stop  offset="0" style="stop-color:#FCB514"/>
			<stop  offset="0.9888" style="stop-color:#FBE643"/>
		</linearGradient>
		<path fill="url(#SVGID_39_)" d="M11.395,61.383c-0.459,0.74-1.119-4.964-1.046-5.67c0.283-2.762,1.043-5.532,1.414-8.3
			C12.997,51.414,14.577,56.264,11.395,61.383z"/>
		<g>

				<linearGradient id="SVGID_40_" gradientUnits="userSpaceOnUse" x1="2164.4062" y1="1071.1562" x2="2193.4021" y2="1025.3153" gradientTransform="matrix(0.7272 0.2494 -0.3244 0.946 -1202.9924 -1233.25)">
				<stop  offset="0" style="stop-color:#FCCF1F"/>
				<stop  offset="0.9888" style="stop-color:#F37721"/>
			</linearGradient>
			<path fill="url(#SVGID_40_)" d="M35.578,309.284c-1.22,0.419-2.152,0.811-2.543,1.058c-2.04,1.303-10.201,7.117-9.567,9.796
				c-1.154-4.865,0.462-12.573,3.737-17.015c3.522-4.786,9.793-8.305,14.958-10.156c3.469-1.24,6.868-1.049,9.825-3.213
				c1.894-1.381,5.847-5.013,5.944-7.33c-0.279,6.639-6.058,12.892-12.187,16.536c-1.271,0.751-3.752,1.319-4.75,2.333
				c-4.119,4.184,5.845,4.363,6.932,7.312C47.033,306.182,39.681,307.884,35.578,309.284z"/>

				<linearGradient id="SVGID_41_" gradientUnits="userSpaceOnUse" x1="2158.4697" y1="1102.1035" x2="2162.3152" y2="1079.028" gradientTransform="matrix(0.7272 0.2494 -0.3244 0.946 -1202.9924 -1233.25)">
				<stop  offset="0" style="stop-color:#FCB514"/>
				<stop  offset="0.9888" style="stop-color:#FBE643"/>
			</linearGradient>
			<path fill="url(#SVGID_41_)" d="M29.261,311.356c-0.088,0.339-0.186,0.658-0.299,0.947c-0.789,2.013-5.849,6.339-5.492,7.835
				c-1.696-7.12,2.906-12.704,8.814-17.131C30.07,304.669,29.956,308.695,29.261,311.356z"/>
		</g>

			<linearGradient id="SVGID_42_" gradientUnits="userSpaceOnUse" x1="-54.8721" y1="650.2041" x2="-49.1447" y2="642.5676" gradientTransform="matrix(0.7016 -1.8533 2.154 0.5182 -1357.3828 -121.0938)">
			<stop  offset="0" style="stop-color:#FCCF1F"/>
			<stop  offset="0.9888" style="stop-color:#F37721"/>
		</linearGradient>
		<path fill="url(#SVGID_42_)" d="M3.036,317.529c-0.192,1.268-7.62-5.987-8.21-6.979c-2.316-3.878-3.63-8.048-5.771-11.984
			C-4.096,303.192,4.374,308.744,3.036,317.529z"/>

			<linearGradient id="SVGID_43_" gradientUnits="userSpaceOnUse" x1="-620.1792" y1="1382.5742" x2="-614.4529" y2="1374.9391" gradientTransform="matrix(0.3168 -0.8283 0.9696 0.2306 -1140.1816 -514.8823)">
			<stop  offset="0" style="stop-color:#FCB514"/>
			<stop  offset="0.9888" style="stop-color:#FBE643"/>
		</linearGradient>
		<path fill="url(#SVGID_43_)" d="M3.155,317.634c-0.091,0.567-3.424-2.674-3.69-3.116c-1.039-1.731-1.627-3.597-2.585-5.354
			C-0.041,311.228,3.768,313.709,3.155,317.634z"/>
	</g>
</g>
<rect x="7" y="7" fill="none" width="38" height="233"/>
<g display="none" opacity="0.7">
	<defs>
		<polygon id="SVGID_44_" opacity="0.7" points="0,0 0,240 7,240 7,7 		"/>
	</defs>
	<clipPath id="SVGID_45_" display="inline">
		<use xlink:href="#SVGID_44_"  overflow="visible"/>
	</clipPath>
	<g display="inline" clip-path="url(#SVGID_45_)">

			<linearGradient id="SVGID_46_" gradientUnits="userSpaceOnUse" x1="7.2461" y1="311.0381" x2="1.7572" y2="127.899" gradientTransform="matrix(0.9938 -0.1113 0.1113 0.9938 -20.9365 3.7983)">
			<stop  offset="0" style="stop-color:#FCCF1F"/>
			<stop  offset="0.9888" style="stop-color:#F37721"/>
		</linearGradient>
		<path fill="url(#SVGID_46_)" d="M-26.799,261.354c3.837,4.677,0.481,8.211,2.149,12.622c-2.058-5.442-9.956-8.501-13.709-13.135
			c-3.878-4.786-7.198-10.641-8.141-16.711c-1.244-8.007,7.779-19.502,1.814-26.555c4.651,4.877,4.246,10.484,5.278,16.809
			c7.231-7.204,6.735-19.701,2.385-28.349c-4.648-9.242-11.255-23.245-1.991-31.821c-3.745,5.473-0.675,17.071,3.161,21.909
			c4.889,6.163,10.725,8.821,11.225,17.213c0.307-6.979,5.382-12.145,3.947-19.767c-0.993-5.276-10.727-16.759-5.793-21.461
			c0.665,4.997,1.83,6.716,5.179,10.494c2.414,2.721,4.757,5.081,4.607,8.907c7.599-6.136,2.102-19.769-2.367-25.659
			c-3.004-3.959-4.829-7.746-6.014-12.433c-1.548-6.122-0.246-9.026,0.331-14.915c-4.105,7.22,4.885,15.736,9.39,20.395
			c5.278,5.453,11.38,12.783,11.685,19.594c-1.082-11.616-7.117-25.078-4.088-36.655c1.408-5.383,5.453-10.21,8.229-14.924
			c2.108-3.579,4.389-8.529,7.721-11.206c-5.424,7.019-7.085,17.788-6.734,26.161c0.389,9.308,5.771,16.602,7.611,25.28
			c4.41-4.413,6.354-14.908,1.412-19.685c11.207,8.54,7.839,20.978,8.702,33.619c3.402-7.559,8.803-13.154,16.199-16.819
			c-5.642,3.812-8.123,13.82-6.298,19.955c1.347,4.532,6.221,7.685,7.782,12.178c1.152,3.317,0.696,7.608,1.202,11.069
			c11.233-4.096,2.923-18.021-0.123-23.937c1.831,1.924,4.095,3.925,6.127,5.88c2.844,2.735,7.27,4.089,9.229,7.151
			c3.58,5.592,2.551,12.027,1.731,17.813c2.744-1.431,5.875-5.21,5.441-8.544c1.964,4.234,4.562,12.139,3.836,18.279
			c-0.64,5.416-5.166,11.12-7.478,15.652c3.844-1.803,9.007-9.658,8.673-13.863c7.194,10.065-17.479,25.642-12.005,37.229
			c-4.758-2.095-11.271-2.451-13.605-8.273c-2.081-5.185-0.649-12.328,0.3-17.379c-5.397,1.206-7.559,11.472-6.939,16.05
			c-6.036-1.021-4.938-11.924-4.715-16.125c0.431-8.101,0.472-13.589-6.933-18.607c7.153,11.683-4.347,23.683-0.87,36.453
			c-3.697-3.734-6.188-10.082-5.069-15.453c-4.51,2.154-3.893,10.329-2.371,14.102c-7.221,0.589-11.974-12.304-10.989-17.908
			c1.448-8.234,8.966-14.951,0.087-20.378c0.819,7.977-4.041,10.963-7.084,18.146c-3.505,8.267-0.819,13.514,2.327,20.776
			c-3.367-7.771-10.761-4.1-9.917-14.617c-1.915,2.84-1.938,9.384-0.466,12.354c0.594,1.197,5.401,6.563,6.836,6.088
			c-5.108,1.694-10.84-0.202-14.251-4.202c-4.422-5.184-1.764-9.404-1.605-14.802c-4.025,1.944-5.641,9.835-4.967,13.925
			c0.902,5.477,7.627,9.481,7.234,15.199C-20.754,265.566-24.035,263.165-26.799,261.354z"/>

			<linearGradient id="SVGID_47_" gradientUnits="userSpaceOnUse" x1="2.6665" y1="248.0273" x2="-1.3013" y2="115.6397" gradientTransform="matrix(0.9938 -0.1113 0.1113 0.9938 -20.9365 3.7983)">
			<stop  offset="0" style="stop-color:#FCCF1F"/>
			<stop  offset="0.9888" style="stop-color:#F37721"/>
		</linearGradient>
		<path fill="url(#SVGID_47_)" d="M-26.799,261.354c3.837,4.677,0.481,8.211,2.149,12.622c-2.058-5.442-9.956-8.501-13.709-13.135
			c-5.33-6.579-7.874-12.888-3.125-20.81c-0.3,3.63,0.767,7.104,3.343,9.63c-0.152-7.504,4.119-11.558,6.728-18.421
			c1.614-4.241,3.626-12.415,0.577-16.573c5.083,3.726,5.643,10.272,7.615,15.542c-1.155-10.821,8.456-19.955,6.904-30.722
			c0.199-0.003,0.867-0.064,1.049-0.108c3.124,4.877,3.442,12.901,2.578,18.348c8.468-10.418,4.535-21.677,4.152-33.737
			c2.349,3.123,4.393,7.545,4.833,11.361c3.756-5.265,3.788-11.386,3.087-17.636c-0.531-4.74-3.917-13.608-1.676-17.871
			c-2.028,8.024,3.94,17.736,7.113,24.795c3.89,8.654,3.701,15.123,2.816,24.418c1.775-6.968,8.554-11.862,10.954-18.024
			c1.228,4.359-3.571,9.363-4.426,13.641c-0.994,4.974,2.277,9.163,6.162,12.366c-1.415-7.643,8.778-17.29,1.286-24.361
			c2.694,10.343,18.3,21.657,11.754,33.516c2.771-7.244,11.401-11.199,11.617-20.056c4.164,5.764-0.144,15.099-3.555,20.743
			c3.797-0.691,7.465-5.339,9.57-8.127c-2.591,6.507-4.36,15.268-1.093,21.691c2.105-5.372,5.201-9.936,7.87-14.934
			c-2.042,7.263-5.647,12.823-4.377,20.67c-0.123-0.76,6.842-5.901,7.479-7.755c0.818,8.824-11.705,15.521-7.368,24.7
			c-4.758-2.095-11.271-2.451-13.605-8.273c-2.081-5.185-0.649-12.328,0.3-17.379c-5.397,1.206-7.559,11.472-6.939,16.05
			c-6.036-1.021-4.938-11.924-4.715-16.125c0.431-8.101,0.472-13.589-6.933-18.607c7.153,11.683-4.347,23.683-0.87,36.453
			c-3.697-3.734-6.188-10.082-5.069-15.453c-4.51,2.154-3.893,10.329-2.371,14.102c-7.221,0.589-11.974-12.304-10.989-17.908
			c1.448-8.234,8.966-14.951,0.087-20.378c0.819,7.977-4.041,10.963-7.084,18.146c-3.505,8.267-0.819,13.514,2.327,20.776
			c-3.367-7.771-10.761-4.1-9.917-14.617c-1.915,2.84-1.938,9.384-0.466,12.354c0.594,1.197,5.401,6.563,6.836,6.088
			c-5.108,1.694-10.84-0.202-14.251-4.202c-4.422-5.184-1.764-9.404-1.605-14.802c-4.025,1.944-5.641,9.835-4.967,13.925
			c0.902,5.477,7.627,9.481,7.234,15.199C-20.754,265.566-24.035,263.165-26.799,261.354z"/>

			<linearGradient id="SVGID_48_" gradientUnits="userSpaceOnUse" x1="17.2012" y1="147.1553" x2="15.6999" y2="156.1628" gradientTransform="matrix(0.9938 -0.1113 0.1113 0.9938 -20.9365 3.7983)">
			<stop  offset="0" style="stop-color:#FCB514"/>
			<stop  offset="0.0668" style="stop-color:#FCBB19"/>
			<stop  offset="0.4075" style="stop-color:#FBD230"/>
			<stop  offset="0.7235" style="stop-color:#FBE13E"/>
			<stop  offset="0.9888" style="stop-color:#FBE643"/>
		</linearGradient>
		<path fill="url(#SVGID_48_)" d="M-26.799,261.354c3.836,4.676,0.481,8.211,2.149,12.622c-1.593-4.215-6.234-5.826-8.51-9.455
			c-2.309-3.68-3.068-9.184-3.538-13.372c0.332,4.615,4.28,5.76,7.826,7.62c-3.816-3.584-2.863-12.509-0.942-16.788
			c1.906-4.241,5.371-8.345,5.739-13.03c3.644,2.55,3.457,8.637,4.186,12.632c2.302-2.595,2.631-8.52,3.639-11.928
			c1.182,3.487,4.475,6.207,5.524,9.679c0.456-3.216,0.117-6.477,0.583-9.702c0.493-3.4,2.546-6.603,3.569-9.832
			c2.264-7.153,3.438-14.296,2.759-21.712c4.042-0.417,11.004,12.729,12.805,15.866c1.627,2.836,3.195,5.622,3.371,8.994
			c0.146,2.799-1.544,5.611-0.981,8.281c1.785-2.312,3.277-4.907,3.801-7.729c1.731,3.134,2.369,6.793,2.736,10.366
			c4.115-4.574,3.37-11.978,2.87-17.451c7.59-0.502,9.67,14.998,10.548,19.815c2.014-3.035,2.01-7.924,6.821-8.574
			c-0.929,3.475-4.421,6.324-3.076,10.404c2.847-1.772,3.719-6.114,7.442-6.76c-0.255,7.19-2.735,20.973,3.048,26.669
			c1.061-3.129,2.244-6.954,5.263-8.787c-1.268,4.623-3.066,8.005-0.943,12.803c-3.265,0.423-8.834-4.252-9.987-7.131
			c-2.081-5.185-0.649-12.328,0.3-17.379c-5.397,1.206-7.559,11.472-6.939,16.05c-6.036-1.021-4.938-11.924-4.715-16.125
			c0.431-8.101,0.472-13.589-6.933-18.607c7.153,11.683-4.347,23.683-0.87,36.453c-3.697-3.734-6.188-10.082-5.069-15.453
			c-4.51,2.154-3.893,10.329-2.371,14.102C6.086,254.483,1.015,257.269,2,251.666c1.448-8.235,3.212-3.906-5.667-9.333
			c0.819,7.977,2.031-15.762-1.013-8.578c-3.505,8.267-0.819,13.514,2.327,20.776c-3.367-7.771-10.761-4.1-9.917-14.617
			c-1.915,2.84-1.938,9.384-0.466,12.354c0.594,1.197,5.401,6.563,6.836,6.088c-5.108,1.694-10.84-0.202-14.251-4.202
			c-4.422-5.184-1.764-9.404-1.605-14.802c-4.025,1.944-5.641,9.835-4.967,13.925c0.902,5.477,7.627,9.481,7.234,15.199
			C-20.754,265.566-24.035,263.165-26.799,261.354z"/>
	</g>
</g>
</svg>
