<?xml version="1.0" encoding="utf-8"?>
<!-- Generator: Adobe Illustrator 15.0.2, SVG Export Plug-In . SVG Version: 6.00 Build 0)  -->
<!DOCTYPE svg PUBLIC "-//W3C//DTD SVG 1.1//EN" "http://www.w3.org/Graphics/SVG/1.1/DTD/svg11.dtd">
<svg version="1.1" id="Livello_1" xmlns="http://www.w3.org/2000/svg" xmlns:xlink="http://www.w3.org/1999/xlink" x="0px" y="0px"
	 width="25px" height="25px" viewBox="0 0 25 25" enable-background="new 0 0 25 25" xml:space="preserve">
<g>
	<path fill="#FFFFFF" d="M23.845,15.092c0.173-0.794,0.266-1.618,0.266-2.464c0-6.341-5.141-11.482-11.482-11.482
		c-0.669,0-1.325,0.059-1.964,0.168c-1.025-0.646-2.24-1.021-3.543-1.021c-3.678,0-6.658,2.981-6.658,6.659
		c0,1.229,0.334,2.38,0.915,3.368c-0.152,0.745-0.232,1.518-0.232,2.309c0,6.342,5.141,11.482,11.482,11.482
		c0.719,0,1.421-0.066,2.103-0.192c0.938,0.504,2.009,0.79,3.148,0.79c3.677,0,6.658-2.981,6.658-6.659
		C24.537,16.986,24.287,15.983,23.845,15.092z M18.517,18.115c-0.531,0.752-1.315,1.348-2.332,1.771
		c-1.008,0.419-2.215,0.631-3.589,0.631c-1.648,0-3.031-0.29-4.111-0.862c-0.771-0.417-1.407-0.981-1.89-1.678
		c-0.488-0.704-0.735-1.402-0.735-2.075c0-0.421,0.161-0.785,0.479-1.084c0.314-0.296,0.718-0.446,1.199-0.446
		c0.394,0,0.734,0.119,1.011,0.353c0.265,0.224,0.491,0.556,0.674,0.983c0.203,0.466,0.425,0.859,0.659,1.17
		c0.226,0.298,0.549,0.549,0.963,0.744c0.416,0.197,0.978,0.297,1.668,0.297c0.949,0,1.728-0.203,2.312-0.603
		c0.572-0.391,0.85-0.858,0.85-1.433c0-0.453-0.145-0.81-0.443-1.089c-0.312-0.293-0.725-0.52-1.225-0.676
		c-0.522-0.163-1.23-0.338-2.107-0.521c-1.191-0.256-2.203-0.559-3.009-0.901c-0.823-0.35-1.487-0.835-1.973-1.443
		c-0.493-0.617-0.743-1.391-0.743-2.301c0-0.867,0.263-1.649,0.78-2.324c0.514-0.669,1.263-1.19,2.229-1.547
		c0.953-0.353,2.087-0.531,3.369-0.531c1.025,0,1.927,0.118,2.68,0.353c0.757,0.235,1.395,0.554,1.896,0.945
		c0.505,0.395,0.88,0.817,1.116,1.256c0.238,0.442,0.359,0.883,0.359,1.31c0,0.41-0.158,0.783-0.472,1.108
		c-0.314,0.326-0.711,0.492-1.179,0.492c-0.426,0-0.758-0.104-0.989-0.309c-0.215-0.189-0.438-0.485-0.686-0.912
		c-0.286-0.544-0.633-0.973-1.03-1.274c-0.386-0.294-1.03-0.442-1.917-0.442c-0.823,0-1.492,0.165-1.989,0.49
		C9.863,7.88,9.63,8.24,9.63,8.667c0,0.261,0.075,0.479,0.229,0.668c0.163,0.199,0.393,0.374,0.684,0.52
		c0.302,0.152,0.613,0.272,0.925,0.358c0.319,0.089,0.854,0.22,1.589,0.39c0.929,0.199,1.783,0.423,2.538,0.664
		c0.765,0.245,1.426,0.547,1.964,0.897c0.551,0.358,0.986,0.817,1.295,1.367c0.31,0.551,0.467,1.231,0.467,2.021
		C19.32,16.499,19.05,17.361,18.517,18.115z"/>
</g>
</svg>
