<?xml version="1.0" encoding="utf-8"?>
<!-- Generator: Adobe Illustrator 15.0.2, SVG Export Plug-In . SVG Version: 6.00 Build 0)  -->
<!DOCTYPE svg PUBLIC "-//W3C//DTD SVG 1.1//EN" "http://www.w3.org/Graphics/SVG/1.1/DTD/svg11.dtd">
<svg version="1.1" id="Livello_1" xmlns="http://www.w3.org/2000/svg" xmlns:xlink="http://www.w3.org/1999/xlink" x="0px" y="0px"
	 width="150px" height="35px" viewBox="0 0 150 35" enable-background="new 0 0 150 35" xml:space="preserve">
<path fill="#FFFFFF" d="M34.773,8.898c-1.05,0.466-2.178,0.78-3.36,0.922c1.208-0.725,2.136-1.871,2.572-3.237
	c-1.13,0.671-2.383,1.158-3.716,1.42C29.203,6.866,27.683,6.155,26,6.155c-3.23,0-5.851,2.619-5.851,5.851
	c0,0.459,0.052,0.905,0.151,1.333c-4.861-0.244-9.173-2.573-12.059-6.112C7.738,8.09,7.45,9.095,7.45,10.167
	c0,2.029,1.033,3.82,2.603,4.869c-0.959-0.03-1.861-0.294-2.649-0.731c-0.001,0.024-0.001,0.049-0.001,0.073
	c0,2.835,2.018,5.199,4.693,5.736c-0.49,0.134-1.008,0.205-1.541,0.205c-0.377,0-0.744-0.036-1.102-0.104
	c0.745,2.324,2.905,4.016,5.466,4.062c-2.003,1.569-4.524,2.505-7.267,2.505c-0.472,0-0.938-0.028-1.395-0.082
	c2.589,1.66,5.664,2.629,8.968,2.629c10.761,0,16.646-8.915,16.646-16.646c0-0.254-0.006-0.506-0.018-0.758
	C32.997,11.102,33.988,10.072,34.773,8.898z"/>
<g>
	<path fill="#FFFFFF" d="M58.983,30.037h-5.766V11.489h5.766V30.037z M56.062,9.212c-1.82,0-2.996-1.289-2.996-2.882
		c0-1.631,1.214-2.883,3.072-2.883s2.996,1.252,3.035,2.883C59.173,7.923,57.996,9.212,56.062,9.212z M80.033,30.037h-5.766V19.757
		c0-2.39-0.835-4.021-2.921-4.021c-1.593,0-2.541,1.101-2.958,2.162c-0.151,0.379-0.19,0.91-0.19,1.441v10.696h-5.766V17.406
		c0-2.313-0.075-4.248-0.15-5.917h5.006l0.267,2.579h0.113c0.759-1.214,2.617-2.996,5.728-2.996c3.793,0,6.638,2.541,6.638,8.003
		V30.037z"/>
</g>
<g>
	<path fill="#FFFFFF" d="M113.534,19.108c0,0,3.071-0.229,3.071-3.83c0-3.603-2.513-5.36-5.696-5.36h-5.859h-0.172h-4.443v20.131
		h4.443h0.172h5.859c0,0,6.395,0.201,6.395-5.942C117.304,24.106,117.583,19.108,113.534,19.108z M110.155,13.495h0.754
		c0,0,1.424,0,1.424,2.095c0,2.094-0.838,2.397-1.787,2.397h-5.496v-4.492H110.155z M110.613,26.47h-5.563v-5.38h5.859
		c0,0,2.122-0.028,2.122,2.765C113.031,26.209,111.446,26.452,110.613,26.47z"/>
	<path fill="#FFFFFF" d="M125.833,15.039c-7.742,0-7.734,7.734-7.734,7.734s-0.531,7.695,7.734,7.695c0,0,6.888,0.394,6.888-5.353
		h-3.543c0,0,0.118,2.164-3.228,2.164c0,0-3.542,0.237-3.542-3.503h10.431C132.839,23.777,133.98,15.039,125.833,15.039z
		 M122.368,21.09c0,0,0.434-3.104,3.543-3.104s3.07,3.104,3.07,3.104H122.368z"/>
	<path fill="#FFFFFF" d="M121.502,13.583h8.306v-2.479h-8.306V13.583z"/>
</g>
</svg>
