<?xml version="1.0" encoding="utf-8"?>
<!-- Generator: Adobe Illustrator 15.0.2, SVG Export Plug-In . SVG Version: 6.00 Build 0)  -->
<!DOCTYPE svg PUBLIC "-//W3C//DTD SVG 1.1//EN" "http://www.w3.org/Graphics/SVG/1.1/DTD/svg11.dtd">
<svg version="1.1" id="Livello_1" xmlns="http://www.w3.org/2000/svg" xmlns:xlink="http://www.w3.org/1999/xlink" x="0px" y="0px"
	 width="1100px" height="1376px" viewBox="0 0 1100 1376" enable-background="new 0 0 1100 1376" xml:space="preserve">
<polygon opacity="0.7" fill="#FFFFFF" points="1064,1376 0,1376 0,976 1100,976 1100,1340 "/>
<polygon fill="#63A69F" points="0,968 0,932 36,932 "/>
<polygon fill="#F2E1AC" points="36,968 36,932 72,932 "/>
<polygon fill="#F2836B" points="72,968 72,932 108,932 "/>
<polygon opacity="0.7" fill="#FFFFFF" points="1100,300 0,300 0,0 1059,0 1100,41 "/>
<polygon fill="#63A69F" points="1059,0 1059,41 1100,41 "/>
<polygon opacity="0.7" fill="#FFFFFF" points="1100,600 0,600 0,300 1059,300 1100,341 "/>
<polygon fill="#F2E1AC" points="1059,300 1059,341 1100,341 "/>
<polygon opacity="0.7" fill="#FFFFFF" points="1100,900 0,900 0,600 1059,600 1100,641 "/>
<polygon fill="#F2836B" points="1059,600 1059,641 1100,641 "/>
<polygon fill="#568983" points="0,920 0,900 20,900 "/>
<polygon fill="#D1C08F" points="20,920 20,900 40,900 "/>
<polygon fill="#C97365" points="40,920 40,900 60,900 "/>
<g>
	<path fill-rule="evenodd" clip-rule="evenodd" fill="#FFFFFF" d="M1089,917.89l-7.891,7.891l-0.789-0.789l7.891-7.891L1089,917.89z
		"/>
	<path fill-rule="evenodd" clip-rule="evenodd" fill="#FFFFFF" d="M1081.109,910l7.891,7.89l-0.789,0.789l-7.891-7.89L1081.109,910z
		"/>
</g>
</svg>
